<?xml version="1.0" encoding="utf-8"?>
<!-- Generator: Adobe Illustrator 23.0.6, SVG Export Plug-In . SVG Version: 6.00 Build 0)  -->
<svg version="1.1" id="Calque_1" xmlns="http://www.w3.org/2000/svg" xmlns:xlink="http://www.w3.org/1999/xlink" x="0px" y="0px"
	 viewBox="0 0 417.3 782.8" style="enable-background:new 0 0 417.3 782.8;" xml:space="preserve">
<style type="text/css">
	.st0{fill:#E88E47;}
	.st1{opacity:0.8;}
	.st2{fill:#FFFFFF;}
	.st3{fill:#FEFEFE;}
	.st4{fill:#FDFDFD;}
	.st5{fill:#FCFCFC;}
	.st6{fill:#FBFBFB;}
	.st7{opacity:0.99;fill:#FAFAFA;enable-background:new    ;}
	.st8{opacity:0.99;fill:#F9F9F9;enable-background:new    ;}
	.st9{opacity:0.99;fill:#F8F8F8;enable-background:new    ;}
	.st10{opacity:0.99;fill:#F7F7F7;enable-background:new    ;}
	.st11{opacity:0.99;fill:#F6F6F6;enable-background:new    ;}
	.st12{opacity:0.99;fill:#F5F5F5;enable-background:new    ;}
	.st13{opacity:0.99;fill:#F4F4F4;enable-background:new    ;}
	.st14{opacity:0.99;fill:#F3F3F3;enable-background:new    ;}
	.st15{opacity:0.99;fill:#F2F2F2;enable-background:new    ;}
	.st16{opacity:0.99;fill:#F1F1F1;enable-background:new    ;}
	.st17{opacity:0.98;fill:#F0F0F0;enable-background:new    ;}
	.st18{opacity:0.98;fill:#EFEFEF;enable-background:new    ;}
	.st19{opacity:0.98;fill:#EEEEEE;enable-background:new    ;}
	.st20{opacity:0.98;fill:#EDEDED;enable-background:new    ;}
	.st21{opacity:0.98;fill:#ECECEC;enable-background:new    ;}
	.st22{opacity:0.98;fill:#EBEBEB;enable-background:new    ;}
	.st23{opacity:0.98;fill:#EAEAEA;enable-background:new    ;}
	.st24{opacity:0.98;fill:#E9E9E9;enable-background:new    ;}
	.st25{opacity:0.98;fill:#E8E8E8;enable-background:new    ;}
	.st26{opacity:0.97;fill:#E7E7E7;enable-background:new    ;}
	.st27{opacity:0.97;fill:#E6E6E6;enable-background:new    ;}
	.st28{opacity:0.97;fill:#E5E5E5;enable-background:new    ;}
	.st29{opacity:0.97;fill:#E4E4E4;enable-background:new    ;}
	.st30{opacity:0.97;fill:#E3E3E3;enable-background:new    ;}
	.st31{opacity:0.97;fill:#E2E2E2;enable-background:new    ;}
	.st32{opacity:0.97;fill:#E1E1E1;enable-background:new    ;}
	.st33{opacity:0.97;fill:#E0E0E0;enable-background:new    ;}
	.st34{opacity:0.97;fill:#DFDFDF;enable-background:new    ;}
	.st35{opacity:0.97;fill:#DEDEDE;enable-background:new    ;}
	.st36{opacity:0.96;fill:#DDDDDD;enable-background:new    ;}
	.st37{opacity:0.96;fill:#DCDCDC;enable-background:new    ;}
	.st38{opacity:0.96;fill:#DBDBDB;enable-background:new    ;}
	.st39{opacity:0.96;fill:#DADADA;enable-background:new    ;}
	.st40{opacity:0.96;fill:#D9D9D9;enable-background:new    ;}
	.st41{opacity:0.96;fill:#D8D8D8;enable-background:new    ;}
	.st42{opacity:0.96;fill:#D7D7D7;enable-background:new    ;}
	.st43{opacity:0.96;fill:#D6D6D6;enable-background:new    ;}
	.st44{opacity:0.96;fill:#D5D5D5;enable-background:new    ;}
	.st45{opacity:0.95;fill:#D4D4D4;enable-background:new    ;}
	.st46{opacity:0.95;fill:#D3D3D3;enable-background:new    ;}
	.st47{opacity:0.95;fill:#D2D2D2;enable-background:new    ;}
	.st48{opacity:0.95;fill:#D1D1D1;enable-background:new    ;}
	.st49{opacity:0.95;fill:#D0D0D0;enable-background:new    ;}
	.st50{opacity:0.95;fill:#CFCFCF;enable-background:new    ;}
	.st51{opacity:0.95;fill:#CECECE;enable-background:new    ;}
	.st52{opacity:0.95;fill:#CDCDCD;enable-background:new    ;}
	.st53{opacity:0.95;fill:#CCCCCC;enable-background:new    ;}
	.st54{opacity:0.94;fill:#CBCBCB;enable-background:new    ;}
	.st55{opacity:0.94;fill:#CACACA;enable-background:new    ;}
	.st56{opacity:0.94;fill:#C9C9C9;enable-background:new    ;}
	.st57{opacity:0.94;fill:#C8C8C8;enable-background:new    ;}
	.st58{opacity:0.94;fill:#C7C7C7;enable-background:new    ;}
	.st59{opacity:0.94;fill:#C6C6C6;enable-background:new    ;}
	.st60{opacity:0.94;fill:#C5C5C5;enable-background:new    ;}
	.st61{opacity:0.94;fill:#C4C4C4;enable-background:new    ;}
	.st62{opacity:0.94;fill:#C3C3C3;enable-background:new    ;}
	.st63{opacity:0.94;fill:#C2C2C2;enable-background:new    ;}
	.st64{opacity:0.93;fill:#C1C1C1;enable-background:new    ;}
	.st65{opacity:0.93;fill:#C0C0C0;enable-background:new    ;}
	.st66{opacity:0.93;fill:#BFBFBF;enable-background:new    ;}
	.st67{opacity:0.93;fill:#BEBEBE;enable-background:new    ;}
	.st68{opacity:0.93;fill:#BDBDBD;enable-background:new    ;}
	.st69{opacity:0.93;fill:#BCBCBC;enable-background:new    ;}
	.st70{opacity:0.93;fill:#BBBBBB;enable-background:new    ;}
	.st71{opacity:0.93;fill:#BABABA;enable-background:new    ;}
	.st72{opacity:0.93;fill:#B9B9B9;enable-background:new    ;}
	.st73{opacity:0.92;fill:#B8B8B8;enable-background:new    ;}
	.st74{opacity:0.92;fill:#B7B7B7;enable-background:new    ;}
	.st75{opacity:0.92;fill:#B6B6B6;enable-background:new    ;}
	.st76{opacity:0.92;fill:#B5B5B5;enable-background:new    ;}
	.st77{opacity:0.92;fill:#B4B4B4;enable-background:new    ;}
	.st78{opacity:0.92;fill:#B3B3B3;enable-background:new    ;}
	.st79{opacity:0.92;fill:#B2B2B2;enable-background:new    ;}
	.st80{opacity:0.92;fill:#B1B1B1;enable-background:new    ;}
	.st81{opacity:0.92;fill:#B0B0B0;enable-background:new    ;}
	.st82{opacity:0.92;fill:#AFAFAF;enable-background:new    ;}
	.st83{opacity:0.91;fill:#AEAEAE;enable-background:new    ;}
	.st84{opacity:0.91;fill:#ADADAD;enable-background:new    ;}
	.st85{opacity:0.91;fill:#ACACAC;enable-background:new    ;}
	.st86{opacity:0.91;fill:#ABABAB;enable-background:new    ;}
	.st87{opacity:0.91;fill:#AAAAAA;enable-background:new    ;}
	.st88{opacity:0.91;fill:#A9A9A9;enable-background:new    ;}
	.st89{opacity:0.91;fill:#A8A8A8;enable-background:new    ;}
	.st90{opacity:0.91;fill:#A7A7A7;enable-background:new    ;}
	.st91{opacity:0.91;fill:#A6A6A6;enable-background:new    ;}
	.st92{opacity:0.9;fill:#A5A5A5;enable-background:new    ;}
	.st93{opacity:0.9;fill:#A4A4A4;enable-background:new    ;}
	.st94{opacity:0.9;fill:#A3A3A3;enable-background:new    ;}
	.st95{opacity:0.9;fill:#A2A2A2;enable-background:new    ;}
	.st96{opacity:0.9;fill:#A1A1A1;enable-background:new    ;}
	.st97{opacity:0.9;fill:#A0A0A0;enable-background:new    ;}
	.st98{opacity:0.9;fill:#9F9F9F;enable-background:new    ;}
	.st99{opacity:0.9;fill:#9E9E9E;enable-background:new    ;}
	.st100{opacity:0.9;fill:#9D9D9D;enable-background:new    ;}
	.st101{opacity:0.9;fill:#9C9C9C;enable-background:new    ;}
	.st102{opacity:0.89;fill:#9B9B9B;enable-background:new    ;}
	.st103{opacity:0.89;fill:#9A9A9A;enable-background:new    ;}
	.st104{opacity:0.89;fill:#999999;enable-background:new    ;}
	.st105{opacity:0.89;fill:#989898;enable-background:new    ;}
	.st106{opacity:0.89;fill:#979797;enable-background:new    ;}
	.st107{opacity:0.89;fill:#969696;enable-background:new    ;}
	.st108{opacity:0.89;fill:#959595;enable-background:new    ;}
	.st109{opacity:0.89;fill:#949494;enable-background:new    ;}
	.st110{opacity:0.89;fill:#939393;enable-background:new    ;}
	.st111{opacity:0.88;fill:#929292;enable-background:new    ;}
	.st112{opacity:0.88;fill:#919191;enable-background:new    ;}
	.st113{opacity:0.88;fill:#909090;enable-background:new    ;}
	.st114{opacity:0.88;fill:#8F8F8F;enable-background:new    ;}
	.st115{opacity:0.88;fill:#8E8E8E;enable-background:new    ;}
	.st116{opacity:0.88;fill:#8D8D8D;enable-background:new    ;}
	.st117{opacity:0.88;fill:#8C8C8C;enable-background:new    ;}
	.st118{opacity:0.88;fill:#8B8B8B;enable-background:new    ;}
	.st119{opacity:0.88;fill:#8A8A8A;enable-background:new    ;}
	.st120{opacity:0.88;fill:#898989;enable-background:new    ;}
	.st121{opacity:0.87;fill:#888888;enable-background:new    ;}
	.st122{opacity:0.87;fill:#878787;enable-background:new    ;}
	.st123{opacity:0.87;fill:#868686;enable-background:new    ;}
	.st124{opacity:0.87;fill:#858585;enable-background:new    ;}
	.st125{opacity:0.87;fill:#848484;enable-background:new    ;}
	.st126{opacity:0.87;fill:#838383;enable-background:new    ;}
	.st127{opacity:0.87;fill:#828282;enable-background:new    ;}
	.st128{opacity:0.87;fill:#818181;enable-background:new    ;}
	.st129{opacity:0.87;fill:#808080;enable-background:new    ;}
	.st130{opacity:0.86;fill:#7F7F7F;enable-background:new    ;}
	.st131{opacity:0.86;fill:#7E7E7E;enable-background:new    ;}
	.st132{opacity:0.86;fill:#7D7D7D;enable-background:new    ;}
	.st133{opacity:0.86;fill:#7C7C7C;enable-background:new    ;}
	.st134{opacity:0.86;fill:#7B7B7B;enable-background:new    ;}
	.st135{opacity:0.86;fill:#7A7A7A;enable-background:new    ;}
	.st136{opacity:0.86;fill:#797979;enable-background:new    ;}
	.st137{opacity:0.86;fill:#787878;enable-background:new    ;}
	.st138{opacity:0.86;fill:#777777;enable-background:new    ;}
	.st139{opacity:0.86;fill:#767676;enable-background:new    ;}
	.st140{opacity:0.85;fill:#757575;enable-background:new    ;}
	.st141{opacity:0.85;fill:#747474;enable-background:new    ;}
	.st142{opacity:0.85;fill:#737373;enable-background:new    ;}
	.st143{opacity:0.85;fill:#727272;enable-background:new    ;}
	.st144{opacity:0.85;fill:#717171;enable-background:new    ;}
	.st145{opacity:0.85;fill:#707070;enable-background:new    ;}
	.st146{opacity:0.85;fill:#6F6F6F;enable-background:new    ;}
	.st147{opacity:0.85;fill:#6E6E6E;enable-background:new    ;}
	.st148{opacity:0.85;fill:#6D6D6D;enable-background:new    ;}
	.st149{opacity:0.84;fill:#6C6C6C;enable-background:new    ;}
	.st150{opacity:0.84;fill:#6B6B6B;enable-background:new    ;}
	.st151{opacity:0.84;fill:#6A6A6A;enable-background:new    ;}
	.st152{opacity:0.84;fill:#696969;enable-background:new    ;}
	.st153{opacity:0.84;fill:#686868;enable-background:new    ;}
	.st154{opacity:0.84;fill:#676767;enable-background:new    ;}
	.st155{opacity:0.84;fill:#666666;enable-background:new    ;}
	.st156{opacity:0.84;fill:#656565;enable-background:new    ;}
	.st157{opacity:0.84;fill:#646464;enable-background:new    ;}
	.st158{opacity:0.83;fill:#636363;enable-background:new    ;}
	.st159{opacity:0.83;fill:#626262;enable-background:new    ;}
	.st160{opacity:0.83;fill:#616161;enable-background:new    ;}
	.st161{opacity:0.83;fill:#606060;enable-background:new    ;}
	.st162{opacity:0.83;fill:#5F5F5F;enable-background:new    ;}
	.st163{opacity:0.83;fill:#5E5E5E;enable-background:new    ;}
	.st164{opacity:0.83;fill:#5D5D5D;enable-background:new    ;}
	.st165{opacity:0.83;fill:#5C5C5C;enable-background:new    ;}
	.st166{opacity:0.83;fill:#5B5B5B;enable-background:new    ;}
	.st167{opacity:0.83;fill:#5A5A5A;enable-background:new    ;}
	.st168{opacity:0.82;fill:#595959;enable-background:new    ;}
	.st169{opacity:0.82;fill:#585858;enable-background:new    ;}
	.st170{opacity:0.82;fill:#575757;enable-background:new    ;}
	.st171{opacity:0.82;fill:#565656;enable-background:new    ;}
	.st172{opacity:0.82;fill:#555555;enable-background:new    ;}
	.st173{opacity:0.82;fill:#545454;enable-background:new    ;}
	.st174{opacity:0.82;fill:#535353;enable-background:new    ;}
	.st175{opacity:0.82;fill:#525252;enable-background:new    ;}
	.st176{opacity:0.82;fill:#515151;enable-background:new    ;}
	.st177{opacity:0.81;fill:#505050;enable-background:new    ;}
	.st178{opacity:0.81;fill:#4F4F4F;enable-background:new    ;}
	.st179{opacity:0.81;fill:#4E4E4E;enable-background:new    ;}
	.st180{opacity:0.81;fill:#4D4D4D;enable-background:new    ;}
	.st181{opacity:0.81;fill:#4C4C4C;enable-background:new    ;}
	.st182{opacity:0.81;fill:#4B4B4B;enable-background:new    ;}
	.st183{opacity:0.81;fill:#4A4A4A;enable-background:new    ;}
	.st184{opacity:0.81;fill:#494949;enable-background:new    ;}
	.st185{opacity:0.81;fill:#484848;enable-background:new    ;}
	.st186{opacity:0.81;fill:#474747;enable-background:new    ;}
	.st187{opacity:0.8;fill:#464646;enable-background:new    ;}
	.st188{opacity:0.8;fill:#454545;enable-background:new    ;}
	.st189{opacity:0.8;fill:#444444;enable-background:new    ;}
	.st190{opacity:0.8;fill:#434343;enable-background:new    ;}
	.st191{opacity:0.8;fill:#424242;enable-background:new    ;}
	.st192{fill:#263444;}
	.st193{fill:#E8EDEE;}
	.st194{opacity:0.12;enable-background:new    ;}
	.st195{fill:#A2A3A3;}
	.st196{opacity:0.2;enable-background:new    ;}
	.st197{fill:#FFFFFF;stroke:#B9BDBE;stroke-miterlimit:10;}
	.st198{opacity:0.35;enable-background:new    ;}
	.st199{opacity:0.1;enable-background:new    ;}
	.st200{fill:#B9BDBE;}
	.st201{opacity:0.2;fill:#FFFFFF;enable-background:new    ;}
	.st202{fill:#450800;}
	.st203{fill:#B20A00;}
	.st204{fill:#515C69;}
	.st205{fill:#ECECEC;stroke:#575756;stroke-width:10.67;stroke-miterlimit:10;}
	.st206{fill:#ECECEC;stroke:#575756;stroke-width:3.05;stroke-miterlimit:10;}
	.st207{fill:#FECC51;}
	.st208{fill:#D1D6D7;}
	.st209{fill:#E8EDEE;stroke:#3C4957;stroke-width:5.75;stroke-miterlimit:10;}
</style>
<path class="st0" d="M128.2,79.6l196.9-7.8c0,0,14.4,428.8,5.1,445.2c-9.3,16.5-111,58.6-154.2,17.5
	C176,534.5,116.3,139.8,128.2,79.6z"/>
<title>Fichier 7</title>
<g>
	<g>
		<g id="Calque_3">
			<g class="st1">
				<ellipse class="st2" cx="206.4" cy="761.4" rx="206.4" ry="21.4"/>
				<ellipse class="st3" cx="206.4" cy="761.4" rx="206" ry="21.3"/>
				<ellipse class="st4" cx="206.4" cy="761.4" rx="205.5" ry="21.3"/>
				<ellipse class="st5" cx="206.4" cy="761.4" rx="205" ry="21.2"/>
				<ellipse class="st6" cx="206.4" cy="761.4" rx="204.6" ry="21.2"/>
				<ellipse class="st7" cx="206.4" cy="761.4" rx="204.1" ry="21.2"/>
				<ellipse class="st8" cx="206.4" cy="761.4" rx="203.6" ry="21.1"/>
				<ellipse class="st9" cx="206.4" cy="761.4" rx="203.1" ry="21.1"/>
				<ellipse class="st10" cx="206.4" cy="761.4" rx="202.7" ry="21"/>
				<ellipse class="st11" cx="206.4" cy="761.4" rx="202.2" ry="21"/>
				<ellipse class="st12" cx="206.4" cy="761.4" rx="201.7" ry="20.9"/>
				<ellipse class="st13" cx="206.4" cy="761.4" rx="201.3" ry="20.9"/>
				<ellipse class="st14" cx="206.4" cy="761.4" rx="200.8" ry="20.8"/>
				<ellipse class="st15" cx="206.4" cy="761.4" rx="200.3" ry="20.8"/>
				<ellipse class="st16" cx="206.4" cy="761.4" rx="199.9" ry="20.7"/>
				<ellipse class="st17" cx="206.4" cy="761.4" rx="199.4" ry="20.7"/>
				<ellipse class="st18" cx="206.4" cy="761.4" rx="198.9" ry="20.6"/>
				<ellipse class="st19" cx="206.4" cy="761.4" rx="198.5" ry="20.6"/>
				<ellipse class="st20" cx="206.4" cy="761.4" rx="198" ry="20.5"/>
				<ellipse class="st21" cx="206.4" cy="761.4" rx="197.5" ry="20.5"/>
				<ellipse class="st22" cx="206.4" cy="761.4" rx="197" ry="20.4"/>
				<ellipse class="st23" cx="206.4" cy="761.4" rx="196.6" ry="20.4"/>
				<ellipse class="st24" cx="206.4" cy="761.4" rx="196.1" ry="20.3"/>
				<ellipse class="st25" cx="206.4" cy="761.4" rx="195.6" ry="20.3"/>
				<ellipse class="st26" cx="206.4" cy="761.4" rx="195.2" ry="20.2"/>
				<ellipse class="st27" cx="206.4" cy="761.4" rx="194.7" ry="20.2"/>
				<ellipse class="st28" cx="206.4" cy="761.4" rx="194.2" ry="20.1"/>
				<ellipse class="st29" cx="206.4" cy="761.4" rx="193.8" ry="20.1"/>
				<ellipse class="st30" cx="206.4" cy="761.4" rx="193.3" ry="20"/>
				<ellipse class="st31" cx="206.4" cy="761.4" rx="192.8" ry="20"/>
				<ellipse class="st32" cx="206.4" cy="761.4" rx="192.4" ry="19.9"/>
				<ellipse class="st33" cx="206.4" cy="761.4" rx="191.9" ry="19.9"/>
				<ellipse class="st34" cx="206.4" cy="761.4" rx="191.4" ry="19.8"/>
				<ellipse class="st35" cx="206.4" cy="761.4" rx="190.9" ry="19.8"/>
				<ellipse class="st36" cx="206.4" cy="761.4" rx="190.5" ry="19.7"/>
				<ellipse class="st37" cx="206.4" cy="761.4" rx="190" ry="19.7"/>
				<ellipse class="st38" cx="206.4" cy="761.4" rx="189.5" ry="19.7"/>
				<ellipse class="st39" cx="206.4" cy="761.4" rx="189.1" ry="19.6"/>
				<ellipse class="st40" cx="206.4" cy="761.4" rx="188.6" ry="19.5"/>
				<ellipse class="st41" cx="206.4" cy="761.4" rx="188.1" ry="19.5"/>
				<ellipse class="st42" cx="206.4" cy="761.4" rx="187.6" ry="19.5"/>
				<ellipse class="st43" cx="206.4" cy="761.4" rx="187.2" ry="19.4"/>
				<ellipse class="st44" cx="206.4" cy="761.4" rx="186.7" ry="19.3"/>
				<ellipse class="st45" cx="206.4" cy="761.4" rx="186.2" ry="19.3"/>
				<ellipse class="st46" cx="206.4" cy="761.4" rx="185.8" ry="19.3"/>
				<ellipse class="st47" cx="206.4" cy="761.4" rx="185.3" ry="19.2"/>
				<ellipse class="st48" cx="206.4" cy="761.4" rx="184.8" ry="19.2"/>
				<ellipse class="st49" cx="206.4" cy="761.4" rx="184.4" ry="19.1"/>
				<ellipse class="st50" cx="206.4" cy="761.4" rx="183.9" ry="19.1"/>
				<ellipse class="st51" cx="206.4" cy="761.4" rx="183.4" ry="19"/>
				<ellipse class="st52" cx="206.4" cy="761.4" rx="183" ry="19"/>
				<ellipse class="st53" cx="206.4" cy="761.4" rx="182.5" ry="18.9"/>
				<ellipse class="st54" cx="206.4" cy="761.4" rx="182" ry="18.9"/>
				<ellipse class="st55" cx="206.4" cy="761.4" rx="181.5" ry="18.8"/>
				<ellipse class="st56" cx="206.4" cy="761.4" rx="181.1" ry="18.8"/>
				<ellipse class="st57" cx="206.4" cy="761.4" rx="180.6" ry="18.7"/>
				<ellipse class="st58" cx="206.4" cy="761.4" rx="180.1" ry="18.7"/>
				<ellipse class="st59" cx="206.4" cy="761.4" rx="179.7" ry="18.6"/>
				<ellipse class="st60" cx="206.4" cy="761.4" rx="179.2" ry="18.6"/>
				<ellipse class="st61" cx="206.4" cy="761.4" rx="178.7" ry="18.5"/>
				<ellipse class="st62" cx="206.4" cy="761.4" rx="178.3" ry="18.5"/>
				<ellipse class="st63" cx="206.4" cy="761.4" rx="177.8" ry="18.4"/>
				<ellipse class="st64" cx="206.4" cy="761.4" rx="177.3" ry="18.4"/>
				<ellipse class="st65" cx="206.4" cy="761.4" rx="176.9" ry="18.3"/>
				<ellipse class="st66" cx="206.4" cy="761.4" rx="176.4" ry="18.3"/>
				<ellipse class="st67" cx="206.4" cy="761.4" rx="175.9" ry="18.2"/>
				<ellipse class="st68" cx="206.4" cy="761.4" rx="175.4" ry="18.2"/>
				<ellipse class="st69" cx="206.4" cy="761.4" rx="175" ry="18.1"/>
				<ellipse class="st70" cx="206.4" cy="761.4" rx="174.5" ry="18.1"/>
				<ellipse class="st71" cx="206.4" cy="761.4" rx="174" ry="18"/>
				<ellipse class="st72" cx="206.4" cy="761.4" rx="173.6" ry="18"/>
				<ellipse class="st73" cx="206.4" cy="761.4" rx="173.1" ry="17.9"/>
				<ellipse class="st74" cx="206.4" cy="761.4" rx="172.6" ry="17.9"/>
				<ellipse class="st75" cx="206.4" cy="761.4" rx="172.1" ry="17.8"/>
				<ellipse class="st76" cx="206.4" cy="761.4" rx="171.7" ry="17.8"/>
				<ellipse class="st77" cx="206.4" cy="761.4" rx="171.2" ry="17.8"/>
				<ellipse class="st78" cx="206.4" cy="761.4" rx="170.7" ry="17.7"/>
				<ellipse class="st79" cx="206.4" cy="761.4" rx="170.3" ry="17.7"/>
				<ellipse class="st80" cx="206.4" cy="761.4" rx="169.8" ry="17.6"/>
				<ellipse class="st81" cx="206.4" cy="761.4" rx="169.3" ry="17.5"/>
				<ellipse class="st82" cx="206.4" cy="761.4" rx="168.9" ry="17.5"/>
				<ellipse class="st83" cx="206.4" cy="761.4" rx="168.4" ry="17.5"/>
				<ellipse class="st84" cx="206.4" cy="761.4" rx="167.9" ry="17.4"/>
				<ellipse class="st85" cx="206.4" cy="761.4" rx="167.5" ry="17.4"/>
				<ellipse class="st86" cx="206.4" cy="761.4" rx="167" ry="17.3"/>
				<ellipse class="st87" cx="206.4" cy="761.4" rx="166.5" ry="17.3"/>
				<ellipse class="st88" cx="206.4" cy="761.4" rx="166" ry="17.2"/>
				<ellipse class="st89" cx="206.4" cy="761.4" rx="165.6" ry="17.2"/>
				<ellipse class="st90" cx="206.4" cy="761.4" rx="165.1" ry="17.1"/>
				<ellipse class="st91" cx="206.4" cy="761.4" rx="164.6" ry="17.1"/>
				<ellipse class="st92" cx="206.4" cy="761.4" rx="164.2" ry="17"/>
				<ellipse class="st93" cx="206.4" cy="761.4" rx="163.7" ry="17"/>
				<ellipse class="st94" cx="206.4" cy="761.4" rx="163.2" ry="16.9"/>
				<ellipse class="st95" cx="206.4" cy="761.4" rx="162.8" ry="16.9"/>
				<ellipse class="st96" cx="206.4" cy="761.4" rx="162.3" ry="16.8"/>
				<ellipse class="st97" cx="206.4" cy="761.4" rx="161.8" ry="16.8"/>
				<ellipse class="st98" cx="206.4" cy="761.4" rx="161.4" ry="16.7"/>
				<ellipse class="st99" cx="206.4" cy="761.4" rx="160.9" ry="16.7"/>
				<ellipse class="st100" cx="206.4" cy="761.4" rx="160.4" ry="16.6"/>
				<ellipse class="st101" cx="206.4" cy="761.4" rx="159.9" ry="16.6"/>
				<ellipse class="st102" cx="206.4" cy="761.4" rx="159.5" ry="16.5"/>
				<ellipse class="st103" cx="206.4" cy="761.4" rx="159" ry="16.5"/>
				<ellipse class="st104" cx="206.4" cy="761.4" rx="158.5" ry="16.4"/>
				<ellipse class="st105" cx="206.4" cy="761.4" rx="158.1" ry="16.4"/>
				<ellipse class="st106" cx="206.4" cy="761.4" rx="157.6" ry="16.3"/>
				<ellipse class="st107" cx="206.4" cy="761.4" rx="157.1" ry="16.3"/>
				<ellipse class="st108" cx="206.4" cy="761.4" rx="156.6" ry="16.2"/>
				<ellipse class="st109" cx="206.4" cy="761.4" rx="156.2" ry="16.2"/>
				<ellipse class="st110" cx="206.4" cy="761.4" rx="155.7" ry="16.1"/>
				<ellipse class="st111" cx="206.4" cy="761.4" rx="155.2" ry="16.1"/>
				<ellipse class="st112" cx="206.4" cy="761.4" rx="154.8" ry="16"/>
				<ellipse class="st113" cx="206.4" cy="761.4" rx="154.3" ry="16"/>
				<ellipse class="st114" cx="206.4" cy="761.4" rx="153.8" ry="16"/>
				<ellipse class="st115" cx="206.4" cy="761.4" rx="153.4" ry="15.9"/>
				<ellipse class="st116" cx="206.4" cy="761.4" rx="152.9" ry="15.8"/>
				<ellipse class="st117" cx="206.4" cy="761.4" rx="152.4" ry="15.8"/>
				<ellipse class="st118" cx="206.4" cy="761.4" rx="152" ry="15.8"/>
				<ellipse class="st119" cx="206.4" cy="761.4" rx="151.5" ry="15.7"/>
				<ellipse class="st120" cx="206.4" cy="761.4" rx="151" ry="15.7"/>
				<ellipse class="st121" cx="206.4" cy="761.4" rx="150.5" ry="15.6"/>
				<ellipse class="st122" cx="206.4" cy="761.4" rx="150.1" ry="15.6"/>
				<ellipse class="st123" cx="206.4" cy="761.4" rx="149.6" ry="15.5"/>
				<ellipse class="st124" cx="206.4" cy="761.4" rx="149.1" ry="15.5"/>
				<ellipse class="st125" cx="206.4" cy="761.4" rx="148.7" ry="15.4"/>
				<ellipse class="st126" cx="206.4" cy="761.4" rx="148.2" ry="15.4"/>
				<ellipse class="st127" cx="206.4" cy="761.4" rx="147.7" ry="15.3"/>
				<ellipse class="st128" cx="206.4" cy="761.4" rx="147.3" ry="15.3"/>
				<ellipse class="st129" cx="206.4" cy="761.4" rx="146.8" ry="15.2"/>
				<ellipse class="st130" cx="206.4" cy="761.4" rx="146.3" ry="15.2"/>
				<ellipse class="st131" cx="206.4" cy="761.4" rx="145.9" ry="15.1"/>
				<ellipse class="st132" cx="206.4" cy="761.4" rx="145.4" ry="15.1"/>
				<ellipse class="st133" cx="206.4" cy="761.4" rx="144.9" ry="15"/>
				<ellipse class="st134" cx="206.4" cy="761.4" rx="144.4" ry="15"/>
				<ellipse class="st135" cx="206.4" cy="761.4" rx="144" ry="14.9"/>
				<ellipse class="st136" cx="206.4" cy="761.4" rx="143.5" ry="14.9"/>
				<ellipse class="st137" cx="206.4" cy="761.4" rx="143" ry="14.8"/>
				<ellipse class="st138" cx="206.4" cy="761.4" rx="142.6" ry="14.8"/>
				<ellipse class="st139" cx="206.4" cy="761.4" rx="142.1" ry="14.7"/>
				<ellipse class="st140" cx="206.4" cy="761.4" rx="141.6" ry="14.7"/>
				<ellipse class="st141" cx="206.4" cy="761.4" rx="141.1" ry="14.6"/>
				<ellipse class="st142" cx="206.4" cy="761.4" rx="140.7" ry="14.6"/>
				<ellipse class="st143" cx="206.4" cy="761.4" rx="140.2" ry="14.5"/>
				<ellipse class="st144" cx="206.4" cy="761.4" rx="139.8" ry="14.5"/>
				<ellipse class="st145" cx="206.4" cy="761.4" rx="139.3" ry="14.4"/>
				<ellipse class="st146" cx="206.4" cy="761.4" rx="138.8" ry="14.4"/>
				<ellipse class="st147" cx="206.4" cy="761.4" rx="138.3" ry="14.3"/>
				<ellipse class="st148" cx="206.4" cy="761.4" rx="137.9" ry="14.3"/>
				<ellipse class="st149" cx="206.4" cy="761.4" rx="137.4" ry="14.2"/>
				<ellipse class="st150" cx="206.4" cy="761.4" rx="136.9" ry="14.2"/>
				<ellipse class="st151" cx="206.4" cy="761.4" rx="136.5" ry="14.2"/>
				<ellipse class="st152" cx="206.4" cy="761.4" rx="136" ry="14.1"/>
				<ellipse class="st153" cx="206.4" cy="761.4" rx="135.5" ry="14"/>
				<ellipse class="st154" cx="206.4" cy="761.4" rx="135" ry="14"/>
				<ellipse class="st155" cx="206.4" cy="761.4" rx="134.6" ry="14"/>
				<ellipse class="st156" cx="206.4" cy="761.4" rx="134.1" ry="13.9"/>
				<ellipse class="st157" cx="206.4" cy="761.4" rx="133.6" ry="13.8"/>
				<ellipse class="st158" cx="206.4" cy="761.4" rx="133.2" ry="13.8"/>
				<ellipse class="st159" cx="206.4" cy="761.4" rx="132.7" ry="13.8"/>
				<ellipse class="st160" cx="206.4" cy="761.4" rx="132.2" ry="13.7"/>
				<ellipse class="st161" cx="206.4" cy="761.4" rx="131.8" ry="13.7"/>
				<ellipse class="st162" cx="206.4" cy="761.4" rx="131.3" ry="13.6"/>
				<ellipse class="st163" cx="206.4" cy="761.4" rx="130.8" ry="13.6"/>
				<ellipse class="st164" cx="206.4" cy="761.4" rx="130.4" ry="13.5"/>
				<ellipse class="st165" cx="206.4" cy="761.4" rx="129.9" ry="13.5"/>
				<ellipse class="st166" cx="206.4" cy="761.4" rx="129.4" ry="13.4"/>
				<ellipse class="st167" cx="206.4" cy="761.4" rx="128.9" ry="13.4"/>
				<ellipse class="st168" cx="206.4" cy="761.4" rx="128.5" ry="13.3"/>
				<ellipse class="st169" cx="206.4" cy="761.4" rx="128" ry="13.3"/>
				<ellipse class="st170" cx="206.4" cy="761.4" rx="127.5" ry="13.2"/>
				<ellipse class="st171" cx="206.4" cy="761.4" rx="127.1" ry="13.2"/>
				<ellipse class="st172" cx="206.4" cy="761.4" rx="126.6" ry="13.1"/>
				<ellipse class="st173" cx="206.4" cy="761.4" rx="126.1" ry="13.1"/>
				<ellipse class="st174" cx="206.4" cy="761.4" rx="125.7" ry="13"/>
				<ellipse class="st175" cx="206.4" cy="761.4" rx="125.2" ry="13"/>
				<ellipse class="st176" cx="206.4" cy="761.4" rx="124.7" ry="12.9"/>
				<ellipse class="st177" cx="206.4" cy="761.4" rx="124.2" ry="12.9"/>
				<ellipse class="st178" cx="206.4" cy="761.4" rx="123.8" ry="12.8"/>
				<ellipse class="st179" cx="206.4" cy="761.4" rx="123.3" ry="12.8"/>
				<ellipse class="st180" cx="206.4" cy="761.4" rx="122.8" ry="12.7"/>
				<ellipse class="st181" cx="206.4" cy="761.4" rx="122.4" ry="12.7"/>
				<ellipse class="st182" cx="206.4" cy="761.4" rx="121.9" ry="12.6"/>
				<ellipse class="st183" cx="206.4" cy="761.4" rx="121.4" ry="12.6"/>
				<ellipse class="st184" cx="206.4" cy="761.4" rx="121" ry="12.5"/>
				<ellipse class="st185" cx="206.4" cy="761.4" rx="120.5" ry="12.5"/>
				<ellipse class="st186" cx="206.4" cy="761.4" rx="120" ry="12.4"/>
				<ellipse class="st187" cx="206.4" cy="761.4" rx="119.5" ry="12.4"/>
				<ellipse class="st188" cx="206.4" cy="761.4" rx="119.1" ry="12.3"/>
				<ellipse class="st189" cx="206.4" cy="761.4" rx="118.6" ry="12.3"/>
				<ellipse class="st190" cx="206.4" cy="761.4" rx="118.1" ry="12.2"/>
				<ellipse class="st191" cx="206.4" cy="761.4" rx="117.7" ry="12.2"/>
			</g>
			<path class="st192" d="M270.4,541.1l-35.9,185.3l25-1.3l15.5-94.2C283,592,317,525.1,317,525.1L270.4,541.1z"/>
			<path class="st192" d="M211.1,543.4l-26.9,190.5l-23.6-8.5l12.4-94.7c3.6-39.5,0-97.6,0-97.6L211.1,543.4z"/>
			<path class="st192" d="M338.7,469.2c0,0,0.6,44.2-14.3,56.7s-99.9,45.4-149.2,10.8c-10.5-9-15-31.6-13.8-45.3L338.7,469.2z"/>
			<path class="st193" d="M330.9,268.8c3.1,34.2,1.7,263.8,0.8,265.4L161.5,548c0.2-6.7-26.3-256.5-23.3-267.7l92.2,25.7
				L330.9,268.8z"/>
			<polygon class="st194" points="291.4,157 238.1,159 237.9,144.5 294.5,146.6 			"/>
			<polygon class="st195" points="289.5,153.1 236.3,155 236.1,140.6 292.7,142.6 			"/>
			<polygon class="st194" points="165.8,174 213.6,158.9 209.4,146 159.8,165.8 			"/>
			<polygon class="st195" points="168.1,170 215.9,154.9 211.8,142 162.2,161.8 			"/>
			<path class="st196" d="M251,181.8c0.8,7.5,5.3,13.2,10,12.7s7.8-7,7-14.6s-5.3-13.2-10-12.7S250.2,174.2,251,181.8z"/>
			<path class="st196" d="M194.8,186.8c0.8,7.5,5.1,13.2,9.5,12.7s7.4-7,6.5-14.5s-5.1-13.2-9.5-12.7S194,179.3,194.8,186.8z"/>
			
				<ellipse transform="matrix(0.9941 -0.1089 0.1089 0.9941 -17.9071 29.2882)" class="st192" cx="259.3" cy="178.6" rx="5.4" ry="11.5"/>
			<path class="st192" d="M197.1,184.5c0.7,6.3,3.6,11.1,6.6,10.8s4.8-5.7,4.1-12s-3.7-11.1-6.6-10.8S196.4,178.2,197.1,184.5z"/>
			<path class="st197" d="M257.6,721.4l37.7,11.7c0,0,29.8-4.7,36,12c4.1,11,5.2,15,5.2,15c-29.5,0-105.9-0.5-105.9-0.5
				c-0.5-9.7,2.8-35.6,2.8-35.6L257.6,721.4z"/>
			<path class="st197" d="M161.3,721.4l-37.7,11.7c0,0-29.8-4.7-36,12c-4.1,11-5.2,15-5.2,15c29.5,0,105.9-0.5,105.9-0.5
				c0.5-9.7-2.8-35.6-2.8-35.6L161.3,721.4z"/>
			<polygon class="st0" points="192.4,478.6 181.2,510.2 174.8,522.5 110.3,499.2 94.9,485.4 113.6,450.7 113.5,450.6 113.6,450.6 
				115.7,446.8 122.9,447.8 155.8,435.5 157.3,453.5 			"/>
			<path class="st198" d="M113.6,450.7L113.6,450.7L113.6,450.7l2.1-3.8l7.2,1l13.3-4c-2.3,6.2-15.5,41.7-22.8,56.6l-3.1-1.1
				l-8.3-7.5c-2.2-2.7-4.2-5.3-6.2-7.9L113.6,450.7z"/>
			<path class="st193" d="M140.1,299.1c0.1,4,0.6,9.8,1.2,17c-63.8,46.9-44.2,85.3-9.6,124.3c0,0-17.3,47-24.7,60.5
				C-12.8,411.9,112.3,317.9,140.1,299.1z"/>
			<path class="st199" d="M129,137.7c0.1-16.9,1.1-30.3,3.4-38.8l31.4-1.3l5.3-0.2L274,93.1l10-0.4l37.7-1.5
				c1.7,7.8,3.2,19.9,4.4,35.1c1.2,14.7,2.1,32.3,2.9,51.7c-5.4-6.4-8.1-24.3-8.8-27.9c-2.6-13.7-5-27.7-14.3-38.7
				c-19.1-22.4-32.6-2.2-49.8,10.4s-37.8,19.6-59.1,18.9c-10.6-0.4-21-2.5-30.9-6.2c-5.7-2.1-15.6-9.8-22.1-7.8
				c-8.8,2.7-8.6,18.9-9.2,26c-0.4,4.8,1.5,23-3.2,26.1c-0.4,0.3-0.8,0.5-1.3,0.6C129.3,164,128.9,149.9,129,137.7z"/>
			<path class="st200" d="M113.8,122c-0.1,10,1.3,20,4,29.6c1.8,6.4,5.1,20.8,11.6,23.8c3.5-6.3,0.9-14.6,1.4-21.4
				c0.5-7,1.2-15.1,4.5-21.5c6.9-13.3,20.3-23,14.6-39.1c-4.2-11.8-17.1-9.5-25.1-2.2C116.4,98.6,114,111.2,113.8,122z"/>
			<path class="st195" d="M116.8,103.6c1.6-4.8,4.3-9.1,8-12.5c2.2-2,4.7-3.6,7.4-4.7c8.1,4.9,14.3,14.4,16.9,23.9
				c-3.3,7.5-9.8,14.1-13.9,22.1c-3.3,6.4-4,14.6-4.5,21.5c-0.5,6.7,2,14.8-1.2,21c-7.1-10.5-5.7-32-3.2-41.4
				c1.7-6.7,4.7-11.9,1.7-18.8C125.7,109.9,121.7,106,116.8,103.6z"/>
			<path class="st200" d="M293.9,51.7c5.2,8.3,6.8,19.6,3.1,28.8c-4,9.8-14.2,12-23.1,16.1c-9.6,4.4-17.9,9-26.2,15.7
				c-8.6,6.9-17.2,14.3-27.9,17.5c-16.1,4.8-33.9,4.5-50.3,1.3c-41.4-8.2-69.1-70.1-43-106.8c-3,20.1,9.7,23.8,23.9,32.9
				C136,40.9,147.1,9.3,167.4,0c-25.4,56.5,40.1,45.5,72.1,41.4C257.3,39.1,282.6,33.6,293.9,51.7z"/>
			<path class="st200" d="M316.4,63.2c-5.5-0.5-11.1,0.6-16,3.2c-5.8,2.9-12,5.7-17.1,9.9c-3.3,2.8-10.8,11.7-9.5,16.6
				c1,3.7,4.4,1.9,7.7,1.8c6-0.3,12.8,0,18.1,2.5c18.1,8.8,23,33,26.1,50.8c0.7,4,0.5,9.4,3.4,12.5c7.8-5.5,7.6-23.7,9.2-32.4
				c3.4-18.1,4.1-43.3-8.7-58.2C326.2,66,321.5,63.6,316.4,63.2z"/>
			<path class="st195" d="M126.5,24.3c-0.4,2.3-0.5,4.7-0.4,7c-1.8,7.2-3.7,14.1-2.6,22.2c1.3,10.2,4.5,20.1,9.2,29.2
				c6.3,11.8,15.1,24.4,28,29.8c14.8,6.1,27.5,9.1,43.4,5.4c14.9-3.5,27.1-11.2,41.2-17.5C259,94.2,272.2,83,288,84.1
				c2.1,0.2,4.2,0.5,6.2,1.1c-4.9,5.9-13,8-20.2,11.3c-9.6,4.4-17.9,9-26.2,15.7c-8.6,6.9-17.2,14.3-27.9,17.5
				c-16.1,4.8-33.9,4.5-50.3,1.3C128.1,122.9,92.6,56.2,126.5,24.3z"/>
			<path class="st195" d="M288,84.1c12.5,0.9,28.3,10.3,34,21.9c8,16.2,5,34,5.2,51.3c-1-2.9-1.1-6.5-1.6-9.4
				c-3-17.8-7.9-41.9-26.1-50.8c-5.2-2.6-12.1-2.8-18.1-2.5c-3.2,0.1-6.7,1.9-7.7-1.8c-0.5-2,0.5-4.7,2-7.3
				C279.7,84.4,283.8,83.9,288,84.1z"/>
			<path class="st201" d="M307.8,78.4c-7.6-0.5-10.7-6.8-2.9-10.2c8.6-3.7,18,1.4,22.5,8.8s2.8,12.7,3.8,20.1
				C329.5,84.5,319,79.2,307.8,78.4z"/>
			<path class="st201" d="M188.4,85.8c16.2,7.4,28,2.7,43.4-3.9c6.6-2.8,13.2-5,19.9-8c12.9-5.7,25.5-12,39.6-5.6
				c0.4-7.9-4.2-15.5-10.4-20.2c-5.3-3.8-11.6-5.7-18.1-5.5c-10.3,0.5-21.8,8.9-31.5,3.9c5.4,4.7,10.9,7.1,18,6.4
				c5.6-0.5,14.7-3.7,18.2,2.6c-12.7-6.5-33.6,11.5-44.5,16c-16.5,6.9-35.1,13-50.4-0.3C178.1,77.6,180.8,82.3,188.4,85.8z"/>
			<path class="st202" d="M280,251.9c0,0-29.1-11.7-91.2,0.3c-1.9,38.8-0.3,38.8,50.6,33.6C282.8,281.4,282.2,304.1,280,251.9z"/>
			<path class="st203" d="M279.3,274.2c-10.4,6.6-24.1,10.5-40.9,11.8c-17.5,1.3-32.4-1.6-44.4-7.2c2.5-2.1,22.1-13.2,40-13.3
				C251.1,265.4,286.1,276.8,279.3,274.2z"/>
			<path class="st2" d="M274.7,248.8c-7.8,6-25.7,10.2-39.4,10.9c-16.7,0.9-31.8-0.3-42.2-5.4C231.3,245.9,248.5,247.7,274.7,248.8z
				"/>
			<polygon class="st0" points="281.2,481.8 292.4,513.4 298.8,525.6 363.3,502.3 378.7,488.5 360,453.8 360.1,453.8 360,453.7 
				357.9,449.9 350.7,450.9 317.8,438.7 316.3,456.6 			"/>
			<path class="st198" d="M360,453.8h0.1H360l-2.1-3.8l-7.2,1l-13.3-4c2.3,6.2,15.5,41.7,22.8,56.6l3.1-1.1l8.3-7.5
				c2.2-2.7,4.2-5.3,6.2-7.9L360,453.8z"/>
			<path class="st193" d="M332,299.7c-0.1,4,1,12.4,0.4,19.6c63.8,46.9,44.2,85.3,9.6,124.3c0,0,17.3,47,24.7,60.5
				C486.4,415,359.7,318.5,332,299.7z"/>
			<path class="st204" d="M173.8,429.2l-1-3.9c0.7-2,2.9-3.1,5-2.5c1.9,0.4,2.2,2.4,2.3,4C180.3,429.6,177.4,430.6,173.8,429.2z"/>
			<path class="st204" d="M192.4,419.1c1.2,1,2,2.4,2.5,3.9c-0.4,2.9-2.6,3.3-4.8,3.2s-2.5-2-2.7-3.7
				C187.1,420.2,188.8,419.1,192.4,419.1z"/>
			<path class="st192" d="M138.8,353.5c2.7-3.9,5.9-7.2,10.3-9.1c1.5-0.6,1-1.6,0.7-2.6c-3.4-11.1-6.5-22.3-8.8-33.7
				c-1.3-6.3-2.2-12.6-2.6-19c0-0.6-0.2-5.3-0.1-5.9c-0.2-2.9-0.8-4,3.5-2.3l1.2,5.9c0.8,11,3.4,21.6,6.1,32.2
				c1.7,6.7,3.9,13.3,5.7,19.9c0.6,2.1,1.4,3,3.9,2.5c8-1.8,15.4,0.1,22.4,4.4c4.3,3.1,8.1,6.8,11.4,11c4.4,5.7,7.6,12.1,10.9,18.5
				c2.6,6.9,5.2,13.7,5.5,21.1c0.5,11.5-3.3,20.7-14,26.3c-0.4-1.5-1.3-2.8-2.5-3.9c5.4-1.3,8.3-5.2,10-10
				c2.6-7.4,1.3-14.8-0.6-22.1c-1-3.6-2.3-7.2-3.9-10.6c-0.2-0.3-0.1-0.3-0.3-0.6l-0.2-0.3c-0.9-2.3-1.9-4.4-3.2-6.5
				c-0.2-0.5-0.5-0.9-0.8-1.4c-3-6-6.7-10.8-11.9-14.7c-1.8-1.6-3.8-2.9-6-3.7c-14.9-6.7-30.6,0.2-34.8,15.3
				c-1.2,4.3-0.6,23.8,5.3,40.8c2.7,6.7,6.1,12.6,12.3,16.6c4.2,2.9,9.3,4.1,14.3,3.6l1,3.9c-9.4,2.1-17.1-1.1-23.5-7.9
				c-0.9-0.9-1.7-1.9-2.6-2.8c-6.7-10-10-21.1-12-32.8c-1.6-9-1.9-17.8,0.7-26.6C137.1,357.3,137.9,355.4,138.8,353.5z"/>
			<circle class="st192" cx="235.3" cy="354.1" r="7.3"/>
			<circle class="st192" cx="237.7" cy="414.6" r="7.3"/>
			<circle class="st192" cx="235.3" cy="475.2" r="7.3"/>
			<path class="st204" d="M114,118.2l226.4-13.8c0-5.6-0.7-11.1-2-16.5c-1.6-5.9-0.3-2.1-2.4-7.5L122.4,93.6c0,0-4.5,2.4-6.4,11
				C113.2,116.6,114,118.2,114,118.2z"/>
			<circle class="st205" cx="227.3" cy="91.6" r="30.8"/>
			<circle class="st206" cx="227.3" cy="91.6" r="7.7"/>
			<path class="st200" d="M323.4,193.2c0,0.4-5.8,9.3-6.2,11.2c-1.5,5.8-0.9,11.8-1.2,17.7c-0.5,9.9-0.4,23.6-8.1,31
				c-11.6,11-20.2,0.7-31-5.1c-13.6-7.3-28.8-13-44.4-12.2c-10.3,0.5-20.4,3.2-29.5,7.9c-5.2,2.7-10.1,5.9-15,9
				c-4.4,2.8-10,9.7-14.1,11.5c-13.7,5.9-22.9-17.4-24.8-28.4c-1.8-10-0.1-19.9-5.5-29.5c-0.9-1.5-7.4-7.7-7.5-8.8
				c-1-17.3-6-26.8-6-26.8s-5.2,56.6,7.2,87.3s16,89.4,96.7,85.1c93.6-4.9,90.2-63.5,94.3-95.8s2.5-87.2,2.5-87.2
				C319.9,162.7,323.4,193.2,323.4,193.2z M234.6,275.4c-10.7,0.6-24.7,5.3-34.8-10.4c-9.1-14.1,29.1-12.3,33.7-12.1
				c4.5-0.7,42-5.7,34.8,8.6C259.8,278.1,245.3,274.9,234.6,275.4z"/>
			<polygon class="st207" points="307,364.1 290,364.1 290,348.1 278,348.1 278,364.1 260,364.1 260,375.1 278,375.1 278,393.1 
				290,393.1 290,375.1 307,375.1 			"/>
			<polygon class="st208" points="290,380.9 290,375.1 277,375.1 			"/>
			<path class="st192" d="M327.9,274.6c-0.3-1.8-1-2.9-0.6-4.5c1.7-1.1,0.2-0.1,1.9-1.3c6.9,14.2,7.1,33.6,6.2,48.5
				c-0.4,6.7-4.2,42.7-4.9,49.5c-0.3,1.3-0.4,2.6-0.2,3.9c-1,1.9-1,4.1-1.1,6.2c-0.7,2.1-1.1,4.3-1.3,6.6c-0.3,1.9-1.1,2.2-2.8,1.7
				c-1.4-0.4-3-0.2-2.4-2.6c0.4-2.1,0.7-4.2,0.9-6.4l0.9-6.7c1.4-6,4.5-41.5,5-47.6c1.1-14.2,1.4-28.5-0.7-42.7
				C328.6,277.7,328.2,276.2,327.9,274.6z"/>
			<circle class="st209" cx="326" cy="379.3" r="12.8"/>
		</g>
	</g>
</g>
</svg>
