<?xml version="1.0" encoding="utf-8"?>
<!-- Generator: Adobe Illustrator 22.0.1, SVG Export Plug-In . SVG Version: 6.00 Build 0)  -->
<svg version="1.1" id="Calque_1" xmlns="http://www.w3.org/2000/svg" xmlns:xlink="http://www.w3.org/1999/xlink" x="0px" y="0px"
	 viewBox="0 0 365 58" style="enable-background:new 0 0 365 58;" xml:space="preserve">
<style type="text/css">
	.st0{fill:#FFFFFF;}
</style>
<title>Ripples</title>
<desc>Created with Sketch.</desc>
<g id="Page-1">
	<path id="Ripples" class="st0" d="M0,29c0-0.6,0.4-1,1-1c0.6,0,1,0.4,1,1c0,0.6-0.4,1-1,1C0.4,30,0,29.6,0,29z M6,29
		c0-0.6,0.4-1,1-1c0.6,0,1,0.4,1,1c0,0.6-0.4,1-1,1C6.4,30,6,29.6,6,29z M12,29c0-0.6,0.4-1,1-1c0.6,0,1,0.4,1,1c0,0.6-0.4,1-1,1
		C12.4,30,12,29.6,12,29z M18,27.5c0-0.6,0.4-1,1-1c0.6,0,1,0.4,1,1v3c0,0.6-0.4,1-1,1c-0.6,0-1-0.4-1-1V27.5z M24,29
		c0-0.6,0.4-1,1-1c0.6,0,1,0.4,1,1c0,0.6-0.4,1-1,1C24.4,30,24,29.6,24,29z M29.5,27.5c0-0.6,0.4-1,1-1c0.6,0,1,0.4,1,1v3
		c0,0.6-0.4,1-1,1c-0.6,0-1-0.4-1-1V27.5z M35.5,27c0-0.5,0.4-1,1-1c0.6,0,1,0.5,1,1v4c0,0.5-0.4,1-1,1c-0.6,0-1-0.5-1-1V27z
		 M41.5,21.5c0-0.6,0.4-1,1-1c0.6,0,1,0.5,1,1v15c0,0.6-0.4,1-1,1c-0.6,0-1-0.5-1-1V21.5z M47.5,26c0-0.6,0.4-1,1-1c0.6,0,1,0.5,1,1
		v6c0,0.6-0.4,1-1,1c-0.6,0-1-0.5-1-1V26z M53.5,20c0-0.5,0.4-1,1-1c0.6,0,1,0.5,1,1v18c0,0.5-0.4,1-1,1c-0.6,0-1-0.5-1-1V20z
		 M59.5,18.5c0-0.6,0.4-1,1-1c0.6,0,1,0.4,1,1v21c0,0.6-0.4,1-1,1c-0.6,0-1-0.4-1-1V18.5z M65.5,26c0-0.6,0.4-1,1-1c0.6,0,1,0.5,1,1
		v6c0,0.6-0.4,1-1,1c-0.6,0-1-0.5-1-1V26z M71.5,14.6c0-0.6,0.4-1,1-1c0.6,0,1,0.4,1,1v28.7c0,0.6-0.4,1-1,1c-0.6,0-1-0.4-1-1V14.6z
		 M77.5,24c0-0.6,0.4-1,1-1c0.6,0,1,0.5,1,1v10c0,0.6-0.4,1-1,1c-0.6,0-1-0.5-1-1V24z M83.5,20.5c0-0.5,0.4-1,1-1c0.6,0,1,0.5,1,1
		v17c0,0.5-0.4,1-1,1c-0.6,0-1-0.5-1-1V20.5z M89.5,28c0-0.6,0.4-1,1-1c0.6,0,1,0.4,1,1v2c0,0.6-0.4,1-1,1c-0.6,0-1-0.4-1-1V28z
		 M95,16c0-0.6,0.4-1,1-1c0.6,0,1,0.4,1,1v26c0,0.6-0.4,1-1,1c-0.6,0-1-0.4-1-1V16z M101,10c0-0.6,0.4-1,1-1c0.6,0,1,0.4,1,1v38
		c0,0.6-0.4,1-1,1c-0.6,0-1-0.4-1-1V10z M107,13c0-0.6,0.4-1,1-1c0.6,0,1,0.5,1,1v32c0,0.6-0.4,1-1,1c-0.6,0-1-0.5-1-1V13z M113,20
		c0-0.5,0.4-1,1-1c0.6,0,1,0.5,1,1v18c0,0.5-0.4,1-1,1c-0.6,0-1-0.5-1-1V20z M119,13c0-0.6,0.4-1,1-1c0.6,0,1,0.5,1,1v32
		c0,0.6-0.4,1-1,1c-0.6,0-1-0.5-1-1V13z M125,15c0-0.6,0.4-1,1-1c0.6,0,1,0.4,1,1v28c0,0.6-0.4,1-1,1c-0.6,0-1-0.4-1-1V15z M131,24
		c0-0.6,0.4-1,1-1c0.6,0,1,0.5,1,1v10c0,0.6-0.4,1-1,1c-0.6,0-1-0.5-1-1V24z M137,22c0-0.6,0.4-1,1-1c0.6,0,1,0.4,1,1v14
		c0,0.6-0.4,1-1,1c-0.6,0-1-0.4-1-1V22z M143,25c0-0.5,0.4-1,1-1c0.6,0,1,0.5,1,1v8c0,0.5-0.4,1-1,1c-0.6,0-1-0.5-1-1V25z M149,27
		c0-0.5,0.4-1,1-1c0.6,0,1,0.5,1,1v4c0,0.5-0.4,1-1,1c-0.6,0-1-0.5-1-1V27z M154.5,10c0-0.6,0.4-1,1-1c0.6,0,1,0.4,1,1v38
		c0,0.6-0.4,1-1,1c-0.6,0-1-0.4-1-1V10z M160.5,3c0-0.6,0.4-1,1-1c0.6,0,1,0.5,1,1v52c0,0.6-0.4,1-1,1c-0.6,0-1-0.5-1-1V3z
		 M166.5,12.5c0-0.6,0.4-1,1-1c0.6,0,1,0.4,1,1v33c0,0.6-0.4,1-1,1c-0.6,0-1-0.4-1-1V12.5z M172.5,15.5c0-0.6,0.4-1,1-1
		c0.6,0,1,0.5,1,1v27c0,0.6-0.4,1-1,1c-0.6,0-1-0.5-1-1V15.5z M178.5,4c0-0.5,0.4-1,1-1c0.6,0,1,0.4,1,1v50c0,0.5-0.4,1-1,1
		c-0.6,0-1-0.4-1-1V4z M184.5,3c0-0.6,0.4-1,1-1c0.6,0,1,0.5,1,1v52c0,0.6-0.4,1-1,1c-0.6,0-1-0.5-1-1V3z M190.5,21.5
		c0-0.6,0.4-1,1-1c0.6,0,1,0.5,1,1v15c0,0.6-0.4,1-1,1c-0.6,0-1-0.5-1-1V21.5z M196.5,6.7c0-0.5,0.4-1,1-1c0.6,0,1,0.4,1,1v44.5
		c0,0.5-0.4,1-1,1c-0.6,0-1-0.4-1-1V6.7z M202.5,19.5c0-0.6,0.4-1,1-1c0.6,0,1,0.4,1,1v19c0,0.6-0.4,1-1,1c-0.6,0-1-0.4-1-1V19.5z
		 M208.5,21c0-0.5,0.4-1,1-1c0.6,0,1,0.4,1,1v16c0,0.5-0.4,1-1,1c-0.6,0-1-0.4-1-1V21z M214,12c0-0.6,0.4-1,1-1c0.6,0,1,0.5,1,1v34
		c0,0.6-0.4,1-1,1c-0.6,0-1-0.5-1-1V12z M220,13c0-0.6,0.4-1,1-1c0.6,0,1,0.5,1,1v32c0,0.6-0.4,1-1,1c-0.6,0-1-0.5-1-1V13z M226,20
		c0-0.5,0.4-1,1-1c0.6,0,1,0.5,1,1v18c0,0.5-0.4,1-1,1c-0.6,0-1-0.5-1-1V20z M232,14c0-0.5,0.4-1,1-1c0.6,0,1,0.5,1,1v30
		c0,0.5-0.4,1-1,1c-0.6,0-1-0.5-1-1V14z M238,1c0-0.6,0.4-1,1-1c0.6,0,1,0.5,1,1v56c0,0.6-0.4,1-1,1c-0.6,0-1-0.5-1-1V1z M244,27
		c0-0.5,0.4-1,1-1c0.6,0,1,0.5,1,1v4c0,0.5-0.4,1-1,1c-0.6,0-1-0.5-1-1V27z M250,22c0-0.6,0.4-1,1-1c0.6,0,1,0.4,1,1v14
		c0,0.6-0.4,1-1,1c-0.6,0-1-0.4-1-1V22z M256,19c0-0.6,0.4-1,1-1c0.6,0,1,0.4,1,1v20c0,0.6-0.4,1-1,1c-0.6,0-1-0.4-1-1V19z M262,24
		c0-0.6,0.4-1,1-1c0.6,0,1,0.5,1,1v10c0,0.6-0.4,1-1,1c-0.6,0-1-0.5-1-1V24z M268,5c0-0.6,0.4-1,1-1c0.6,0,1,0.4,1,1v48
		c0,0.6-0.4,1-1,1c-0.6,0-1-0.4-1-1V5z M274,17.5c0-0.5,0.4-1,1-1c0.6,0,1,0.5,1,1v23c0,0.5-0.4,1-1,1c-0.6,0-1-0.5-1-1V17.5z
		 M280,25c0-0.5,0.4-1,1-1c0.6,0,1,0.5,1,1v8c0,0.5-0.4,1-1,1c-0.6,0-1-0.5-1-1V25z M286,26c0-0.6,0.4-1,1-1c0.6,0,1,0.5,1,1v6
		c0,0.6-0.4,1-1,1c-0.6,0-1-0.5-1-1V26z M291.5,17c0-0.6,0.4-1,1-1c0.6,0,1,0.5,1,1v24c0,0.6-0.4,1-1,1c-0.6,0-1-0.5-1-1V17z
		 M297.5,19c0-0.6,0.4-1,1-1c0.6,0,1,0.4,1,1v20c0,0.6-0.4,1-1,1c-0.6,0-1-0.4-1-1V19z M303.5,20c0-0.5,0.4-1,1-1c0.6,0,1,0.5,1,1
		v18c0,0.5-0.4,1-1,1c-0.6,0-1-0.5-1-1V20z M309.5,22.5c0-0.6,0.4-1,1-1c0.6,0,1,0.4,1,1v13c0,0.6-0.4,1-1,1c-0.6,0-1-0.4-1-1V22.5z
		 M315.5,24c0-0.6,0.4-1,1-1c0.6,0,1,0.5,1,1v10c0,0.6-0.4,1-1,1c-0.6,0-1-0.5-1-1V24z M321.5,28c0-0.6,0.4-1,1-1c0.6,0,1,0.4,1,1v2
		c0,0.6-0.4,1-1,1c-0.6,0-1-0.4-1-1V28z M327.5,26c0-0.6,0.4-1,1-1c0.6,0,1,0.5,1,1v6c0,0.6-0.4,1-1,1c-0.6,0-1-0.5-1-1V26z
		 M333.5,26c0-0.6,0.4-1,1-1c0.6,0,1,0.5,1,1v6c0,0.6-0.4,1-1,1c-0.6,0-1-0.5-1-1V26z M339.5,27.5c0-0.6,0.4-1,1-1c0.6,0,1,0.4,1,1
		v3c0,0.6-0.4,1-1,1c-0.6,0-1-0.4-1-1V27.5z M345,28c0-0.6,0.4-1,1-1c0.6,0,1,0.4,1,1v2c0,0.6-0.4,1-1,1c-0.6,0-1-0.4-1-1V28z
		 M351,29c0-0.6,0.4-1,1-1c0.6,0,1,0.4,1,1c0,0.6-0.4,1-1,1C351.4,30,351,29.6,351,29z M357,29c0-0.6,0.4-1,1-1c0.6,0,1,0.4,1,1
		c0,0.6-0.4,1-1,1C357.4,30,357,29.6,357,29z M363,29c0-0.6,0.4-1,1-1c0.6,0,1,0.4,1,1c0,0.6-0.4,1-1,1C363.4,30,363,29.6,363,29z"
		/>
</g>
</svg>
