<?xml version="1.0" encoding="UTF-8"?>
<svg width="48px" height="48px" viewBox="0 0 48 48" version="1.1" xmlns="http://www.w3.org/2000/svg" xmlns:xlink="http://www.w3.org/1999/xlink">
    <!-- Generator: Sketch 59 (86127) - https://sketch.com -->
    <title>Picto/Card</title>
    <desc>Created with Sketch.</desc>
    <g id="Paiement-SF" stroke="none" stroke-width="1" fill="none" fill-rule="evenodd">
        <g id="Paiement-carte-pré-enregistrée-SF-2" transform="translate(-450.000000, -492.000000)">
            <g id="Picto/Card" transform="translate(450.000000, 492.000000)">
                <g id="Group" transform="translate(13.000000, 17.000000)" stroke="#2C2C4A" stroke-linecap="round" stroke-linejoin="round">
                    <g id="credit-card-1">
                        <rect id="Rectangle-path" x="0.462" y="0" width="21.0833333" height="14" rx="2"></rect>
                        <line x1="0.462" y1="3.5" x2="21.5453333" y2="3.5" id="Shape"></line>
                        <line x1="18.7953333" y1="7" x2="16.0453333" y2="7" id="Shape"></line>
                        <line x1="10.5453333" y1="7" x2="3.212" y2="7" id="Shape"></line>
                        <line x1="5.962" y1="9.625" x2="3.212" y2="9.625" id="Shape"></line>
                    </g>
                </g>
                <g id="Round" fill="#2A3848">
                    <g id="Group-2">
                        <path d="M30.0707966,1.87007959 C30.0264254,1.87074709 29.982193,1.86476529 29.9394607,1.85231829 C29.1433731,1.62571373 28.3362696,1.44328919 27.5215658,1.30581672 C27.3519434,1.27750603 27.2097247,1.1572089 27.1484821,0.990240115 C27.0872395,0.823271327 27.1162772,0.634997408 27.2246569,0.49633932 C27.3330367,0.357681233 27.5042931,0.28970444 27.6739155,0.318015143 C28.5222128,0.459327164 29.3626472,0.647683202 30.1916257,0.88227801 C30.4246337,0.948622535 30.5741107,1.18455996 30.5408318,1.43347171 C30.5075529,1.68238346 30.3018578,1.86693335 30.0602898,1.86461458 L30.0707966,1.87007959 Z" id="Path" fill-rule="nonzero"></path>
                        <path d="M24.0023316,48 C14.2954027,47.9963571 5.54555264,42.1494056 1.82965086,33.1834504 C-1.88625093,24.2174952 0.162873102,13.8965248 7.02226247,7.02945006 C11.5157562,2.51239011 17.6303529,-0.0189071291 24.0023316,0 C24.1720404,0 24.3288579,0.0906290347 24.4137123,0.237575402 C24.4985667,0.384521769 24.4985667,0.565567159 24.4137123,0.712513526 C24.3288579,0.859459893 24.1720404,0.949982587 24.0023316,0.949982584 C14.6769044,0.947712379 6.2685384,6.56271564 2.69868728,15.176294 C-0.871163852,23.7898724 1.10066454,33.7053825 7.69456055,40.2984761 C15.9779142,48.5788848 29.1547693,49.333256 38.3293187,42.0523071 C47.5038681,34.7713582 49.7598589,21.7694359 43.5742527,11.8242488 C41.363658,8.27696032 38.2330114,5.39484898 34.5151009,3.48428354 C34.281784,3.36424137 34.1899738,3.07782045 34.310037,2.84454449 C34.4301002,2.61126854 34.7165714,2.5194744 34.9498883,2.63951655 C42.9641492,6.75060453 48.0029143,15.0006051 48,24.0065414 C47.9964166,37.2562789 37.2543932,47.9964185 24.0023316,48 L24.0023316,48 Z" id="Path" fill-rule="nonzero"></path>
                        <path d="M33.038961,2.18315589 C33.0382212,2.52726219 32.7587998,2.80568618 32.4146931,2.80519481 C32.0705863,2.80470213 31.7919623,2.52548023 31.7922078,2.18137323 C31.7924536,1.83726623 32.0714759,1.55844156 32.415583,1.55844156 C32.5811448,1.55844156 32.7399061,1.62430177 32.8568504,1.74149704 C32.9737948,1.85869232 33.0393149,2.01759448 33.038961,2.18315589 Z" id="Path" fill-rule="nonzero"></path>
                    </g>
                </g>
            </g>
        </g>
    </g>
</svg>