<?xml version="1.0" encoding="UTF-8"?>
<svg width="26px" height="20px" viewBox="0 0 26 20" version="1.1" xmlns="http://www.w3.org/2000/svg" xmlns:xlink="http://www.w3.org/1999/xlink">
    <!-- Generator: Sketch 59 (86127) - https://sketch.com -->
    <title>Picto/CodeCVC</title>
    <desc>Created with Sketch.</desc>
    <g id="Paiement-SF" stroke="none" stroke-width="1" fill="none" fill-rule="evenodd">
        <g id="PaiementSF-2" transform="translate(-953.000000, -511.000000)">
            <g id="Picto/CodeCVC" transform="translate(954.000000, 512.000000)">
                <g id="Group" fill-rule="evenodd" stroke="#2A3848" stroke-linecap="round" stroke-linejoin="round">
                    <g id="credit-card-give">
                        <path d="M0.114173387,7.03125 C0.858144607,4.6125672 3.1431076,2.99609406 5.68002016,3.09375 L8.64372984,3.09375 C9.60397177,3.09375 10.6195363,3.5859375 10.6195363,4.5703125 L10.6195363,5.0625 C10.6195363,6.046875 9.63163306,6.5390625 8.64372984,6.5390625 L6.66792339,6.5390625 C6.66792339,6.5390625 5.68002016,9.984375 3.70421371,9.984375" id="Shape"></path>
                        <path d="M12.1013911,17.8593755 L4.69211694,17.8593755 C3.36590712,17.8599505 2.09549582,17.3276233 1.16826613,16.3828125" id="Shape"></path>
                        <path d="M9.63163306,11.953125 L16.053004,11.953125 C16.8714099,11.953125 17.5348589,12.6142045 17.5348589,13.4296875 C17.5348589,14.2451705 16.8714099,14.90625 16.053004,14.90625 L12.1013911,14.90625" id="Shape"></path>
                        <path d="M9.63163306,14.90625 L12.1013911,14.90625 C12.919797,14.90625 13.583246,15.5673295 13.583246,16.3828125 C13.583246,17.1982955 12.919797,17.859375 12.1013911,17.859375 L10.6195363,17.859375" id="Shape"></path>
                        <line x1="22.474375" y1="4.078125" x2="10.5167944" y2="4.078125" id="Shape"></line>
                        <path d="M4.69211694,3.17053125 L4.69211694,1.6171875 C4.69211694,0.801704549 5.35556595,0.140625 6.17397177,0.140625 L20.9925202,0.140625 C21.810926,0.140625 22.474375,0.801704549 22.474375,1.6171875 L22.474375,10.4765625 C22.474375,11.2920455 21.810926,11.953125 20.9925202,11.953125 L6.17397177,11.953125 C5.35556595,11.953125 4.69211694,11.2920455 4.69211694,10.4765625 L4.69211694,9.67725" id="Shape"></path>
                        <line x1="19.8991935" y1="7.68963068" x2="16.9354839" y2="7.68963068" id="Shape"></line>
                    </g>
                </g>
                <ellipse id="Oval" stroke="#E8665C" cx="18.9516129" cy="7.77272727" rx="5.5483871" ry="5.63636364"></ellipse>
            </g>
        </g>
    </g>
</svg>