<?xml version="1.0" encoding="UTF-8"?>
<svg width="28px" height="28px" viewBox="0 0 28 28" version="1.1" xmlns="http://www.w3.org/2000/svg" xmlns:xlink="http://www.w3.org/1999/xlink">
    <!-- Generator: Sketch 59 (86127) - https://sketch.com -->
    <title>Picto/Delete</title>
    <desc>Created with Sketch.</desc>
    <g id="Paiement-SF" stroke="none" stroke-width="1" fill="none" fill-rule="evenodd">
        <g id="Paiement-carte-pré-enregistrée-SF-2" transform="translate(-888.000000, -506.000000)" stroke="#CBCBCB">
            <g id="Picto/Delete" transform="translate(902.000000, 520.000000) scale(-1, 1) translate(-902.000000, -520.000000) translate(888.000000, 506.000000)">
                <g id="Group" fill-rule="evenodd" transform="translate(5.880000, 5.880000)" stroke-linecap="round" stroke-linejoin="round">
                    <g id="bin-1">
                        <path d="M14.42,2.87 L13.1516,14.9163 C13.0767488,15.6286589 12.4762805,16.169624 11.76,16.17 L4.48,16.17 C3.7634518,16.17 3.16257929,15.628925 3.0877,14.9163 L1.82,2.87" id="Shape"></path>
                        <line x1="0.07" y1="2.87" x2="16.17" y2="2.87" id="Shape"></line>
                        <path d="M4.97,2.87 L4.97,0.77 C4.97,0.383400675 5.28340068,0.07 5.67,0.07 L10.57,0.07 C10.9565993,0.07 11.27,0.383400675 11.27,0.77 L11.27,2.87" id="Shape"></path>
                        <line x1="8.12" y1="6.02" x2="8.12" y2="13.37" id="Shape"></line>
                        <line x1="11.27" y1="6.02" x2="10.92" y2="13.37" id="Shape"></line>
                        <line x1="4.97" y1="6.02" x2="5.32" y2="13.37" id="Shape"></line>
                    </g>
                </g>
                <circle id="Oval" cx="14" cy="14" r="13.5"></circle>
            </g>
        </g>
    </g>
</svg>