<?xml version="1.0" encoding="UTF-8"?>
<svg width="31px" height="42px" viewBox="0 0 31 42" version="1.1" xmlns="http://www.w3.org/2000/svg" xmlns:xlink="http://www.w3.org/1999/xlink">
    <!-- Generator: Sketch 59 (86127) - https://sketch.com -->
    <title>Icône Question En Attente</title>
    <desc>Created with Sketch.</desc>
    <g id="Icône-Question-En-Attente" stroke="none" stroke-width="1" fill="none" fill-rule="evenodd">
        <path d="M15,8 C15,8 27.3298632,18.6706068 30.7086985,21.6052431 C30.9100056,21.7800852 31.0169749,22.037947 30.9977997,22.3021547 C30.9786245,22.5663623 30.8355131,22.8064904 30.6110187,22.9511382 L15,33" id="Path" fill="#063444" fill-rule="nonzero"></path>
        <path d="M16,8 C16,8 3.67127725,18.6706068 0.291274516,21.6008544 C0.0899860783,21.7756964 -0.0169733256,22.0335582 0.00220007436,22.2977659 C0.0213734743,22.5619735 0.164471715,22.8021016 0.388945348,22.9467494 L15.9985201,33" id="Path" fill="#063444" fill-rule="nonzero"></path>
        <path d="M22.4262675,0 L3.88070759,0 C2.28908376,0 1,1.33503507 1,2.98240153 L1,32.0175985 C1,33.6649649 2.28908376,35 3.88070759,35 L27.1192924,35 C28.7109162,35 30,33.6649649 30,32.0175985 L30,7.84169676 L22.4262675,0 Z" id="Path" fill="#00BFB6" fill-rule="nonzero"></path>
        <path d="M22,4.95851852 C22,6.63851852 23.3631802,8 25.0428406,8 L30,8 L22,0 L22,4.95851852 Z" id="Path" fill="#04998E" fill-rule="nonzero"></path>
        <path d="M30.6368981,22.7494631 L15.5430556,32.8953566 L15.5430556,32.9249796 L15.5200926,32.9101681 L15.4985648,32.9249796 L15.4985648,32.8953566 L0.403287037,22.7494631 C0.159806354,22.5849412 0.0185054598,22.3000445 0.0315740741,22 L0,22 L0,39.7456861 C0,40.9868918 0.843888889,42 1.88439815,42 L29.1112963,42 C30.1503704,42 31,40.9868918 31,39.7456861 L31,22.1614456 C30.9663528,22.4021505 30.8340991,22.616326 30.6368981,22.7494631 L30.6368981,22.7494631 Z" id="Path" fill="#263444" fill-rule="nonzero"></path>
        <path d="M31,41.3093876 L17.2252832,30.4410971 C16.5102869,29.8529676 15.4925928,29.8529676 14.7775965,30.4410971 L1,41.3093876 C1.33085145,41.7378052 1.83191377,41.9913244 2.36494529,42 L29.6336149,42 C30.1669078,41.9907222 30.6681736,41.7373673 31,41.3093876 Z" id="Path" fill="#3C4957" fill-rule="nonzero"></path>
        <circle id="Oval" fill="#FFFFFF" fill-rule="nonzero" cx="13" cy="19" r="1"></circle>
        <circle id="Oval" fill="#FFFFFF" fill-rule="nonzero" cx="16" cy="19" r="1"></circle>
        <circle id="Oval" fill="#FFFFFF" fill-rule="nonzero" cx="19" cy="19" r="1"></circle>
    </g>
</svg>