<?xml version="1.0" encoding="UTF-8"?>
<svg width="47px" height="63px" viewBox="0 0 47 63" version="1.1" xmlns="http://www.w3.org/2000/svg" xmlns:xlink="http://www.w3.org/1999/xlink">
    <!-- Generator: Sketch 59 (86127) - https://sketch.com -->
    <title>IcônéRépondu</title>
    <desc>Created with Sketch.</desc>
    <g id="IcônéRépondu" stroke="none" stroke-width="1" fill="none" fill-rule="evenodd">
        <g id="Sans-titre---2-02" fill-rule="nonzero">
            <path d="M23,13 C23,13 41.5001192,28.7933962 46.562772,33.1300275 C46.8649011,33.3884875 47.0254864,33.7699874 46.996696,34.1608945 C46.9679056,34.5518017 46.7530617,34.9070104 46.4161572,35.1207189 L23,50" id="Path" fill="#063444"></path>
            <path d="M24,13 C24,13 5.51218896,28.7933962 0.437147122,33.1300275 C0.135073852,33.3884875 -0.025481639,33.7699874 0.00330341179,34.1608945 C0.0320884626,34.5518017 0.246892639,34.9070104 0.583734764,35.1207189 L24,50" id="Path" fill="#063444"></path>
            <path d="M33.7697893,0 L6.27094888,0 C3.91217102,0 2,1.9823097 2,4.43104522 L2,47.5689548 C2,50.0176903 3.91217102,52 6.27094888,52 L40.7290511,52 C43.087829,52 45,50.0176903 45,47.5689548 L45,11.6498484 L33.7697893,0 Z" id="Path" fill="#27AF61"></path>
            <path d="M34,7.43323442 C34,9.95474777 35.872973,12 38.1833977,12 L45,12 L34,0 L34,7.43323442 Z" id="Path" fill="#1D7F45"></path>
            <path d="M33.6375222,24.0007981 L8.36031513,24.0007981 C7.63322736,23.9736376 7.02467736,24.64432 7,25.5 L7,25.5 C7.02467736,26.35568 7.63322736,27.0263624 8.36031513,26.9992019 L33.6375222,26.9992019 C34.3649888,27.0263799 34.9741597,26.356079 35,25.5 L35,25.5 C34.9741597,24.643921 34.3649888,23.9736201 33.6375222,24.0007981 Z" id="Path" fill="#FFFFFF"></path>
            <path d="M33.6375222,30.0007981 L8.36031513,30.0007981 C7.63322736,29.9736376 7.02467736,30.64432 7,31.5 L7,31.5 C7.02467736,32.35568 7.63322736,33.0263624 8.36031513,32.9992019 L33.6375222,32.9992019 C34.3649888,33.0263799 34.9741597,32.356079 35,31.5 L35,31.5 C34.9741597,30.643921 34.3649888,29.9736201 33.6375222,30.0007981 Z" id="Path" fill="#FFFFFF"></path>
            <path d="M22.6000262,36.0007933 L8.39997382,36.0007933 C7.65084789,35.9736719 7.02419789,36.6453086 7,37.5012703 L7,37.5012703 C7.02539681,38.3562265 7.65168849,39.0263415 8.39997382,38.999204 L22.6000262,38.999204 C23.3483115,39.0263415 23.9746032,38.3562265 24,37.5012703 L24,37.5012703 C23.9758021,36.6453086 23.3491521,35.9736719 22.6000262,36.0007933 L22.6000262,36.0007933 Z" id="Path" fill="#FFFFFF"></path>
            <path d="M46.4492358,35.0851363 L23.5631311,49.8064612 L23.5631311,49.8494369 L23.5304771,49.827949 L23.4956461,49.8494369 L23.4956461,49.8064612 L0.611718388,35.0851363 C0.242072664,34.8477544 0.0275188357,34.4348252 0.0478925428,34 L0,34 L0,59.7316983 C0,61.5302312 1.28003705,63 2.8561371,63 L44.1351552,63 C45.7112552,63 47,61.5302312 47,59.7316983 L47,34.2342175 C46.948374,34.582636 46.7478342,34.8924656 46.4492358,35.0851363 Z" id="Path" fill="#263444"></path>
            <path d="M46,61.9658222 L25.3388073,45.6625739 C24.2660842,44.779142 22.7382373,44.779142 21.6655143,45.6625739 L1,61.9636077 C1.49603885,62.6059333 2.24707043,62.9863204 3.04624028,63 L43.9494382,63 C44.7491813,62.9856861 45.5010113,62.606509 46,61.9658222 Z" id="Path" fill="#3C4957"></path>
        </g>
    </g>
</svg>