<?xml version="1.0" encoding="utf-8"?>
<!-- Generator: Adobe Illustrator 24.1.0, SVG Export Plug-In . SVG Version: 6.00 Build 0)  -->
<svg version="1.1" id="Calque_1" xmlns="http://www.w3.org/2000/svg" xmlns:xlink="http://www.w3.org/1999/xlink" x="0px" y="0px"
	 viewBox="0 0 300 300" style="enable-background:new 0 0 300 300;" xml:space="preserve">
<style type="text/css">
	.st0{fill:#3C4957;stroke:#3C4957;stroke-width:0.8111;stroke-miterlimit:10;}
	.st1{fill:#FFCB9B;}
	.st2{fill:none;stroke:#3C4957;stroke-width:8.0274;stroke-linecap:round;stroke-linejoin:round;}
	.st3{fill:#00BFB6;stroke:#3C4957;stroke-width:8.0274;stroke-linecap:round;stroke-linejoin:round;}
	.st4{fill:#00BFB6;}
	.st5{fill:#FDC53B;stroke:#3C4957;stroke-width:7.7049;stroke-linecap:round;stroke-linejoin:round;}
	.st6{fill:none;stroke:#3C4957;stroke-width:7.7049;stroke-linecap:round;stroke-linejoin:round;}
	.st7{fill:#FDC53B;stroke:#3C4957;stroke-width:5.0564;stroke-linecap:round;stroke-linejoin:round;}
	.st8{fill:none;stroke:#3C4957;stroke-width:5.0564;stroke-linecap:round;stroke-linejoin:round;}
	.st9{fill:#00BFB6;stroke:#3C4957;stroke-width:5.4519;stroke-linecap:round;stroke-linejoin:round;}
	.st10{fill:#3C4957;stroke:#3C4957;stroke-width:2.2224;stroke-linecap:round;stroke-linejoin:round;}
	.st11{fill:#6CCFEA;stroke:#3C4957;stroke-width:6.6722;stroke-linecap:round;stroke-linejoin:round;}
	.st12{fill:none;stroke:#3C4957;stroke-width:6.6722;stroke-linecap:round;stroke-linejoin:round;}
	.st13{fill:#FDC53B;stroke:#3C4957;stroke-width:4.4412;stroke-linecap:round;stroke-linejoin:round;}
	.st14{fill:#FFFFFF;stroke:#3C4957;stroke-width:4.4412;stroke-linecap:round;stroke-linejoin:round;}
	.st15{fill:#00BFB6;stroke:#3C4957;stroke-width:7.4293;stroke-linecap:round;stroke-linejoin:round;}
	.st16{fill:#FDC53B;stroke:#3C4957;stroke-width:7.4293;stroke-linecap:round;stroke-linejoin:round;}
	.st17{fill:none;stroke:#3C4957;stroke-width:7.4293;stroke-linecap:round;stroke-linejoin:round;}
	.st18{fill:#3C4957;stroke:#3C4957;stroke-width:7.4293;stroke-linecap:round;stroke-linejoin:round;}
	.st19{fill:none;stroke:#3C4957;stroke-width:7.0979;stroke-linecap:round;stroke-linejoin:round;}
	
		.st20{fill-rule:evenodd;clip-rule:evenodd;fill:none;stroke:#3C4957;stroke-width:7.0979;stroke-linecap:round;stroke-linejoin:round;}
	.st21{fill-rule:evenodd;clip-rule:evenodd;fill:#FDC53B;}
	.st22{fill:#FFC20E;stroke:#3C4957;stroke-width:7.0979;stroke-linecap:round;stroke-linejoin:round;}
	
		.st23{fill-rule:evenodd;clip-rule:evenodd;fill:#FFC20E;stroke:#3C4957;stroke-width:7.0979;stroke-linecap:round;stroke-linejoin:round;}
	.st24{fill:#00BFB6;stroke:#3C4957;stroke-width:7.323;stroke-linecap:round;stroke-linejoin:round;}
	.st25{fill:#FDC53B;stroke:#3C4957;stroke-width:7.323;stroke-linecap:round;stroke-linejoin:round;}
	.st26{fill:none;stroke:#3C4957;stroke-width:7.323;stroke-linecap:round;stroke-linejoin:round;}
	.st27{fill:#FFFFFF;stroke:#3C4957;stroke-width:7.323;stroke-linecap:round;stroke-linejoin:round;}
	
		.st28{fill-rule:evenodd;clip-rule:evenodd;fill:#00BFB6;stroke:#3C4957;stroke-width:7.0979;stroke-linecap:round;stroke-linejoin:round;}
	.st29{fill:none;stroke:#FDC53B;stroke-width:6;stroke-linecap:round;stroke-linejoin:round;}
	.st30{fill:#FDC53B;stroke:#3C4957;stroke-width:5.6348;stroke-linecap:round;stroke-linejoin:round;}
	.st31{fill:#00BFB6;stroke:#3C4957;stroke-width:7.0979;stroke-linecap:round;stroke-linejoin:round;}
	.st32{fill:none;stroke:#3C4957;stroke-width:3.7352;stroke-linecap:round;stroke-linejoin:round;}
	.st33{fill:none;stroke:#3C4957;stroke-width:7;stroke-linecap:round;stroke-linejoin:round;}
	.st34{fill:none;stroke:#FDC53B;stroke-width:7;stroke-linecap:round;stroke-linejoin:round;}
	
		.st35{fill-rule:evenodd;clip-rule:evenodd;fill:#00BFB6;stroke:#3C4957;stroke-width:7;stroke-linecap:round;stroke-linejoin:round;}
	.st36{fill:#FFCB9B;stroke:#3C4957;stroke-width:7.0195;stroke-linecap:round;stroke-linejoin:round;}
	.st37{fill:none;stroke:#3C4957;stroke-width:7.0195;stroke-linecap:round;stroke-linejoin:round;}
	.st38{fill:#E8665C;}
	.st39{fill:#00BFB6;stroke:#3C4957;stroke-width:7;stroke-linecap:round;stroke-linejoin:round;}
</style>
<g id="Round_1_">
	<g id="Group-2_1_">
		<path id="Path_6_" class="st0" d="M188.2,11.7c-0.3,0-0.6,0-0.8-0.1c-5-1.4-10-2.6-15.1-3.4c-1.1-0.2-1.9-0.9-2.3-2
			c-0.4-1-0.2-2.2,0.5-3.1c0.7-0.9,1.7-1.3,2.8-1.1c5.3,0.9,10.6,2.1,15.7,3.5c1.5,0.4,2.4,1.9,2.2,3.4S189.7,11.7,188.2,11.7
			L188.2,11.7z"/>
		<path id="Path_5_" class="st0" d="M150.3,300C89.6,300,35,263.4,11.7,207.4S1.3,86.9,44.2,43.9C72.3,15.7,110.5-0.1,150.3,0
			c1.1,0,2,0.6,2.6,1.5c0.5,0.9,0.5,2,0,3c-0.5,0.9-1.5,1.5-2.6,1.5C92,5.9,39.5,41,17.2,94.9s-10,115.8,31.2,157
			c51.8,51.8,134.1,56.5,191.5,11s71.4-126.8,32.8-188.9c-13.8-22.2-33.4-40.2-56.6-52.1c-1.5-0.8-2-2.5-1.3-4c0.8-1.5,2.5-2,4-1.3
			c50.1,25.7,81.6,77.3,81.6,133.5C300.3,232.9,233.1,300,150.3,300L150.3,300z"/>
		<path id="Path_4_" class="st0" d="M206.8,13.6c0,2.2-1.8,3.9-3.9,3.9c-2.2,0-3.9-1.7-3.9-3.9c0-2.2,1.7-3.9,3.9-3.9
			c1,0,2,0.4,2.8,1.1C206.4,11.6,206.8,12.6,206.8,13.6z"/>
	</g>
</g>
<path id="Rectangle-path" class="st28" d="M239.2,201.1V247c0,1.7-1.3,3-3,3h-82.9c-1.7,0-3-1.3-3-3v-45.9c0-1.7,1.3-3,3-3h82.9
	C237.8,198.1,239.2,199.5,239.2,201.1z"/>
<line id="Shape_12_" class="st19" x1="211.4" y1="237" x2="222.5" y2="237"/>
<path id="Rectangle-path_1_" class="st19" d="M66.3,77.8h131c1.7,0,3,1.3,3,3v94c0,1.7-1.3,3-3,3h-131c-1.7,0-3-1.3-3-3v-94
	C63.3,79.1,64.6,77.8,66.3,77.8z"/>
<line id="Shape_11_" class="st19" x1="129.9" y1="177.8" x2="129.9" y2="200"/>
<line id="Shape_10_" class="st19" x1="63.3" y1="151.9" x2="200.3" y2="151.9"/>
<line id="Shape_9_" class="st29" x1="126.2" y1="92.6" x2="126.2" y2="100"/>
<path id="Shape_8_" class="st29" d="M111.4,133.3h22.2c4.1,0,7.4-3.7,7.4-8.3c0-4.6-3.3-8.3-7.4-8.3h-14.8c-4.1,0-7.4-3.7-7.4-8.3
	s3.3-8.3,7.4-8.3H141"/>
<line id="Shape_7_" class="st29" x1="126.2" y1="133.3" x2="126.2" y2="140.7"/>
<line id="Shape_6_" class="st19" x1="107.7" y1="200" x2="137.3" y2="200"/>
<line id="Path-13" class="st19" x1="150.3" y1="215.6" x2="239.2" y2="215.6"/>
</svg>
