<svg width="0" height="0" class="hidden">
  <symbol xmlns="http://www.w3.org/2000/svg" viewBox="0 0 25 24" id="chat">
    <title>chat</title>
    <path d="M5.8 21.2c-.1 0-.2 0-.2-.1-.2-.1-.3-.3-.3-.4v-4H2.8c-1.1 0-2-.9-2-2v-12c0-1.1.9-2 2-2h16.5c1.1 0 2 .9 2 2v4.5c0 .3-.2.5-.5.5s-.5-.2-.5-.5V2.8c0-.6-.4-1-1-1H2.8c-.6 0-1 .4-1 1v12c0 .6.4 1 1 1h3c.3 0 .5.2.5.5v3.5l2.2-1.7c.2-.2.5-.1.6.1s.1.5-.1.7l-3 2.2c0 .1-.1.1-.2.1z"></path>
    <path d="M16.2 6.2H5.8c-.3 0-.6-.2-.6-.4s.2-.5.5-.5h10.5c.3 0 .5.2.5.5s-.2.4-.5.4zm-7.4 4.6h-3c-.3 0-.5-.2-.5-.5s.2-.5.5-.5h3c.2 0 .4.2.4.4s-.2.6-.4.6zm12 13.4c-.1 0-.3-.1-.4-.1L16 19.8h-4.3c-.3 0-.5-.2-.5-.5v-9c0-.3.2-.5.5-.5h12c.3 0 .5.2.5.5v9c0 .3-.2.5-.5.5h-2.5v4c0 .2-.1.4-.3.5 0-.1-.1-.1-.1-.1zm-8.6-5.4h4c.1 0 .3.1.4.1l3.6 3.6v-3.3c0-.3.2-.5.5-.5h2.5v-8h-11v8.1z"></path>
    <path d="M20.8 13.8h-6c-.3 0-.5-.2-.5-.5s.2-.5.5-.5h6c.3 0 .5.2.5.5s-.3.5-.5.5zm0 3h-6c-.3 0-.5-.2-.5-.5s.2-.5.5-.5h6c.3 0 .5.2.5.5s-.3.5-.5.5z"></path>
  </symbol>
  <symbol xmlns="http://www.w3.org/2000/svg" viewBox="0 0 17 25" id="micro">
    <title>micro</title>
    <path d="M8.8 24.2c-.3 0-.5-.2-.5-.5V20c0-.3.2-.5.5-.5s.5.2.5.5v3.8c-.1.2-.3.4-.5.4zm1.4-6.7h-3c-1.9 0-3.5-1.6-3.5-3.5V4.2C3.7 2.3 5.3.7 7.2.7h3c1.9 0 3.5 1.6 3.5 3.5V14c.1 1.9-1.5 3.5-3.5 3.5zm-3-15.7c-1.4 0-2.5 1.1-2.5 2.5V14c0 1.4 1.1 2.5 2.5 2.5h3c1.4 0 2.5-1.1 2.5-2.5V4.2c0-1.4-1.1-2.5-2.5-2.5h-3z"></path>
    <path d="M8.8 20.5c-4.4 0-8-3.6-8-8v-2.3c0-.2.2-.4.4-.4s.6.2.6.4v2.2c0 3.9 3.1 7 7 7s7-3.1 7-7v-2.2c0-.3.2-.5.5-.5s.5.2.5.5v2.2c0 4.5-3.6 8.1-8 8.1z"></path>
  </symbol>
  <symbol xmlns="http://www.w3.org/2000/svg" viewBox="0 0 40 40" id="phone">
    <title>phone</title>
    <path d="M39.167 25c-3.167 0-5.834-2.667-5.834-5.833v-3.334c0-1-.666-1.666-1.666-1.666S30 14.833 30 15.833c0 .5-.333.834-.833.834s-.834-.334-.834-.834c0-1.833 1.5-3.333 3.334-3.333S35 14 35 15.833v3.334a4.126 4.126 0 0 0 4.167 4.166c.5 0 .833.334.833.834s-.333.833-.833.833z"></path>
    <path d="M25.833 38.333H14.167A4.126 4.126 0 0 1 10 34.167c0-.5.333-.834.833-.834s.834.334.834.834c0 1.333 1.166 2.5 2.5 2.5h11.666c1.334 0 2.5-1.167 2.5-2.5V5c0-1-.666-1.667-1.666-1.667H13.333c-.833 0-1.666.834-1.666 1.667v5.833c0 .5-.334.834-.834.834S10 11.333 10 10.833V5c0-1.833 1.5-3.333 3.333-3.333h13.334C28.5 1.667 30 3.167 30 5v29.167a4.126 4.126 0 0 1-4.167 4.166z"></path>
    <path d="M20 35.5c-.667 0-1.167-.5-1.167-1.333s.5-1.334 1.167-1.334 1.333.5 1.333 1.334S20.667 35.5 20 35.5zm0-1.667c-.167 0-.5.167-.5.334s.167.333.5.333c.167 0 .5-.167.5-.333s-.333-.334-.5-.334zm9.167-2.166H15.833c-.5 0-.833-.334-.833-.834s.333-.833.833-.833h13.334c.5 0 .833.333.833.833s-.333.834-.833.834z"></path>
    <path d="M13.333 35H10c-1.833 0-3.333-1.5-3.333-3.333s1.5-3.334 3.333-3.334h3.333c1.834 0 3.334 1.5 3.334 3.334S15.167 35 13.333 35zM10 30c-1 0-1.667.667-1.667 1.667S9 33.333 10 33.333h3.333c1 0 1.667-.666 1.667-1.666S14.333 30 13.333 30H10z"></path>
    <path d="M13.333 30h-5C6.5 30 5 28.5 5 26.667s1.5-3.334 3.333-3.334h5c1.834 0 3.334 1.5 3.334 3.334S15.167 30 13.333 30zm-5-5c-1 0-1.666.667-1.666 1.667s.666 1.666 1.666 1.666h5c1 0 1.667-.666 1.667-1.666S14.333 25 13.333 25h-5z"></path>
    <path d="M13.333 25h-5C6.5 25 5 23.5 5 21.667s1.5-3.334 3.333-3.334h5c1.834 0 3.334 1.5 3.334 3.334S15.167 25 13.333 25zm-5-5c-1 0-1.666.667-1.666 1.667s.666 1.666 1.666 1.666h5c1 0 1.667-.666 1.667-1.666S14.333 20 13.333 20h-5z"></path>
    <path d="M13.333 20H10c-1.833 0-3.333-1.5-3.333-3.333s1.5-3.334 3.333-3.334h3.333c1.834 0 3.334 1.5 3.334 3.334S15.167 20 13.333 20zM10 15c-1 0-1.667.667-1.667 1.667S9 18.333 10 18.333h3.333c1 0 1.667-.666 1.667-1.666S14.333 15 13.333 15H10zm29.167 23.333s-.167 0 0 0L29 36.667c-.5 0-.833-.5-.667-1 0-.5.5-.834 1-.667l10 1.667c.5 0 .834.5.667 1 0 .333-.5.666-.833.666z"></path>
  </symbol>
  <symbol xmlns="http://www.w3.org/2000/svg" viewBox="0 0 25 25" id="mail">
    <title>mail</title>
    <path d="M22.3 21.2H5.8c-1.1 0-2-.9-2-2V2.7c-.1-.4.1-.9.4-1.3.4-.4 1-.7 1.6-.7h16.5c1.1 0 2 .9 2 2v16.5c0 1.1-.9 2-2 2zM5.8 1.7c-.3 0-.6.1-.8.3-.2.2-.2.4-.2.6v16.6c0 .5.5 1 1 1h16.5c.5 0 1-.5 1-1V2.7c0-.5-.5-1-1-1H5.8z"></path>
    <path d="M20.8 24.3h-18c-1.1 0-2-.9-2-2v-18c0-.3.2-.5.5-.5s.5.2.5.5v18c0 .5.5 1 1 1h18c.3 0 .5.2.5.5s-.2.5-.5.5z"></path>
    <path d="M17.7 16.7h-7.5c-1.1 0-2-.9-2-2v-6c0-.3.2-.5.5-.5s.5.2.5.5v6c0 .5.5 1 1 1h7.5c.5 0 1-.5 1-1v-6c0-.3.2-.5.5-.5s.5.2.5.5v6c0 1.1-.9 2-2 2z"></path>
    <path d="M14 12.2c-.4 0-.7-.1-1.1-.3L8.4 9.1c-.1-.1-.2-.2-.2-.4 0-1.1.9-2 2-2h7.5c1.1 0 2 .9 2 2 0 .2-.1.3-.2.4l-4.4 2.8c-.4.2-.7.3-1.1.3zM9.2 8.4l4.2 2.6c.3.2.7.2 1.1 0l4.1-2.6c-.1-.4-.5-.7-1-.7h-7.4c-.4 0-.8.3-1 .7zm10 .3z"></path>
  </symbol>
  <symbol xmlns="http://www.w3.org/2000/svg" viewBox="0 0 40 40" id="visio">
    <title>visio</title>
    <path d="M20 6c.9 0 1.6-.7 1.6-1.6s-.7-1.6-1.6-1.6-1.6.7-1.6 1.6S19.1 6 20 6zm0-2c.2 0 .4.2.4.4s-.2.4-.4.4-.4-.2-.4-.4.2-.4.4-.4zm-2 16.5c-.6.2-1.2.4-1.8.7-1.4.8-2.6 1.9-3.3 3.3-.3.5-.1 1.1.4 1.4.5.3 1.1.1 1.4-.4.6-1.1 1.4-1.9 2.5-2.5 3-1.6 6.6-.5 8.2 2.5.2.3.5.5.9.5.2 0 .3 0 .5-.1.5-.3.7-.9.4-1.4-1.1-2.1-3-3.5-5.1-4 1.6-.8 2.7-2.4 2.7-4.3 0-2.6-2.1-4.8-4.8-4.8s-4.8 2.1-4.8 4.8c0 1.9 1.2 3.6 2.8 4.3zm2-7c1.5 0 2.8 1.2 2.8 2.8S21.5 19 20 19s-2.8-1.2-2.8-2.8 1.3-2.7 2.8-2.7z"></path>
    <path d="M36.2 4h-10c-.6 0-1 .4-1 1s.4 1 1 1h10c.8 0 1.5.7 1.5 1.5v20c0 .8-.7 1.5-1.5 1.5H3.8c-.8 0-1.5-.7-1.5-1.5v-20C2.2 6.7 2.9 6 3.8 6h10c.6 0 1-.4 1-1s-.4-1-1-1h-10C1.8 4 .2 5.6.2 7.5v20c0 1.9 1.6 3.5 3.5 3.5h10.1l-.9 5.5H10c-.6 0-1 .4-1 1s.4 1 1 1h20c.6 0 1-.4 1-1s-.4-1-1-1h-2.9l-.9-5.5h10.1c1.9 0 3.5-1.6 3.5-3.5v-20c0-1.9-1.6-3.5-3.6-3.5zM25.1 36.5H14.9l.9-5.5h8.3l1 5.5z"></path>
  </symbol>
</svg>
