<?xml version="1.0" encoding="utf-8"?>
<!-- Generator: Adobe Illustrator 23.0.6, SVG Export Plug-In . SVG Version: 6.00 Build 0)  -->
<svg version="1.1" id="Calque_1" xmlns="http://www.w3.org/2000/svg" xmlns:xlink="http://www.w3.org/1999/xlink" x="0px" y="0px"
	 viewBox="0 0 401.4 401.4" style="enable-background:new 0 0 401.4 401.4;" xml:space="preserve">
<style type="text/css">
	.st0{fill:#FFFFFF;stroke:#E6EDEE;stroke-width:4;stroke-miterlimit:10;}
	.st1{fill:#E6EDEE;stroke:#263444;stroke-miterlimit:10;}
	.st2{fill:#B8BDBE;stroke:#263444;stroke-miterlimit:10;}
	.st3{fill:#00BFB6;stroke:#263444;stroke-miterlimit:10;}
	.st4{fill:#3C4957;stroke:#263444;stroke-miterlimit:10;}
	.st5{fill:#FF2580;stroke:#263444;stroke-miterlimit:10;}
	.st6{opacity:0.5;fill:#E9EFF2;stroke:#263444;stroke-miterlimit:10;enable-background:new    ;}
</style>
<circle class="st0" cx="200.7" cy="200.7" r="198.7"/>
<title>Fichier 51</title>
<path class="st1" d="M239.7,101.2H127.9c-5.2,0-9.4,4.7-9.4,10.4V312c0,5.7,4.2,10.4,9.4,10.4h145.5c5.2,0,9.4-4.7,9.4-10.4V148.2
	L239.7,101.2L239.7,101.2z"/>
<polygon class="st2" points="239.7,143.4 282.8,143.4 239.7,101.2 "/>
<rect x="139.2" y="178.2" class="st2" width="123" height="9.9"/>
<rect x="139.2" y="208.3" class="st2" width="123" height="9.9"/>
<rect x="139.2" y="238.5" class="st2" width="123" height="9.9"/>
<rect x="139.2" y="268.5" class="st2" width="123" height="9.9"/>
<rect x="193.4" y="118.4" class="st3" width="14.6" height="43.3"/>
<rect x="179" y="132.7" class="st3" width="43.3" height="14.6"/>
<rect x="218.5" y="307.1" transform="matrix(0.7071 -0.7071 0.7071 0.7071 -155.9009 251.0813)" class="st4" width="13.2" height="13.2"/>
<path class="st5" d="M262,350.6L262,350.6c-3.9,3.9-10.2,3.9-14.1,0c0,0,0,0,0,0L225.2,328c0-2-0.1-3-0.1-4.9l9.2-9.2h5l22.6,22.6
	C265.9,340.3,265.9,346.6,262,350.6C262,350.6,262,350.6,262,350.6z"/>
<path class="st4" d="M187.4,225.1c-28.2,0-51,22.8-51,51s22.8,51,51,51s51-22.8,51-51S215.6,225.1,187.4,225.1z M218.9,307.5
	c-17.4,17.4-45.6,17.4-63,0s-17.4-45.6,0-63c17.4-17.4,45.6-17.4,63,0c0,0,0,0,0,0C233.4,261.3,230.7,288.5,218.9,307.5L218.9,307.5
	z"/>
<path class="st6" d="M219.4,307.6c-17.4,17.4-45.6,17.4-63,0s-17.4-45.6,0-63c17.4-17.4,45.6-17.4,63,0c0,0,0,0,0,0
	C236.7,262,236.7,290.2,219.4,307.6z"/>
</svg>
