<svg xmlns="http://www.w3.org/2000/svg" id="Calque_1" x="0" y="0" version="1.1" viewBox="0 0 300 300" xml:space="preserve">
  <defs/>
  <style>.st0,.st37{stroke:#3c4957}.st0{stroke-miterlimit:10;fill:#3c4957;stroke-width:.8111}.st37{fill:none;stroke-width:7.0195;stroke-linecap:round;stroke-linejoin:round}.st38{fill:#e8665c}</style>
  <g id="Stroke_3_">
    <path d="M188.6 11c-.2 0-.6 0-.8-.1-4.9-1.4-9.9-2.4-14.9-3.2-1.6-.2-2.8-1.8-2.4-3.4s1.8-2.8 3.4-2.4c5.3.8 10.5 1.9 15.6 3.3 1.5.4 2.5 2 2.1 3.6-.5 1.3-1.7 2.2-3 2.2z" class="st0"/>
    <path d="M150 300C67.1 300-.1 232.8 0 149.9c0-39.7 15.8-77.9 43.9-106S110.2-.1 150 0c1.6 0 3 1.3 3 3s-1.4 2.9-3 2.9C70.4 5.9 5.9 70.4 5.8 150c0 38.2 15.2 74.9 42.2 101.9 56.3 56.3 147.6 56.3 203.8 0 47.4-47.4 55.8-121.1 20.4-177.9-13.8-22.1-33.4-40.1-56.6-52.1-1.5-.7-2-2.5-1.3-4s2.5-2 4-1.3C268.5 42.2 300 93.8 300 150c0 82.8-67.2 150-150 150z" class="st0"/>
    <path d="M206.9 12.7c0 2.1-1.7 3.8-3.8 3.7-2.1 0-3.8-1.7-3.7-3.8 0-2.1 1.7-3.7 3.8-3.7 2 0 3.7 1.7 3.7 3.8z" class="st0"/>
  </g>
  <path fill="#ffcb9b" stroke="#3c4957" stroke-linecap="round" stroke-linejoin="round" stroke-width="7.0195" d="M126.5 230.7v-21.1h-7c-11.6 0-21.1-9.4-21.1-21.1v-21.1H78.7c-1.9 0-3.5-1.6-3.5-3.5 0-.4.1-.7.2-1.1 14.5-45 24.6-93.7 81-93.7 37.8 0 68.4 30.5 68.5 68.3 0 21.9-10.4 42.4-28.1 55.3v37.8"/>
  <path d="M103.7 148.4c1 0 1.7.8 1.8 1.7M101.9 150.1c0-1 .8-1.7 1.8-1.7M103.7 151.9c-1 0-1.7-.8-1.8-1.7M105.4 150.1c0 1-.8 1.7-1.7 1.7" class="st37"/>
  <circle cx="103.7" cy="150.1" r="2.4" class="st38"/>
  <g>
    <path d="M124.7 121.2c1 0 1.7.8 1.8 1.7M122.9 122.9c0-1 .8-1.7 1.8-1.7M124.7 124.7c-1 0-1.7-.8-1.8-1.7M126.4 122.9c0 1-.8 1.7-1.7 1.7" class="st37"/>
    <circle cx="124.7" cy="122.9" r="2.4" class="st38"/>
  </g>
  <g>
    <path d="M146 152c1 0 1.7.8 1.8 1.7M144.2 153.8c0-1 .8-1.7 1.8-1.7M146 155.5c-1 0-1.7-.8-1.8-1.7M147.7 153.8c0 1-.8 1.7-1.7 1.7" class="st37"/>
    <circle cx="146" cy="153.8" r="2.4" class="st38"/>
  </g>
  <g>
    <path d="M124.9 178.1c1 0 1.7.8 1.8 1.7M123.2 179.8c0-1 .8-1.7 1.8-1.7M124.9 181.6c-1 0-1.7-.8-1.8-1.7M126.7 179.8c0 1-.8 1.7-1.7 1.7" class="st37"/>
    <circle cx="124.9" cy="179.8" r="2.4" class="st38"/>
  </g>
  <g>
    <path d="M156.5 188.6c1 0 1.7.8 1.8 1.7M154.7 190.4c0-1 .8-1.7 1.8-1.7M156.5 192.1c-1 0-1.7-.8-1.8-1.7M158.2 190.4c0 1-.8 1.7-1.7 1.7" class="st37"/>
    <circle cx="156.5" cy="190.4" r="2.4" class="st38"/>
  </g>
</svg>
