<svg xmlns="http://www.w3.org/2000/svg" viewBox="0 0 369.9 369.9"><defs><style>.cls-1{fill:#263444;}.cls-2{fill:#fccb9d;}.cls-3{fill:#e8665c;}</style></defs><title>Fichier 20</title><g id="Calque_2" data-name="Calque 2"><g id="Stroke"><path class="cls-1" d="M232.61,13.65a3.52,3.52,0,0,1-1-.13,177.34,177.34,0,0,0-18.41-4,3.66,3.66,0,1,1,1.16-7.23,183.66,183.66,0,0,1,19.17,4.13,3.66,3.66,0,0,1-1,7.19Z"/><path class="cls-1" d="M185,369.9A185,185,0,0,1,54.17,54.17,183.75,183.75,0,0,1,185,0a3.66,3.66,0,1,1,0,7.32A177.63,177.63,0,0,0,59.35,310.55,177.64,177.64,0,0,0,335.8,91.12,178.24,178.24,0,0,0,266,26.85a3.66,3.66,0,0,1,3.35-6.51A185,185,0,0,1,369.9,185,184.95,184.95,0,0,1,185,369.9Z"/><path class="cls-1" d="M255.06,15.67A4.66,4.66,0,1,1,250.4,11,4.66,4.66,0,0,1,255.06,15.67Z"/><path class="cls-2" d="M237.24,287.88l-53.33-53.32-17.77,0a57,57,0,0,1-31.85-9.66l-26.17-17.55a11.9,11.9,0,0,1,12.79-20.06l11.31,6.86a1.72,1.72,0,0,0,2.11-2.68l-48.9-48.9a11.64,11.64,0,0,1,16.46-16.46L140,164.21l-9.83-9.77L91.5,115.8A11.65,11.65,0,0,1,108,99.33l48.44,48.44L146.58,138,118.3,109.72a11.64,11.64,0,0,1,16.46-16.46l38.08,38.08L163,121.56l-19.67-19.67A11.64,11.64,0,1,1,159.8,85.42l52.33,52.33a57,57,0,0,1,16.7,40.42v11.49l59.06,59.06v39.16Z"/><path class="cls-3" d="M200.21,159.56a8.37,8.37,0,1,1-8.37-8.37A8.37,8.37,0,0,1,200.21,159.56Z"/><path class="cls-3" d="M176.36,205.3a8.37,8.37,0,1,1-8.36-8.37A8.36,8.36,0,0,1,176.36,205.3Z"/><path class="cls-3" d="M241.35,229.31a8.37,8.37,0,1,1-8.37-8.37A8.37,8.37,0,0,1,241.35,229.31Z"/><path class="cls-3" d="M276,279.5a8.37,8.37,0,1,1-8.37-8.37A8.37,8.37,0,0,1,276,279.5Z"/><path d="M290.84,245.76a4.2,4.2,0,1,0,1.22,3A4.22,4.22,0,0,0,290.84,245.76Z"/><path d="M233,187.93v-9.75a60.85,60.85,0,0,0-17.94-43.39L205,124.72a4.18,4.18,0,0,0-5.92,5.91l10.08,10.08a52.5,52.5,0,0,1,15.48,37.45l0,11.49a4.2,4.2,0,0,0,1.23,3l47.23,47.22a4.18,4.18,0,0,0,5.91-5.91Z"/><path d="M186.87,231.6a4.19,4.19,0,0,0-3-1.22h0l-17.78,0h-.07a52.69,52.69,0,0,1-29.44-9L110.45,203.9a7.73,7.73,0,0,1-2-10.84,7.74,7.74,0,0,1,10.32-2.17l11.31,6.86a5.9,5.9,0,0,0,7.23-9.22l-48.89-48.9a7.45,7.45,0,0,1,10-11.06L137,167.17a4.19,4.19,0,0,0,5.92-5.92L94.46,112.84A7.46,7.46,0,1,1,105,102.29l48.44,48.44a4.19,4.19,0,0,0,5.92-5.92l-38.63-38.62a7.46,7.46,0,0,1,11.06-10l28.26,28.3c.13.14,9.82,9.77,9.82,9.77a4.18,4.18,0,0,0,5.92-5.91l-30-30a7.46,7.46,0,0,1,11.06-10L175.42,107a4.18,4.18,0,0,0,5.92-5.91L162.76,82.47a15.84,15.84,0,0,0-26.36,6.65,15.83,15.83,0,0,0-25,7.73l-.47-.48a15.83,15.83,0,0,0-22.39,22.38l.47.47a15.83,15.83,0,0,0-6.54,26.33l36.39,36.39a16.15,16.15,0,0,0-17.29,6.32,16.1,16.1,0,0,0,4.22,22.59L132,228.39a61.1,61.1,0,0,0,34.19,10.38l16,0,52.1,52.09a4.19,4.19,0,1,0,5.92-5.92Z"/><path d="M191.84,172.11a12.55,12.55,0,1,0-12.56-12.55A12.56,12.56,0,0,0,191.84,172.11Zm0-16.74a4.19,4.19,0,1,1-4.19,4.19A4.19,4.19,0,0,1,191.84,155.37Z"/><path d="M168,217.85a12.55,12.55,0,1,0-12.56-12.55A12.56,12.56,0,0,0,168,217.85Zm0-16.73a4.19,4.19,0,1,1-4.19,4.18A4.18,4.18,0,0,1,168,201.12Z"/><path d="M233,216.76a12.55,12.55,0,1,0,12.56,12.55A12.56,12.56,0,0,0,233,216.76Zm0,16.73a4.18,4.18,0,1,1,4.19-4.18A4.18,4.18,0,0,1,233,233.49Z"/><path d="M267.67,267a12.55,12.55,0,1,0,12.55,12.55A12.56,12.56,0,0,0,267.67,267Zm0,16.74a4.19,4.19,0,1,1,4.18-4.19A4.19,4.19,0,0,1,267.67,283.69Z"/><path d="M164.34,174.14a4.2,4.2,0,0,0,0-5.92,4.18,4.18,0,1,0,0,5.92Z"/><path d="M210.36,195.86a4.18,4.18,0,1,0-5.91-5.91,4.16,4.16,0,0,0,0,5.91,4.16,4.16,0,0,0,5.91,0Z"/><path d="M198.73,220.6a4.16,4.16,0,1,0,3-1.23A4.22,4.22,0,0,0,198.73,220.6Z"/><path d="M240,255.25a4.18,4.18,0,1,0,3,7.14,4.2,4.2,0,0,0,0-5.92A4.21,4.21,0,0,0,240,255.25Z"/><path d="M190.22,120a4.17,4.17,0,0,0,2.95-1.22,4.18,4.18,0,0,0,0-5.92,4.19,4.19,0,0,0-5.91,0,4.18,4.18,0,0,0,3,7.14Z"/></g></g></svg>