<?xml version="1.0" encoding="UTF-8"?>
<svg width="80px" height="80px" viewBox="0 0 80 80" version="1.1" xmlns="http://www.w3.org/2000/svg" xmlns:xlink="http://www.w3.org/1999/xlink">
    <!-- Generator: Sketch 59 (86127) - https://sketch.com -->
    <title>PictoAjoutDeDocTélésoin</title>
    <desc>Created with Sketch.</desc>
    <g id="PictoAjoutDeDocTélésoin" stroke="none" stroke-width="1" fill="none" fill-rule="evenodd">
        <g id="Round" fill="#2A3848">
            <g id="Group-2">
                <path d="M50.1179944,3.11679932 C50.0440424,3.11791182 49.9703217,3.10794215 49.8991012,3.08719715 C48.5722886,2.70952288 47.227116,2.40548199 45.8692763,2.17636121 C45.5865723,2.12917671 45.3495412,1.9286815 45.2474701,1.65040019 C45.1453991,1.37211888 45.1937953,1.05832901 45.3744282,0.8272322 C45.5550612,0.596135388 45.8404885,0.482840734 46.1231924,0.530025238 C47.5370214,0.765545273 48.9377454,1.079472 50.3193762,1.47046335 C50.7077228,1.58103756 50.9568511,1.97426659 50.9013863,2.38911951 C50.8459215,2.80397243 50.5030964,3.11155558 50.100483,3.10769096 L50.1179944,3.11679932 Z" id="Path" fill-rule="nonzero"></path>
                <path d="M40.003886,80 C23.8256712,79.9939284 9.24258774,70.2490094 3.04941809,55.3057507 C-3.14375156,40.362492 0.27145517,23.1608747 11.7037708,11.7157501 C19.1929269,4.18731685 29.3839215,-0.0315118818 40.003886,0 C40.2867341,0 40.5480964,0.151048391 40.6895204,0.395959003 C40.8309444,0.640869614 40.8309444,0.942611932 40.6895204,1.18752254 C40.5480964,1.43243316 40.2867341,1.58330431 40.003886,1.58330431 C24.4615073,1.57952063 10.447564,10.9378594 4.49781213,25.2938233 C-1.45193975,39.6497873 1.8344409,56.1756374 12.8242676,67.1641268 C26.6298569,80.9648081 48.5912822,82.2220933 63.8821978,70.0871785 C79.1731134,57.9522637 82.9330982,36.2823932 72.6237544,19.7070814 C68.93943,13.7949339 63.7216856,8.99141496 57.5251681,5.80713923 C57.1363067,5.60706895 56.9832897,5.12970075 57.183395,4.74090749 C57.3835004,4.35211423 57.8609523,4.19912401 58.2498138,4.39919426 C71.6069154,11.2510075 80.0048572,25.0010085 80,40.0109023 C79.9940277,62.0937982 62.0906553,79.9940308 40.003886,80 L40.003886,80 Z" id="Path" fill-rule="nonzero"></path>
                <path d="M55.0649351,3.63859315 C55.063702,4.21210365 54.5979997,4.67614363 54.0244885,4.67532468 C53.4509772,4.67450356 52.9866039,4.20913371 52.987013,3.63562204 C52.9874226,3.06211038 53.4524598,2.5974026 54.0259716,2.5974026 C54.301908,2.5974026 54.5665102,2.70716961 54.7614174,2.90249507 C54.9563246,3.09782053 55.0655248,3.36265747 55.0649351,3.63859315 Z" id="Path" fill-rule="nonzero"></path>
            </g>
        </g>
        <g id="Group" transform="translate(20.000000, 23.000000)" stroke="#273445" stroke-linecap="round" stroke-linejoin="round" stroke-width="2">
            <g id="attachment">
                <path d="M12.4658182,21.7356273 L26.6465455,8.32696182 C27.4834098,7.50322194 28.7257973,7.17153093 29.8947087,7.45977139 C31.0636201,7.74801185 31.9764673,8.61115958 32.2813045,9.71643027 C32.5861416,10.821701 32.2353521,11.9964473 31.3641818,12.7877491 L12.2089091,30.9573727 C9.60252673,33.4214248 5.37711231,33.4210784 2.77118182,30.9565991 C0.16525133,28.4921198 0.165617642,24.4967557 2.772,22.0327036 L22.7912727,3.10646364 C26.3736929,-0.281340891 32.1823098,-0.28168726 35.7651818,3.10569 C39.3480538,6.49306726 39.3484201,11.9854373 35.766,15.3732418 L21.5869091,28.7834545" id="Shape"></path>
            </g>
        </g>
    </g>
</svg>