<svg xmlns="http://www.w3.org/2000/svg" viewBox="0 0 370.8 370.9"><defs><style>.cls-1{fill:#3c4957;stroke-miterlimit:10;}.cls-1,.cls-3,.cls-5,.cls-6,.cls-7{stroke:#3c4957;}.cls-2{fill:#00bfb6;}.cls-3,.cls-4{fill:none;stroke-width:7.78px;}.cls-3,.cls-4,.cls-5,.cls-6,.cls-7{stroke-linecap:round;stroke-linejoin:round;}.cls-4{stroke:#fff;}.cls-5{fill:#fff;}.cls-5,.cls-6,.cls-7{stroke-width:5.71px;}.cls-6{fill:#fdc53b;}.cls-7{fill:#e8665c;}</style></defs><title>Fichier 75</title><g id="Calque_2" data-name="Calque 2"><g id="Calque_1-2" data-name="Calque 1"><g id="Stroke"><path class="cls-1" d="M233,14.1a3.4,3.4,0,0,1-1-.1,167.71,167.71,0,0,0-18.4-4,3.57,3.57,0,0,1-3-4.2,3.62,3.62,0,0,1,4.2-3A177,177,0,0,1,234,6.9a3.71,3.71,0,0,1,2.6,4.5,3.84,3.84,0,0,1-3.6,2.7Z"/><path class="cls-1" d="M185.4,370.4C83.2,370.4.4,287.5.5,185.3A184.71,184.71,0,0,1,185.4.5a3.69,3.69,0,0,1,3.7,3.7,3.61,3.61,0,0,1-3.7,3.6C87.3,7.8,7.8,87.3,7.7,185.4A177.64,177.64,0,0,0,59.7,311c69.4,69.4,181.9,69.4,251.2,0A177.71,177.71,0,0,0,266.3,27.3a3.64,3.64,0,0,1,3.3-6.5h0A185,185,0,0,1,370.3,185.5C370.3,287.6,287.5,370.4,185.4,370.4Z"/><path class="cls-1" d="M255.5,16.2a4.65,4.65,0,0,1-9.3-.1,4.61,4.61,0,0,1,4.7-4.6,4.67,4.67,0,0,1,4.6,4.7Z"/></g><rect class="cls-2" x="132.62" y="135.05" width="179.35" height="124.36" rx="12"/><path class="cls-3" d="M140.53,96.28H303.88a7.79,7.79,0,0,1,7.78,7.78V251.85a7.78,7.78,0,0,1-7.78,7.78H140.53a7.78,7.78,0,0,1-7.78-7.78V104.06A7.78,7.78,0,0,1,140.53,96.28Z"/><path class="cls-3" d="M171.64,80.73v38.89"/><path class="cls-3" d="M272.76,80.73v38.89"/><path class="cls-3" d="M132.75,135.18H311.66"/><path class="cls-4" d="M202.76,224.63h38.89"/><path class="cls-4" d="M222.2,224.62V166.28a3.88,3.88,0,0,0-6.31-3l-13.13,10.51"/><path class="cls-5" d="M58.83,241.62v37.13a11.45,11.45,0,0,0,11.42,11.42h97.11a11.45,11.45,0,0,0,11.42-11.42V241.62"/><path class="cls-6" d="M90.25,184.5a8.57,8.57,0,1,1-17.14,0,31.87,31.87,0,0,1,6.33-13.2,2.87,2.87,0,0,1,4-.45,2.4,2.4,0,0,1,.45.45A31.88,31.88,0,0,1,90.25,184.5Z"/><path class="cls-6" d="M164.5,184.5a8.57,8.57,0,0,1-17.14,0,31.88,31.88,0,0,1,6.34-13.2,2.86,2.86,0,0,1,4-.45,2.79,2.79,0,0,1,.46.45A31.74,31.74,0,0,1,164.5,184.5Z"/><path class="cls-6" d="M127.37,184.5a8.57,8.57,0,1,1-17.13,0,31.74,31.74,0,0,1,6.33-13.2,2.87,2.87,0,0,1,4-.45,2.74,2.74,0,0,1,.45.45A31.74,31.74,0,0,1,127.37,184.5Z"/><path class="cls-5" d="M124.52,227.34H113.09v-20A2.86,2.86,0,0,1,116,204.5h5.71a2.86,2.86,0,0,1,2.86,2.85Z"/><path class="cls-5" d="M87.39,227.34H76v-20a2.86,2.86,0,0,1,2.85-2.85h5.71a2.86,2.86,0,0,1,2.86,2.85Z"/><path class="cls-5" d="M161.64,227.34H150.22v-20a2.86,2.86,0,0,1,2.86-2.85h5.71a2.86,2.86,0,0,1,2.85,2.85Z"/><path class="cls-7" d="M178.78,241.62a15,15,0,1,1-30,0,15,15,0,1,1-30,0,15,15,0,1,1-30,0,15,15,0,1,1-30,0v-8.56a5.72,5.72,0,0,1,5.71-5.72H173.07a5.72,5.72,0,0,1,5.71,5.72Z"/></g></g></svg>