<?xml version="1.0" encoding="utf-8"?>
<!-- Generator: Adobe Illustrator 24.1.0, SVG Export Plug-In . SVG Version: 6.00 Build 0)  -->
<svg version="1.1" id="Calque_1" xmlns="http://www.w3.org/2000/svg" xmlns:xlink="http://www.w3.org/1999/xlink" x="0px" y="0px"
	 viewBox="0 0 300 300" style="enable-background:new 0 0 300 300;" xml:space="preserve">
<style type="text/css">
	.st0{fill:#3C4957;stroke:#3C4957;stroke-width:0.8111;stroke-miterlimit:10;}
	.st1{fill:#FFCB9B;}
	.st2{fill:none;stroke:#3C4957;stroke-width:8.0274;stroke-linecap:round;stroke-linejoin:round;}
	.st3{fill:#00BFB6;stroke:#3C4957;stroke-width:8.0274;stroke-linecap:round;stroke-linejoin:round;}
	.st4{fill:#00BFB6;}
	.st5{fill:#FDC53B;stroke:#3C4957;stroke-width:7.7049;stroke-linecap:round;stroke-linejoin:round;}
	.st6{fill:none;stroke:#3C4957;stroke-width:7.7049;stroke-linecap:round;stroke-linejoin:round;}
	.st7{fill:#FDC53B;stroke:#3C4957;stroke-width:5.0564;stroke-linecap:round;stroke-linejoin:round;}
	.st8{fill:none;stroke:#3C4957;stroke-width:5.0564;stroke-linecap:round;stroke-linejoin:round;}
	.st9{fill:#00BFB6;stroke:#3C4957;stroke-width:5.4519;stroke-linecap:round;stroke-linejoin:round;}
	.st10{fill:#3C4957;stroke:#3C4957;stroke-width:2.2224;stroke-linecap:round;stroke-linejoin:round;}
	.st11{fill:#6CCFEA;stroke:#3C4957;stroke-width:6.6722;stroke-linecap:round;stroke-linejoin:round;}
	.st12{fill:none;stroke:#3C4957;stroke-width:6.6722;stroke-linecap:round;stroke-linejoin:round;}
	.st13{fill:#FDC53B;stroke:#3C4957;stroke-width:4.4412;stroke-linecap:round;stroke-linejoin:round;}
	.st14{fill:#FFFFFF;stroke:#3C4957;stroke-width:4.4412;stroke-linecap:round;stroke-linejoin:round;}
	.st15{fill:#00BFB6;stroke:#3C4957;stroke-width:7.4293;stroke-linecap:round;stroke-linejoin:round;}
	.st16{fill:#FDC53B;stroke:#3C4957;stroke-width:7.4293;stroke-linecap:round;stroke-linejoin:round;}
	.st17{fill:none;stroke:#3C4957;stroke-width:7.4293;stroke-linecap:round;stroke-linejoin:round;}
	.st18{fill:#3C4957;stroke:#3C4957;stroke-width:7.4293;stroke-linecap:round;stroke-linejoin:round;}
	.st19{fill:none;stroke:#3C4957;stroke-width:7.0979;stroke-linecap:round;stroke-linejoin:round;}
	
		.st20{fill-rule:evenodd;clip-rule:evenodd;fill:none;stroke:#3C4957;stroke-width:7.0979;stroke-linecap:round;stroke-linejoin:round;}
	.st21{fill-rule:evenodd;clip-rule:evenodd;fill:#FDC53B;}
	.st22{fill:#FFC20E;stroke:#3C4957;stroke-width:7.0979;stroke-linecap:round;stroke-linejoin:round;}
	
		.st23{fill-rule:evenodd;clip-rule:evenodd;fill:#FFC20E;stroke:#3C4957;stroke-width:7.0979;stroke-linecap:round;stroke-linejoin:round;}
	.st24{fill:#00BFB6;stroke:#3C4957;stroke-width:7.323;stroke-linecap:round;stroke-linejoin:round;}
	.st25{fill:#FDC53B;stroke:#3C4957;stroke-width:7.323;stroke-linecap:round;stroke-linejoin:round;}
	.st26{fill:none;stroke:#3C4957;stroke-width:7.323;stroke-linecap:round;stroke-linejoin:round;}
	.st27{fill:#FFFFFF;stroke:#3C4957;stroke-width:7.323;stroke-linecap:round;stroke-linejoin:round;}
	
		.st28{fill-rule:evenodd;clip-rule:evenodd;fill:#00BFB6;stroke:#3C4957;stroke-width:7.0979;stroke-linecap:round;stroke-linejoin:round;}
	.st29{fill:none;stroke:#FDC53B;stroke-width:6;stroke-linecap:round;stroke-linejoin:round;}
	.st30{fill:#FDC53B;stroke:#3C4957;stroke-width:5.6348;stroke-linecap:round;stroke-linejoin:round;}
	.st31{fill:#00BFB6;stroke:#3C4957;stroke-width:7.0979;stroke-linecap:round;stroke-linejoin:round;}
	.st32{fill:none;stroke:#3C4957;stroke-width:3.7352;stroke-linecap:round;stroke-linejoin:round;}
	.st33{fill:none;stroke:#3C4957;stroke-width:7;stroke-linecap:round;stroke-linejoin:round;}
	.st34{fill:none;stroke:#FDC53B;stroke-width:7;stroke-linecap:round;stroke-linejoin:round;}
	
		.st35{fill-rule:evenodd;clip-rule:evenodd;fill:#00BFB6;stroke:#3C4957;stroke-width:7;stroke-linecap:round;stroke-linejoin:round;}
	.st36{fill:#FFCB9B;stroke:#3C4957;stroke-width:7.0195;stroke-linecap:round;stroke-linejoin:round;}
	.st37{fill:none;stroke:#3C4957;stroke-width:7.0195;stroke-linecap:round;stroke-linejoin:round;}
	.st38{fill:#E8665C;}
	.st39{fill:#00BFB6;stroke:#3C4957;stroke-width:7;stroke-linecap:round;stroke-linejoin:round;}
</style>
<g id="Illustration_52_1_">
	<g>
		<path class="st33" d="M96.6,83.8c10.8,11.1,25.6,17.4,41.1,17.4c7.7,0,15.4-1.6,22.5-4.6"/>
		<circle class="st33" cx="126.2" cy="101.2" r="34.5"/>
		<path class="st33" d="M154.8,155.2c-17.6-10.1-39.2-10.1-56.8,0c-17.6,10.1-28.4,28.9-28.4,49.2v8.1h73"/>
		<line class="st33" x1="102" y1="153.3" x2="102" y2="180.2"/>
		<circle class="st33" cx="101.9" cy="188.4" r="8.1"/>
		<line class="st33" x1="126.6" y1="148" x2="126.6" y2="212.5"/>
		<line class="st33" x1="154.2" y1="155.6" x2="154.2" y2="167.9"/>
		<path class="st33" d="M158.9,168.8c-1.3-0.5-2.7-0.7-4.1-0.7c-6.7,0-12.2,5.4-12.2,12.2v16.1"/>
		<g id="Group_497_1_">
			<g id="Light_497_1_">
				<path id="Shape_2045_1_" class="st39" d="M226.4,190.3l-13.8,4.6v-5.8c0-4.9-4-8.9-8.9-8.9h-35.3c-4.9,0-8.9,4-8.9,8.9v35.3
					c0,4.9,4,8.9,8.9,8.9h35.3c4.9,0,8.9-4,8.9-8.9v-5.9l13.8,4.6c0.9,0.3,1.9,0.1,2.7-0.4c0.8-0.6,1.2-1.4,1.2-2.4v-27.2
					c0-0.9-0.5-1.8-1.2-2.4C228.3,190.1,227.3,190,226.4,190.3L226.4,190.3z"/>
			</g>
		</g>
	</g>
</g>
<g id="Round_4_">
	<g id="Group-2_4_">
		<path id="Path_15_" class="st0" d="M187.9,11.7c-0.3,0-0.6,0-0.8-0.1c-5-1.4-10-2.6-15.1-3.4c-1.1-0.2-1.9-0.9-2.3-2
			s-0.2-2.2,0.5-3.1s1.7-1.3,2.8-1.1c5.3,0.9,10.6,2.1,15.7,3.5c1.5,0.4,2.4,1.9,2.2,3.4C190.7,10.5,189.4,11.7,187.9,11.7
			L187.9,11.7z"/>
		<path id="Path_14_" class="st0" d="M150,300c-60.7,0-115.4-36.6-138.6-92.6S1,86.9,43.9,43.9C72,15.7,110.2-0.1,150,0
			c1.1,0,2,0.6,2.6,1.5c0.5,0.9,0.5,2,0,3c-0.5,0.9-1.5,1.5-2.6,1.5C91.7,5.9,39.2,41,16.9,94.9s-10,115.8,31.2,157
			c51.8,51.8,134.1,56.5,191.5,11S311,136.1,272.3,73.9c-13.8-22.2-33.4-40.2-56.6-52.1c-1.5-0.8-2-2.5-1.3-4c0.8-1.5,2.5-2,4-1.3
			C268.5,42.2,300,93.8,300,150C300,232.9,232.8,300,150,300L150,300z"/>
		<path id="Path_13_" class="st0" d="M206.5,13.6c0,2.2-1.8,3.9-3.9,3.9c-2.2,0-3.9-1.7-3.9-3.9c0-2.2,1.7-3.9,3.9-3.9
			c1,0,2,0.4,2.8,1.1C206.1,11.6,206.5,12.6,206.5,13.6z"/>
	</g>
</g>
</svg>
