<svg xmlns="http://www.w3.org/2000/svg" viewBox="0 0 369.9 369.9"><defs><style>.cls-1,.cls-4{fill:#263444;}.cls-2{fill:#fdc53b;}.cls-3{fill:#4fcfca;}.cls-4{stroke:#263444;stroke-miterlimit:10;stroke-width:9px;}</style></defs><title>Fichier 18</title><g id="Calque_2" data-name="Calque 2"><g id="Stroke"><path class="cls-1" d="M232.61,13.65a3.52,3.52,0,0,1-1-.13,177.34,177.34,0,0,0-18.41-4,3.66,3.66,0,1,1,1.16-7.23,183.66,183.66,0,0,1,19.17,4.13,3.66,3.66,0,0,1-1,7.19Z"/><path class="cls-1" d="M185,369.9A185,185,0,0,1,54.17,54.17,183.75,183.75,0,0,1,185,0a3.66,3.66,0,1,1,0,7.32A177.63,177.63,0,0,0,59.35,310.55,177.64,177.64,0,0,0,335.8,91.12,178.24,178.24,0,0,0,266,26.85a3.66,3.66,0,0,1,3.35-6.51A185,185,0,0,1,369.9,185,184.95,184.95,0,0,1,185,369.9Z"/><path class="cls-1" d="M255.06,15.67A4.66,4.66,0,1,1,250.4,11,4.66,4.66,0,0,1,255.06,15.67Z"/><path class="cls-2" d="M198.41,152.65h-96.9a26.92,26.92,0,0,0-26.92,26.92v69.08a26.91,26.91,0,0,0,26.92,26.91h29.15l-.41,0L150,295.3V275.56h48.44a26.91,26.91,0,0,0,26.91-26.91V179.57A26.91,26.91,0,0,0,198.41,152.65Z"/><path class="cls-1" d="M150,299.79a4.46,4.46,0,0,1-3.17-1.32l-18.43-18.42H101.51a31.43,31.43,0,0,1-31.4-31.4V179.57a31.44,31.44,0,0,1,31.4-31.41h45.31a4.49,4.49,0,0,1,0,9H101.51a22.45,22.45,0,0,0-22.43,22.43v69.08a22.45,22.45,0,0,0,22.43,22.43h29.15a4.48,4.48,0,0,1,4.11,2.69l10.71,10.71v-8.92a4.48,4.48,0,0,1,4.48-4.48h48.44a22.46,22.46,0,0,0,22.43-22.43v-31a4.49,4.49,0,1,1,9,0v31a31.44,31.44,0,0,1-31.4,31.4h-44v15.26a4.49,4.49,0,0,1-2.77,4.14A4.42,4.42,0,0,1,150,299.79Z"/><path class="cls-3" d="M234.59,74.59H223.23a60.72,60.72,0,0,0-60.71,60.72h0A60.72,60.72,0,0,0,223.23,196h11.36a60.48,60.48,0,0,0,17.85-2.68L271.08,212V183.84a60.63,60.63,0,0,0,24.22-48.53h0A60.72,60.72,0,0,0,234.59,74.59Z"/><path class="cls-1" d="M271.08,216.46a4.47,4.47,0,0,1-3.17-1.31l-16.77-16.76a65.32,65.32,0,0,1-16.55,2.12H223.23a65.2,65.2,0,1,1,0-130.4h11.36a65.28,65.28,0,0,1,65.2,65.2,64.5,64.5,0,0,1-7.09,29.58A65.79,65.79,0,0,1,275.56,186v26a4.47,4.47,0,0,1-4.48,4.48Zm-18.64-27.59a4.49,4.49,0,0,1,3.17,1.31l11,11V183.84a4.49,4.49,0,0,1,1.79-3.59A56.23,56.23,0,0,0,234.59,79.08H223.23a56.23,56.23,0,0,0,0,112.46h11.36a56.31,56.31,0,0,0,16.54-2.47A4.21,4.21,0,0,1,252.44,188.87Z"/><path class="cls-1" d="M193.47,218.14H98.82a4.49,4.49,0,1,1,0-9h94.65a4.49,4.49,0,1,1,0,9Z"/><path class="cls-1" d="M193.47,243.27a4.51,4.51,0,1,1,3.17-1.32A4.49,4.49,0,0,1,193.47,243.27Z"/><path class="cls-1" d="M175.83,243.27h-77a4.49,4.49,0,1,1,0-9h77a4.49,4.49,0,0,1,0,9Z"/><path class="cls-1" d="M164.31,193H98.82a4.49,4.49,0,1,1,0-9h65.49a4.49,4.49,0,1,1,0,9Z"/><path class="cls-4" d="M261.49,109.78a3,3,0,0,0-4.2.42l-43.75,53.5-20.39-20.39a3,3,0,0,0-4.22,4.22l22.72,22.72a3,3,0,0,0,2.11.88h.15a3,3,0,0,0,2.16-1.09l45.84-56A3,3,0,0,0,261.49,109.78Z"/></g></g></svg>