<svg xmlns="http://www.w3.org/2000/svg" id="Calque_1" x="0" y="0" version="1.1" viewBox="0 0 300 300" xml:space="preserve">
  <defs/>
  <style>.st0,.st8{stroke:#3c4957}.st0{stroke-miterlimit:10;fill:#3c4957;stroke-width:.8111}.st8{fill:none;stroke-width:5.0564;stroke-linecap:round;stroke-linejoin:round}</style>
  <g id="Stroke_12_">
    <path d="M188.6 11c-.2 0-.6 0-.8-.1-4.9-1.4-9.9-2.4-14.9-3.2-1.6-.2-2.8-1.8-2.4-3.4s1.8-2.8 3.4-2.4c5.3.8 10.5 1.9 15.6 3.3 1.5.4 2.5 2 2.1 3.6-.5 1.3-1.7 2.2-3 2.2z" class="st0"/>
    <path d="M150 300C67.1 300-.1 232.8 0 149.9c0-39.7 15.8-77.9 43.9-106S110.2-.1 150 0c1.6 0 3 1.3 3 3s-1.4 2.9-3 2.9C70.4 5.9 5.9 70.4 5.8 150c0 38.2 15.2 74.9 42.2 101.9 56.3 56.3 147.6 56.3 203.8 0 47.4-47.4 55.8-121.1 20.4-177.9-13.8-22.1-33.4-40.1-56.6-52.1-1.5-.7-2-2.5-1.3-4s2.5-2 4-1.3C268.5 42.2 300 93.8 300 150c0 82.8-67.2 150-150 150z" class="st0"/>
    <path d="M206.9 12.7c0 2.1-1.7 3.8-3.8 3.7-2.1 0-3.8-1.7-3.7-3.8 0-2.1 1.7-3.7 3.8-3.7 2 0 3.7 1.7 3.7 3.8z" class="st0"/>
  </g>
  <path fill="#fdc53b" stroke="#3c4957" stroke-linecap="round" stroke-linejoin="round" stroke-width="5.0564" d="M110.1 113c-32.1 0-58.2 21.5-58.2 48 .3 13.4 6.6 25.9 17.2 34.1L57 224.2l32.2-18.4c6.8 2.1 13.8 3.2 20.9 3.2 32.1 0 58.2-21.5 58.2-48s-26.1-48-58.2-48z"/>
  <path d="M82.3 143.3h40.5M82.3 158.5h55.6M82.3 173.6h55.6" class="st8"/>
  <g>
    <path fill="#00bfb6" stroke="#3c4957" stroke-linecap="round" stroke-linejoin="round" stroke-width="5.4519" d="M248.1 87.8c0-3-2.4-5.5-5.5-5.5H128.1c-3 0-5.5 2.4-5.5 5.5v70.9c0 3 2.4 5.5 5.5 5.5h81.8l21.8 21.8v-21.8h10.9c3 0 5.5-2.4 5.5-5.5V87.8z"/>
    <path fill="#3c4957" stroke="#3c4957" stroke-linecap="round" stroke-linejoin="round" stroke-width="2.2224" d="M160.6 127.4c-1 1-1 2.7 0 3.8h0l12.9 12.9c1 1 2.7 1 3.8 0l32.9-32.9c1-1 1-2.7 0-3.8h0l-5.1-5.1c-1-1-2.7-1-3.8 0h0l-25.9 25.9-5.9-5.9c-1-1-2.7-1-3.8 0h0l-5.1 5.1z"/>
  </g>
</svg>
