<svg xmlns="http://www.w3.org/2000/svg" viewBox="0 0 369.9 369.9"><defs><style>.cls-1{fill:#263444;}.cls-2{fill:#fdc53b;}.cls-3{fill:#80c2df;}.cls-4{fill:#00bfb6;}.cls-5{fill:#fff;}</style></defs><title>Fichier 6</title><g id="Calque_2" data-name="Calque 2"><g id="Stroke"><path class="cls-1" d="M232.61,13.65a3.52,3.52,0,0,1-1-.13,177.34,177.34,0,0,0-18.41-4,3.66,3.66,0,1,1,1.16-7.23,183.66,183.66,0,0,1,19.17,4.13,3.66,3.66,0,0,1-1,7.19Z"/><path class="cls-1" d="M185,369.9A185,185,0,0,1,54.17,54.17,183.75,183.75,0,0,1,185,0a3.66,3.66,0,1,1,0,7.32A177.63,177.63,0,0,0,59.35,310.55,177.64,177.64,0,0,0,335.8,91.12,178.24,178.24,0,0,0,266,26.85a3.66,3.66,0,0,1,3.35-6.51A185,185,0,0,1,369.9,185,184.95,184.95,0,0,1,185,369.9Z"/><path class="cls-1" d="M255.06,15.67A4.66,4.66,0,1,1,250.4,11,4.66,4.66,0,0,1,255.06,15.67Z"/><path class="cls-2" d="M183.24,70.22h.91A51,51,0,0,1,226.89,149l-40.4,62.16a3.45,3.45,0,0,1-5.59,0L140.5,149a51,51,0,0,1,42.74-78.75Z"/><path class="cls-3" d="M144.8,291.08a45.34,45.34,0,0,0,19.62-37.36,21.54,21.54,0,0,0-9.62-18l-1.21-.81a13.67,13.67,0,0,1-3.79-19,21.48,21.48,0,0,0,.78-22.68L144.69,183a19.68,19.68,0,0,0-35.37,2.46,11.71,11.71,0,0,1-10.93,7.4H90a94.9,94.9,0,0,1,35.55-62.77,58.76,58.76,0,0,0,8.82,23.19l40.4,62.16a11.26,11.26,0,0,0,18.86,0L234,153.28a58.61,58.61,0,0,0,8.82-23.19A95.47,95.47,0,0,1,255.41,142v16a17.69,17.69,0,0,1-15.48,17.53,18.46,18.46,0,0,0-9.24,32.74l3.82,3.05a19,19,0,0,1-2.09,31.12,46.67,46.67,0,0,0-17.77,19.2L208.92,273A47,47,0,0,0,204,294v3.63a94.8,94.8,0,0,1-59.18-6.51Z"/><path class="cls-4" d="M90,205.2c0-1.33.07-2.64.12-4h9a19.58,19.58,0,0,0,18.28-12.38,11.78,11.78,0,0,1,21.16-1.46l5.88,10.3a13.6,13.6,0,0,1-.49,14.37A21.61,21.61,0,0,0,150,242l1.21.81a13.63,13.63,0,0,1,6.1,11.37,37.49,37.49,0,0,1-16.73,31.25l-3,2A95,95,0,0,1,90,205.2Z"/><path class="cls-4" d="M212.64,296v-1.58a39.06,39.06,0,0,1,4.1-17.38l5.73-11.46a38.93,38.93,0,0,1,14.76-15.95,26.9,26.9,0,0,0,3-44.08l-3.82-3.05a10.55,10.55,0,0,1,5.28-18.71,25.62,25.62,0,0,0,22.41-25.38v-5.64A94.89,94.89,0,0,1,212.64,296Z"/><path class="cls-1" d="M185,157.26a35.61,35.61,0,1,0-35.61-35.61A35.65,35.65,0,0,0,185,157.26ZM185,94a27.69,27.69,0,1,1-27.69,27.69A27.72,27.72,0,0,1,185,94Z"/><path class="cls-1" d="M244.27,120.74a58.94,58.94,0,0,0-58.86-58.43h-.92a58.94,58.94,0,0,0-58.86,58.43,102.86,102.86,0,1,0,118.64,0ZM184.49,70.22h.91A51,51,0,0,1,228.14,149l-40.39,62.16a3.45,3.45,0,0,1-5.59,0L141.76,149a51,51,0,0,1,42.73-78.75ZM90,204.73c0-1.33.07-2.64.12-4h9a19.58,19.58,0,0,0,18.28-12.38,11.78,11.78,0,0,1,21.16-1.46l5.88,10.3A13.6,13.6,0,0,1,144,211.6a21.61,21.61,0,0,0,6,29.94l1.21.81a13.63,13.63,0,0,1,6.1,11.37A37.49,37.49,0,0,1,140.53,285l-3,2A95,95,0,0,1,90,204.73Zm55.55,86.35a45.34,45.34,0,0,0,19.62-37.36,21.56,21.56,0,0,0-9.62-18l-1.21-.81a13.67,13.67,0,0,1-3.79-19,21.48,21.48,0,0,0,.78-22.68L145.44,183a19.69,19.69,0,0,0-35.38,2.46,11.69,11.69,0,0,1-10.93,7.4H90.75a94.92,94.92,0,0,1,35.54-62.77,58.77,58.77,0,0,0,8.83,23.19l40.4,62.16a11.25,11.25,0,0,0,18.85,0l40.41-62.16a58.76,58.76,0,0,0,8.82-23.19A96.1,96.1,0,0,1,256.16,142v16a17.7,17.7,0,0,1-15.48,17.53,18.46,18.46,0,0,0-9.24,32.74l3.82,3.05a19,19,0,0,1-2.1,31.12,46.8,46.8,0,0,0-17.77,19.2L209.67,273A47,47,0,0,0,204.73,294v3.63a94.8,94.8,0,0,1-59.18-6.51Zm67.09,4.46V294a39.06,39.06,0,0,1,4.1-17.38l5.73-11.46a38.93,38.93,0,0,1,14.76-16,26.9,26.9,0,0,0,3-44.08L236.38,202a10.55,10.55,0,0,1,5.28-18.71A25.62,25.62,0,0,0,264.07,158v-5.64a94.89,94.89,0,0,1-51.43,143.23Z"/><path class="cls-1" d="M256.16,192.86h7.91v7.91h-7.91Z"/><path class="cls-1" d="M125.61,200.77h7.91v7.91h-7.91Z"/><path class="cls-1" d="M109.78,240.33h7.91v7.92h-7.91Z"/><path class="cls-1" d="M232.42,264.07h7.91V272h-7.91Z"/><path class="cls-1" d="M137.48,260.11h7.91V268h-7.91Z"/><circle class="cls-5" cx="184.68" cy="121.65" r="26.99"/></g></g></svg>