<svg xmlns="http://www.w3.org/2000/svg" viewBox="0 0 369.9 369.9"><defs><style>.cls-1{fill:#4fcfca;}.cls-2{fill:#e8edee;}.cls-3{fill:#e8665c;}.cls-4{fill:#263444;}.cls-5{fill:#fdc53b;}.cls-6{fill:#fff;}</style></defs><title>Fichier 15</title><g id="Calque_2" data-name="Calque 2"><g id="Stroke"><rect class="cls-1" x="117.57" y="128.8" width="172.18" height="138.49"/><path class="cls-2" d="M128.43,188.71c-1.76-4.93-3.11-15.37-18.34-15s-13,14.11-13,14.11Z"/><path class="cls-2" d="M135.52,188.71c1.75-4.93,3.1-15.37,18.34-15s13,14.11,13,14.11Z"/><rect class="cls-3" x="83.08" y="222.98" width="97.55" height="72.69" rx="12"/><rect class="cls-2" x="120" y="220.31" width="19.51" height="75.38"/><path class="cls-4" d="M232.61,13.65a3.52,3.52,0,0,1-1-.13,177.34,177.34,0,0,0-18.41-4,3.66,3.66,0,1,1,1.16-7.23,183.66,183.66,0,0,1,19.17,4.13,3.66,3.66,0,0,1-1,7.19Z"/><path class="cls-4" d="M185,369.9A185,185,0,0,1,54.17,54.17,183.75,183.75,0,0,1,185,0a3.66,3.66,0,1,1,0,7.32A177.63,177.63,0,0,0,59.35,310.55,177.64,177.64,0,0,0,335.8,91.12,178.24,178.24,0,0,0,266,26.85a3.66,3.66,0,0,1,3.35-6.51A185,185,0,0,1,369.9,185,184.95,184.95,0,0,1,185,369.9Z"/><path class="cls-4" d="M255.06,15.67A4.66,4.66,0,1,1,250.4,11,4.66,4.66,0,0,1,255.06,15.67Z"/><rect class="cls-2" x="72.66" y="199.93" width="119.78" height="22.45" rx="10.12"/><path class="cls-4" d="M185,147.52V170h15v56.14h22.46v-78.6Zm29.94,71.12h-7.48V162.49h-15V155h22.46Z"/><path class="cls-4" d="M252.32,80.14a3.75,3.75,0,0,1,7.49,0V102.6a3.75,3.75,0,0,1-7.49,0Zm-104.8,0a3.74,3.74,0,0,1,7.48,0V102.6a3.74,3.74,0,0,1-7.48,0Zm-22.46,15h15v7.48a11.23,11.23,0,0,0,22.46,0V95.12h82.35v7.48a11.23,11.23,0,0,0,22.46,0V95.12h15a7.48,7.48,0,0,1,7.48,7.48v18.72H117.57V102.6A7.49,7.49,0,0,1,125.06,95.12Zm-15,78.6a18.75,18.75,0,0,1,18.34,15,26.22,26.22,0,0,0-18.34-7.5A18.71,18.71,0,0,0,98.86,185v0A11.25,11.25,0,0,1,110.09,173.72ZM155,196.18H140a18.77,18.77,0,0,1,15-7.49,11.3,11.3,0,0,1,8.37,3.74A11.21,11.21,0,0,1,155,196.18ZM166.23,185A18.69,18.69,0,0,0,155,181.21a26.22,26.22,0,0,0-18.34,7.5,18.75,18.75,0,0,1,18.34-15A11.25,11.25,0,0,1,166.23,185Zm-64.51,7.46a11.3,11.3,0,0,1,8.37-3.74,18.76,18.76,0,0,1,15,7.49h-15A11.21,11.21,0,0,1,101.72,192.43ZM80.14,203.66H185v15H80.14Zm7.49,89.84V226.12h29.94V293.5Zm59.89,0V241.09H140V293.5h-15V226.12h15v7.49h7.49v-7.49h29.94V293.5ZM185,226.12h7.48V196.18H170a18.71,18.71,0,0,0-15-30A26.19,26.19,0,0,0,132.55,179a26.33,26.33,0,0,0-15-11.63V128.8H289.75v93.58H244.84V267.3H185Zm99.52,3.74L252.32,262V229.86ZM257.63,267.3l32.12-32.13V267.3Zm39.61-164.7a15,15,0,0,0-15-15h-15V80.14a11.23,11.23,0,0,0-22.46,0v7.49H162.49V80.14a11.23,11.23,0,0,0-22.46,0v7.49h-15a15,15,0,0,0-15,15v63.63a18.7,18.7,0,0,0-15,30H72.66v29.94h7.48V301H185v-26.2H297.24Z"/><path class="cls-5" d="M214.89,218.64h-7.48V162.49h-15V155h22.46Z"/><polygon class="cls-6" points="252.32 229.87 284.47 229.87 252.32 262.02 252.32 229.87"/></g></g></svg>