<svg xmlns="http://www.w3.org/2000/svg" viewBox="0 0 370.8 370.9"><defs><style>.cls-1{fill:#3c4957;}.cls-1,.cls-4{stroke:#3c4957;}.cls-1,.cls-2,.cls-3,.cls-4{stroke-miterlimit:10;}.cls-2{fill:#00bfb6;stroke:#00bfb6;}.cls-2,.cls-3{stroke-width:6.8px;}.cls-3{fill:#fdc53b;stroke:#fdc53b;}.cls-4{fill:none;stroke-width:6px;}</style></defs><title>Fichier 76</title><g id="Calque_2" data-name="Calque 2"><g id="Calque_1-2" data-name="Calque 1"><g id="Stroke"><path class="cls-1" d="M233,14.1a3.4,3.4,0,0,1-1-.1,167.71,167.71,0,0,0-18.4-4,3.57,3.57,0,0,1-3-4.2,3.62,3.62,0,0,1,4.2-3A177,177,0,0,1,234,6.9a3.71,3.71,0,0,1,2.6,4.5,3.84,3.84,0,0,1-3.6,2.7Z"/><path class="cls-1" d="M185.4,370.4C83.2,370.4.4,287.5.5,185.3A184.71,184.71,0,0,1,185.4.5a3.69,3.69,0,0,1,3.7,3.7,3.61,3.61,0,0,1-3.7,3.6C87.3,7.8,7.8,87.3,7.7,185.4A177.64,177.64,0,0,0,59.7,311c69.4,69.4,181.9,69.4,251.2,0A177.71,177.71,0,0,0,266.3,27.3a3.64,3.64,0,0,1,3.3-6.5h0A185,185,0,0,1,370.3,185.5C370.3,287.6,287.5,370.4,185.4,370.4Z"/><path class="cls-1" d="M255.5,16.2a4.65,4.65,0,0,1-9.3-.1,4.61,4.61,0,0,1,4.7-4.6,4.67,4.67,0,0,1,4.6,4.7Z"/></g><path class="cls-2" d="M173.49,142.38a4.66,4.66,0,1,0-6,7.17,46.67,46.67,0,1,1-34-10.56,4.67,4.67,0,1,0-.84-9.3A56,56,0,0,0,102,228.52a55.73,55.73,0,0,0,26.44,12.11v28.79h-14a4.67,4.67,0,1,0,0,9.33h14v14a4.67,4.67,0,0,0,9.33,0v-14h14a4.67,4.67,0,0,0,0-9.33h-14v-28a56,56,0,0,0,35.75-99Z"/><path class="cls-3" d="M286.93,77.24a2.72,2.72,0,0,0-.11-.38,4.58,4.58,0,0,0-.15-.49,3.55,3.55,0,0,0-.23-.43,3.35,3.35,0,0,0-.2-.37,4,4,0,0,0-.58-.71h0a5.7,5.7,0,0,0-.71-.59l-.36-.19a4.64,4.64,0,0,0-.44-.23,3.68,3.68,0,0,0-.47-.15,4,4,0,0,0-.41-.12,4.91,4.91,0,0,0-.85-.09H245a4.67,4.67,0,0,0,0,9.33H271.1l-41.25,41.24-.54-.47A56,56,0,0,0,158.1,210a4.67,4.67,0,0,0,5.94-7.2A46.65,46.65,0,1,1,198,213.24a4.67,4.67,0,0,0,.43,9.32l.43,0a56.34,56.34,0,0,0,38.08-20.15,56,56,0,0,0-.44-71.74L277.7,89.42v26.05a4.67,4.67,0,1,0,9.33,0V78.16A4.71,4.71,0,0,0,286.93,77.24Z"/><path class="cls-4" d="M134.08,300.81a8.07,8.07,0,0,1-8.06-8.06v-10.6h-10.6a8.07,8.07,0,0,1,0-16.13H126V243.44a59.38,59.38,0,0,1,7.33-117.13,8.06,8.06,0,0,1,1.46,16.06,43.26,43.26,0,1,0,31.55,9.8,8.06,8.06,0,0,1,10.3-12.41h0A59.35,59.35,0,0,1,142.14,244.7V266h10.6a8.07,8.07,0,0,1,0,16.13h-10.6v10.6A8.07,8.07,0,0,1,134.08,300.81Z"/><path class="cls-4" d="M199.38,226a8.06,8.06,0,0,1-.73-16.09,43.55,43.55,0,0,0,29.43-15.56,43.23,43.23,0,1,0-60.88,5.86,8.07,8.07,0,0,1-10.26,12.45,59.38,59.38,0,0,1,73.67-93.11l33.28-33.28H246a8.07,8.07,0,0,1,0-16.13h37.64a8.88,8.88,0,0,1,1.25.15,6.75,6.75,0,0,1,.68.18l.11,0,.72.24a7.86,7.86,0,0,1,.71.36l.09,0a6.08,6.08,0,0,1,.6.34,7.83,7.83,0,0,1,1.22,1,7.46,7.46,0,0,1,1,1.23,4.16,4.16,0,0,1,.35.61l0,.09a5.45,5.45,0,0,1,.35.68c.1.27.18.52.26.78a7.21,7.21,0,0,1,.19.72h0a8.56,8.56,0,0,1,.15,1.59v37.31a8.06,8.06,0,1,1-16.12,0V97.62L242,130.9a59.4,59.4,0,0,1-1.49,73.65,59.77,59.77,0,0,1-40.4,21.37Z"/></g></g></svg>