<svg xmlns="http://www.w3.org/2000/svg" viewBox="0 0 369.9 369.9"><defs><style>.cls-1{fill:#263444;}.cls-2{fill:#4fcfca;}.cls-3{fill:#fdc53b;}</style></defs><title>Fichier 21</title><g id="Calque_2" data-name="Calque 2"><g id="Stroke"><path class="cls-1" d="M232.61,13.65a3.52,3.52,0,0,1-1-.13,177.34,177.34,0,0,0-18.41-4,3.66,3.66,0,1,1,1.16-7.23,183.66,183.66,0,0,1,19.17,4.13,3.66,3.66,0,0,1-1,7.19Z"/><path class="cls-1" d="M185,369.9A185,185,0,0,1,54.17,54.17,183.75,183.75,0,0,1,185,0a3.66,3.66,0,1,1,0,7.32A177.63,177.63,0,0,0,59.35,310.55,177.64,177.64,0,0,0,335.8,91.12,178.24,178.24,0,0,0,266,26.85a3.66,3.66,0,0,1,3.35-6.51A185,185,0,0,1,369.9,185,184.95,184.95,0,0,1,185,369.9Z"/><path class="cls-1" d="M255.06,15.67A4.66,4.66,0,1,1,250.4,11,4.66,4.66,0,0,1,255.06,15.67Z"/><path class="cls-2" d="M143.27,117.68a63,63,0,0,0-9,125.31v27.63h-18v18h18v18h18v-18h18v-18h-18V243a63,63,0,0,0-9-125.31Zm0,108a45,45,0,1,1,45-45A44.91,44.91,0,0,1,143.27,225.63Z"/><path class="cls-3" d="M301.6,85.3l-6.36,44.53L282.52,117.1,263,136.64a63,63,0,0,1-80.33,93.16A63.2,63.2,0,0,0,195.42,216h0a45,45,0,1,0-7.23-79.43,63.2,63.2,0,0,0-15-11.27c17.16-13.24,48.51-22.72,77-1.33l19.53-19.54L257.07,91.66Z"/><path class="cls-3" d="M160.38,139.05a45.27,45.27,0,0,1,14.93,10.06,45.05,45.05,0,0,0,5.17,56.79h0a45.59,45.59,0,0,1-12.89,12.57l0,0A63,63,0,0,1,160.38,139.05Z"/><path class="cls-1" d="M98.52,185.15a4.5,4.5,0,1,0-4.73-4.5A4.51,4.51,0,0,0,98.52,185.15Z"/><path class="cls-1" d="M192.75,180.65a49.55,49.55,0,0,0-49.48-49.48c-19.81,0-36.81,11.2-45.47,30A4.5,4.5,0,1,0,106,164.9c7.15-15.48,21.09-24.73,37.3-24.73a40.32,40.32,0,0,1,10.32,1.33,67.72,67.72,0,0,0,6.88,75.77A40.4,40.4,0,0,1,106,196.53,4.5,4.5,0,1,0,97.75,200a49.48,49.48,0,0,0,95-19.39ZM179.8,198.14A40.66,40.66,0,0,1,176,156.89a40.25,40.25,0,0,1,7.73,23.76A41,41,0,0,1,179.8,198.14Zm-11.56,14.38a58.63,58.63,0,0,1-6.17-67.71,40.43,40.43,0,0,1,7.47,5.07,49.63,49.63,0,0,0,5.15,56.31A39.82,39.82,0,0,1,168.24,212.52Z"/><path class="cls-1" d="M306.05,85.93A4.5,4.5,0,0,0,301,80.84L256.43,87.2a4.5,4.5,0,0,0-2.54,7.64l9.54,9.54-13.67,13.67c-24.81-16.61-54.63-13.8-77,1.94a67.47,67.47,0,1,0-43,126.78v19.35h-13.5a4.5,4.5,0,0,0-4.5,4.5v18a4.51,4.51,0,0,0,4.5,4.5h13.5V306.6a4.5,4.5,0,0,0,4.49,4.5h18a4.5,4.5,0,0,0,4.49-4.5V293.11h13.5a4.51,4.51,0,0,0,4.5-4.5v-18a4.5,4.5,0,0,0-4.5-4.5h-13.5V246.77a67.21,67.21,0,0,0,26.37-11.68,67.49,67.49,0,0,0,85.71-98l13.68-13.68,9.54,9.55a4.49,4.49,0,0,0,7.63-2.55ZM151.63,238.54a4.49,4.49,0,0,0-3.86,4.45v27.63a4.49,4.49,0,0,0,4.5,4.49h13.49v9H152.27a4.49,4.49,0,0,0-4.5,4.5V302.1h-9V288.61a4.49,4.49,0,0,0-4.5-4.5H120.78v-9h13.49a4.49,4.49,0,0,0,4.5-4.49V243a4.48,4.48,0,0,0-3.86-4.45,58.48,58.48,0,1,1,16.72,0Zm43.69-100.82a40.48,40.48,0,1,1,6.89,75.77,67.47,67.47,0,0,0-6.89-75.77Zm96.74-17.43-6.36-6.37a4.51,4.51,0,0,0-6.37,0L259.8,133.46a4.51,4.51,0,0,0-.42,5.88,58.48,58.48,0,0,1-68.66,89.27,66.41,66.41,0,0,0,6.35-7.26,49.48,49.48,0,1,0-8.21-90.43,68.3,68.3,0,0,0-7.39-5.88c17-10.45,42.6-15.14,66.09,2.48a4.51,4.51,0,0,0,5.88-.42L273,107.56a4.49,4.49,0,0,0,0-6.36l-6.36-6.36L296.3,90.6Z"/></g></g></svg>