<svg xmlns="http://www.w3.org/2000/svg" viewBox="0 0 369.9 369.9"><defs><style>.cls-1{fill:#263444;}.cls-2{fill:#4fcfca;}.cls-3{fill:#fdc53b;}</style></defs><title>Fichier 16</title><g id="Calque_2" data-name="Calque 2"><g id="Stroke"><path class="cls-1" d="M232.61,13.65a3.52,3.52,0,0,1-1-.13,177.34,177.34,0,0,0-18.41-4,3.66,3.66,0,1,1,1.16-7.23,183.66,183.66,0,0,1,19.17,4.13,3.66,3.66,0,0,1-1,7.19Z"/><path class="cls-1" d="M185,369.9A185,185,0,0,1,54.17,54.17,183.75,183.75,0,0,1,185,0a3.66,3.66,0,1,1,0,7.32A177.63,177.63,0,0,0,59.35,310.55,177.64,177.64,0,0,0,335.8,91.12,178.24,178.24,0,0,0,266,26.85a3.66,3.66,0,0,1,3.35-6.51A185,185,0,0,1,369.9,185,184.95,184.95,0,0,1,185,369.9Z"/><path class="cls-1" d="M255.06,15.67A4.66,4.66,0,1,1,250.4,11,4.66,4.66,0,0,1,255.06,15.67Z"/><rect class="cls-2" x="81.79" y="75.71" width="49.73" height="213.15"/><path class="cls-1" d="M80.91,74.82V295.07h56.83V74.82Zm49.73,42.63h-7.11v7.11h7.11v14.21H116.43v7.1h14.21v14.21h-7.11v7.11h7.11V181.4H116.43v7.1h14.21v14.21h-7.11v7.11h7.11V224H116.43v7.1h14.21v14.21h-7.11v7.1h7.11v14.21H116.43v7.11h14.21V288H88v-206h42.63Z"/><path class="cls-1" d="M109.32,113.9a10.66,10.66,0,1,0-10.65-10.66A10.67,10.67,0,0,0,109.32,113.9Zm0-14.21a3.56,3.56,0,1,1-3.55,3.55A3.57,3.57,0,0,1,109.32,99.69Z"/><path class="cls-3" d="M251.2,145.53a34.62,34.62,0,0,0-34.63,34.64v22a12.58,12.58,0,0,0,12.59,12.59h3.15v66.13a9.45,9.45,0,1,0,18.89,0,9.45,9.45,0,0,0,18.9,0V214.8h3.15a12.58,12.58,0,0,0,12.59-12.59v-22A34.62,34.62,0,0,0,251.2,145.53Z"/><circle class="cls-3" cx="251.2" cy="123.49" r="22.04"/><path d="M275.58,152.89a37.67,37.67,0,0,0-11.08-6.5,25.2,25.2,0,1,0-26.59,0,37.81,37.81,0,0,0-24.49,35.32v22a15.76,15.76,0,0,0,15.74,15.74v63a12.61,12.61,0,0,0,12.6,12.59,12.48,12.48,0,0,0,9.44-4.35,12.55,12.55,0,0,0,22.05-8.24v-63A15.76,15.76,0,0,0,289,203.76v-22a37.59,37.59,0,0,0-9-24.37M232.31,125a18.9,18.9,0,1,1,18.89,18.9A18.91,18.91,0,0,1,232.31,125Zm50.38,78.73a9.46,9.46,0,0,1-9.44,9.44V172.27H267V282.48a6.3,6.3,0,1,1-12.6,0V206.9h-6.29v75.58a6.3,6.3,0,1,1-12.6,0V172.27h-6.3V213.2a9.45,9.45,0,0,1-9.44-9.44v-22a31.49,31.49,0,1,1,63,0Z"/><path class="cls-1" d="M164.73,230.62h8V174.74H164l12.75-20.4,12.75,20.4h-8.76v23.95h8v-16h15.19L176.7,139.27l-27.16,43.46h15.19Z"/><path class="cls-1" d="M180.69,206.67h8v8h-8Z"/><path class="cls-1" d="M180.69,222.64h8v8h-8Z"/></g></g></svg>