<?xml version="1.0" encoding="utf-8"?>
<!-- Generator: Adobe Illustrator 24.1.0, SVG Export Plug-In . SVG Version: 6.00 Build 0)  -->
<svg version="1.1" id="Calque_1" xmlns="http://www.w3.org/2000/svg" xmlns:xlink="http://www.w3.org/1999/xlink" x="0px" y="0px"
	 viewBox="0 0 300 300" style="enable-background:new 0 0 300 300;" xml:space="preserve">
<style type="text/css">
	.st0{fill:#3C4957;stroke:#3C4957;stroke-width:0.8111;stroke-miterlimit:10;}
	.st1{fill:#FFCB9B;}
	.st2{fill:none;stroke:#3C4957;stroke-width:8.0274;stroke-linecap:round;stroke-linejoin:round;}
	.st3{fill:#00BFB6;stroke:#3C4957;stroke-width:8.0274;stroke-linecap:round;stroke-linejoin:round;}
	.st4{fill:#00BFB6;}
	.st5{fill:#FDC53B;stroke:#3C4957;stroke-width:7.7049;stroke-linecap:round;stroke-linejoin:round;}
	.st6{fill:none;stroke:#3C4957;stroke-width:7.7049;stroke-linecap:round;stroke-linejoin:round;}
	.st7{fill:#FDC53B;stroke:#3C4957;stroke-width:5.0564;stroke-linecap:round;stroke-linejoin:round;}
	.st8{fill:none;stroke:#3C4957;stroke-width:5.0564;stroke-linecap:round;stroke-linejoin:round;}
	.st9{fill:#00BFB6;stroke:#3C4957;stroke-width:5.4519;stroke-linecap:round;stroke-linejoin:round;}
	.st10{fill:#3C4957;stroke:#3C4957;stroke-width:2.2224;stroke-linecap:round;stroke-linejoin:round;}
	.st11{fill:#6CCFEA;stroke:#3C4957;stroke-width:6.6722;stroke-linecap:round;stroke-linejoin:round;}
	.st12{fill:none;stroke:#3C4957;stroke-width:6.6722;stroke-linecap:round;stroke-linejoin:round;}
	.st13{fill:#FDC53B;stroke:#3C4957;stroke-width:4.4412;stroke-linecap:round;stroke-linejoin:round;}
	.st14{fill:#FFFFFF;stroke:#3C4957;stroke-width:4.4412;stroke-linecap:round;stroke-linejoin:round;}
	.st15{fill:#00BFB6;stroke:#3C4957;stroke-width:7.4293;stroke-linecap:round;stroke-linejoin:round;}
	.st16{fill:#FDC53B;stroke:#3C4957;stroke-width:7.4293;stroke-linecap:round;stroke-linejoin:round;}
	.st17{fill:none;stroke:#3C4957;stroke-width:7.4293;stroke-linecap:round;stroke-linejoin:round;}
	.st18{fill:#3C4957;stroke:#3C4957;stroke-width:7.4293;stroke-linecap:round;stroke-linejoin:round;}
	.st19{fill:none;stroke:#3C4957;stroke-width:7.0979;stroke-linecap:round;stroke-linejoin:round;}
	
		.st20{fill-rule:evenodd;clip-rule:evenodd;fill:none;stroke:#3C4957;stroke-width:7.0979;stroke-linecap:round;stroke-linejoin:round;}
	.st21{fill-rule:evenodd;clip-rule:evenodd;fill:#FDC53B;}
	.st22{fill:#FFC20E;stroke:#3C4957;stroke-width:7.0979;stroke-linecap:round;stroke-linejoin:round;}
	
		.st23{fill-rule:evenodd;clip-rule:evenodd;fill:#FFC20E;stroke:#3C4957;stroke-width:7.0979;stroke-linecap:round;stroke-linejoin:round;}
	.st24{fill:#00BFB6;stroke:#3C4957;stroke-width:7.323;stroke-linecap:round;stroke-linejoin:round;}
	.st25{fill:#FDC53B;stroke:#3C4957;stroke-width:7.323;stroke-linecap:round;stroke-linejoin:round;}
	.st26{fill:none;stroke:#3C4957;stroke-width:7.323;stroke-linecap:round;stroke-linejoin:round;}
	.st27{fill:#FFFFFF;stroke:#3C4957;stroke-width:7.323;stroke-linecap:round;stroke-linejoin:round;}
	
		.st28{fill-rule:evenodd;clip-rule:evenodd;fill:#00BFB6;stroke:#3C4957;stroke-width:7.0979;stroke-linecap:round;stroke-linejoin:round;}
	.st29{fill:none;stroke:#FDC53B;stroke-width:6;stroke-linecap:round;stroke-linejoin:round;}
	.st30{fill:#FDC53B;stroke:#3C4957;stroke-width:5.6348;stroke-linecap:round;stroke-linejoin:round;}
	.st31{fill:#00BFB6;stroke:#3C4957;stroke-width:7.0979;stroke-linecap:round;stroke-linejoin:round;}
	.st32{fill:none;stroke:#3C4957;stroke-width:3.7352;stroke-linecap:round;stroke-linejoin:round;}
	.st33{fill:none;stroke:#3C4957;stroke-width:7;stroke-linecap:round;stroke-linejoin:round;}
	.st34{fill:none;stroke:#FDC53B;stroke-width:7;stroke-linecap:round;stroke-linejoin:round;}
	
		.st35{fill-rule:evenodd;clip-rule:evenodd;fill:#00BFB6;stroke:#3C4957;stroke-width:7;stroke-linecap:round;stroke-linejoin:round;}
	.st36{fill:#FFCB9B;stroke:#3C4957;stroke-width:7.0195;stroke-linecap:round;stroke-linejoin:round;}
	.st37{fill:none;stroke:#3C4957;stroke-width:7.0195;stroke-linecap:round;stroke-linejoin:round;}
	.st38{fill:#E8665C;}
	.st39{fill:#00BFB6;stroke:#3C4957;stroke-width:7;stroke-linecap:round;stroke-linejoin:round;}
</style>
<g id="Round">
	<g id="Group-2">
		<path id="Path" class="st0" d="M187.8,13.3c-0.3,0-0.6,0-0.8-0.1c-5-1.4-10-2.6-15.1-3.4c-1.1-0.2-1.9-0.9-2.3-2s-0.2-2.2,0.5-3.1
			c0.7-0.9,1.7-1.3,2.8-1.1c5.3,0.9,10.6,2.1,15.7,3.5c1.5,0.4,2.4,1.9,2.2,3.4C190.5,12.1,189.3,13.2,187.8,13.3L187.8,13.3z"/>
		<path id="Path_1_" class="st0" d="M149.9,301.6C89.2,301.5,34.5,265,11.3,209S0.9,88.4,43.8,45.5C71.8,17.3,110.1,1.5,149.9,1.6
			c1.1,0,2,0.6,2.6,1.5c0.5,0.9,0.5,2,0,3c-0.5,0.9-1.5,1.5-2.6,1.5C91.6,7.5,39,42.6,16.7,96.4s-10,115.8,31.2,157
			c51.8,51.8,134.1,56.5,191.5,11s71.4-126.8,32.8-188.9c-13.8-22.2-33.4-40.2-56.6-52.1c-1.5-0.8-2-2.5-1.3-4c0.8-1.5,2.5-2,4-1.3
			c50.1,25.7,81.6,77.3,81.6,133.5C299.8,234.4,232.7,301.5,149.9,301.6L149.9,301.6z"/>
		<path id="Path_2_" class="st0" d="M206.4,15.2c0,2.2-1.8,3.9-3.9,3.9c-2.2,0-3.9-1.7-3.9-3.9c0-2.2,1.7-3.9,3.9-3.9
			c1,0,2,0.4,2.8,1.1C206,13.2,206.4,14.2,206.4,15.2z"/>
	</g>
</g>
<g id="Group" transform="translate(31.111111, 24.444444)">
	<g id="hourglass">
		<path id="Shape" class="st19" d="M161.4,82.1c0,22.2-19.1,40.2-42.6,40.2s-42.6-18-42.6-40.2v-31h85.3V82.1z"/>
		<polyline id="Path_3_" class="st20" points="76.1,168.8 76.1,193.6 161.4,193.6 161.4,168.8 		"/>
		<path id="Shape_1_" class="st19" d="M161.4,162.6c0-22.2-19.1-40.2-42.6-40.2s-42.6,18-42.6,40.2v31h85.3V162.6z"/>
		<line id="Shape_2_" class="st19" x1="63" y1="51.2" x2="174.5" y2="51.2"/>
		<path id="Path-2" class="st21" d="M88.8,106.9c9.7,8.9,19.7,13.3,30,13.3s20.3-4.4,30-13.3"/>
		<line id="Shape_3_" class="st22" x1="63" y1="194.6" x2="174.5" y2="194.6"/>
		<polygon id="Shape_4_" class="st23" points="161.4,193.1 76.4,194.1 76.1,168.8 99.1,168.8 118.8,150.2 138.4,168.8 161.4,168.8 
					"/>
		<line id="Shape_5_" class="st19" x1="85.3" y1="106.9" x2="152.2" y2="106.9"/>
	</g>
</g>
</svg>
