<svg xmlns="http://www.w3.org/2000/svg" id="Calque_1" x="0" y="0" version="1.1" viewBox="0 0 300 300" xml:space="preserve">
  <defs/>
  <style>.st0{fill:#3c4957;stroke:#3c4957;stroke-width:.8111;stroke-miterlimit:10}.st4{fill:#00bfb6}.st12{fill:none;stroke:#3c4957;stroke-width:6.6722;stroke-linecap:round;stroke-linejoin:round}</style>
  <g id="Stroke_14_">
    <path d="M188.6 11c-.2 0-.6 0-.8-.1-4.9-1.4-9.9-2.4-14.9-3.2-1.6-.2-2.8-1.8-2.4-3.4s1.8-2.8 3.4-2.4c5.3.8 10.5 1.9 15.6 3.3 1.5.4 2.5 2 2.1 3.6-.5 1.3-1.7 2.2-3 2.2z" class="st0"/>
    <path d="M150 300C67.1 300-.1 232.8 0 149.9c0-39.7 15.8-77.9 43.9-106S110.2-.1 150 0c1.6 0 3 1.3 3 3s-1.4 2.9-3 2.9C70.4 5.9 5.9 70.4 5.8 150c0 38.2 15.2 74.9 42.2 101.9 56.3 56.3 147.6 56.3 203.8 0 47.4-47.4 55.8-121.1 20.4-177.9-13.8-22.1-33.4-40.1-56.6-52.1-1.5-.7-2-2.5-1.3-4s2.5-2 4-1.3C268.5 42.2 300 93.8 300 150c0 82.8-67.2 150-150 150z" class="st0"/>
    <path d="M206.9 12.7c0 2.1-1.7 3.8-3.8 3.7-2.1 0-3.8-1.7-3.7-3.8 0-2.1 1.7-3.7 3.8-3.7 2 0 3.7 1.7 3.7 3.8z" class="st0"/>
  </g>
  <path fill="#6ccfea" stroke="#3c4957" stroke-linecap="round" stroke-linejoin="round" stroke-width="6.6722" d="M149.3 92.6c42.4 0 76.7 34.4 76.7 76.7S191.7 246 149.3 246s-76.7-34.4-76.7-76.7 34.3-76.7 76.7-76.7z"/>
  <path d="M75.4 156.1l43.5 1.2 8.7 4.1 9.3 9.3 5.2 8.1 1.2 9.8-5.8 10.4-7.5 8.1-4.6 7.5-1.7 12.7v14.5c-.2.1-61.1-25.4-48.3-85.7zM205.2 116.2l-38.8 1.2s-29 11.6-4.6 27.8l16.8 3.5 4.6 3.5 16.2 24.3 9.3 8.7 9.8 1.7h8.1c0-.1 7.5-38.9-21.4-70.7z" class="st4"/>
  <path d="M73.7 156h40.6c5.3 0 10.4 2.1 14.2 5.9l7.5 7.5c7.5 7.5 7.9 19.5.8 27.5l-9.1 10.2c-3.3 3.7-5.1 8.4-5.1 13.3v21M204.4 115.9h-38.7c-8.3 0-15 6.7-15 15s6.7 15 15 15h2.9c6.7 0 13 3.3 16.7 8.9l14.8 22.2c3.7 5.6 10 8.9 16.7 8.9h7.5" class="st12"/>
  <path d="M150 92.6c42.4 0 76.7 34.4 76.7 76.7S192.4 246 150 246s-76.7-34.4-76.7-76.7 34.3-76.7 76.7-76.7z" class="st12"/>
  <g stroke="#3c4957" stroke-linecap="round" stroke-linejoin="round" stroke-width="4.4412">
    <path fill="#fdc53b" d="M190 96.2c0 27.7-31.6 53.5-38.6 58.9-.8.6-1.9.6-2.7 0-7-5.4-38.6-31.3-38.6-58.9 0-23.3 16.7-42.2 40-42.2S190 72.9 190 96.2z"/>
    <path fill="#fff" d="M150 71.7c12.3 0 22.2 9.9 22.2 22.2s-9.9 22.2-22.2 22.2-22.2-9.9-22.2-22.2 9.9-22.2 22.2-22.2z"/>
  </g>
</svg>
