<svg xmlns="http://www.w3.org/2000/svg" viewBox="0 0 369.9 369.9"><defs><style>.cls-1{fill:#4fcfca;}.cls-2{fill:#fff;}.cls-3{fill:#263444;}.cls-4{fill:#fdc53b;}</style></defs><title>Fichier 14</title><g id="Calque_2" data-name="Calque 2"><g id="Stroke"><path class="cls-1" d="M273,287.89a11.7,11.7,0,0,1-11.69,11.69H108.62a11.7,11.7,0,0,1-11.69-11.69V89.43a11.7,11.7,0,0,1,11.69-11.69H223.35V120a3.59,3.59,0,0,0,4.71,3.4l10.32-3.44,10.32,3.44a3.66,3.66,0,0,0,1.13.18,3.59,3.59,0,0,0,3.58-3.58V77.74h7.87A11.7,11.7,0,0,1,273,89.43V287.89Z"/><rect class="cls-2" x="142.73" y="226.5" width="91.45" height="39.04" rx="12"/><path class="cls-3" d="M232.61,13.65a3.52,3.52,0,0,1-1-.13,177.34,177.34,0,0,0-18.41-4,3.66,3.66,0,1,1,1.16-7.23,183.66,183.66,0,0,1,19.17,4.13,3.66,3.66,0,0,1-1,7.19Z"/><path class="cls-3" d="M185,369.9A185,185,0,0,1,54.17,54.17,183.75,183.75,0,0,1,185,0a3.66,3.66,0,1,1,0,7.32A177.63,177.63,0,0,0,59.35,310.55,177.64,177.64,0,0,0,335.8,91.12,178.24,178.24,0,0,0,266,26.85a3.66,3.66,0,0,1,3.35-6.51A185,185,0,0,1,369.9,185,184.95,184.95,0,0,1,185,369.9Z"/><path class="cls-3" d="M255.06,15.67A4.66,4.66,0,1,1,250.4,11,4.66,4.66,0,0,1,255.06,15.67Z"/><rect class="cls-4" x="227.15" y="65.95" width="22.73" height="52.49"/><path class="cls-2" d="M160.69,172.05h14.25v14.26a10.32,10.32,0,0,0,10.31,10.31h7a10.32,10.32,0,0,0,10.31-10.31V172.05h14.26a10.32,10.32,0,0,0,10.31-10.31v-7a10.32,10.32,0,0,0-10.31-10.31H202.58V130.15a10.32,10.32,0,0,0-10.31-10.31h-7a10.33,10.33,0,0,0-10.31,10.31v14.26H160.69a10.33,10.33,0,0,0-10.32,10.31v7A10.32,10.32,0,0,0,160.69,172.05Z"/><path class="cls-3" d="M261.28,70.69h-7.87v-.24a7.4,7.4,0,0,0-7.4-7.39H230.75a7.4,7.4,0,0,0-7.4,7.39v.24H108.62A18.86,18.86,0,0,0,89.77,89.53V288a18.86,18.86,0,0,0,18.85,18.84H261.28A18.87,18.87,0,0,0,280.13,288V89.53A18.87,18.87,0,0,0,261.28,70.69Zm-30.77-.24a.24.24,0,0,1,.24-.24H246a.24.24,0,0,1,.24.24V115.1l-6.74-2.24a3.35,3.35,0,0,0-1.13-.19,3.39,3.39,0,0,0-1.13.19l-6.74,2.24ZM273,288a11.7,11.7,0,0,1-11.69,11.68H108.62A11.7,11.7,0,0,1,96.93,288V89.53a11.7,11.7,0,0,1,11.69-11.68H223.35v42.22a3.58,3.58,0,0,0,4.71,3.39L238.38,120l10.32,3.44a3.66,3.66,0,0,0,1.13.18,3.57,3.57,0,0,0,3.58-3.57V77.85h7.87A11.7,11.7,0,0,1,273,89.53V288Z"/><path class="cls-3" d="M108.62,108.85a3.58,3.58,0,0,0-3.58,3.58V288a3.58,3.58,0,0,0,7.15,0V112.43A3.58,3.58,0,0,0,108.62,108.85Z"/><path class="cls-3" d="M108.62,86A3.57,3.57,0,0,0,105,89.53v7.64a3.58,3.58,0,0,0,7.15,0V89.53A3.57,3.57,0,0,0,108.62,86Z"/><path class="cls-3" d="M223.11,219.54h-68.7a18.86,18.86,0,0,0-18.84,18.84v15.27a18.86,18.86,0,0,0,18.84,18.84h68.7A18.87,18.87,0,0,0,242,253.65V238.38A18.87,18.87,0,0,0,223.11,219.54Zm11.69,34.11a11.7,11.7,0,0,1-11.69,11.69h-68.7a11.7,11.7,0,0,1-11.68-11.69V238.38a11.7,11.7,0,0,1,11.68-11.69h68.7a11.7,11.7,0,0,1,11.69,11.69Z"/><path class="cls-3" d="M215.48,250.07H162.05a3.58,3.58,0,1,0,0,7.16h53.43a3.58,3.58,0,0,0,0-7.16Z"/><path class="cls-3" d="M173.5,242H204a3.58,3.58,0,1,0,0-7.16H173.5a3.58,3.58,0,1,0,0,7.16Z"/><path class="cls-3" d="M158.23,173.26h15.51v15.51A11.22,11.22,0,0,0,185,200h7.63a11.22,11.22,0,0,0,11.21-11.21V173.26H219.3a11.22,11.22,0,0,0,11.21-11.21v-7.63A11.23,11.23,0,0,0,219.3,143.2H203.79V127.7a11.22,11.22,0,0,0-11.21-11.21H185a11.22,11.22,0,0,0-11.21,11.21v15.5H158.23A11.23,11.23,0,0,0,147,154.42v7.63A11.22,11.22,0,0,0,158.23,173.26Zm-4-18.84a4.06,4.06,0,0,1,4-4.06h19.08a3.58,3.58,0,0,0,3.58-3.58V127.7a4.06,4.06,0,0,1,4.06-4.06h7.63a4.06,4.06,0,0,1,4.06,4.06v19.08a3.57,3.57,0,0,0,3.57,3.58H219.3a4.06,4.06,0,0,1,4,4.06v7.63a4.06,4.06,0,0,1-4,4H200.21a3.58,3.58,0,0,0-3.57,3.58v19.09a4.06,4.06,0,0,1-4.06,4H185a4.06,4.06,0,0,1-4.06-4V169.68a3.58,3.58,0,0,0-3.58-3.58H158.23a4.06,4.06,0,0,1-4-4Z"/></g></g></svg>