<svg xmlns="http://www.w3.org/2000/svg" id="Calque_1" x="0" y="0" version="1.1" viewBox="0 0 300 300" xml:space="preserve">
  <defs/>
  <style>.st0,.st26{stroke:#3c4957}.st0{stroke-miterlimit:10;fill:#3c4957;stroke-width:.8111}.st26{fill:none;stroke-width:7.323;stroke-linecap:round;stroke-linejoin:round}</style>
  <g id="Stroke_1_">
    <path d="M188.6 11c-.2 0-.6 0-.8-.1-4.9-1.4-9.9-2.4-14.9-3.2-1.6-.2-2.8-1.8-2.4-3.4s1.8-2.8 3.4-2.4c5.3.8 10.5 1.9 15.6 3.3 1.5.4 2.5 2 2.1 3.6-.5 1.3-1.7 2.2-3 2.2z" class="st0"/>
    <path d="M150 300C67.1 300-.1 232.8 0 149.9c0-39.7 15.8-77.9 43.9-106S110.2-.1 150 0c1.6 0 3 1.3 3 3s-1.4 2.9-3 2.9C70.4 5.9 5.9 70.4 5.8 150c0 38.2 15.2 74.9 42.2 101.9 56.3 56.3 147.6 56.3 203.8 0 47.4-47.4 55.8-121.1 20.4-177.9-13.8-22.1-33.4-40.1-56.6-52.1-1.5-.7-2-2.5-1.3-4s2.5-2 4-1.3C268.5 42.2 300 93.8 300 150c0 82.8-67.2 150-150 150z" class="st0"/>
    <path d="M206.9 12.7c0 2.1-1.7 3.8-3.8 3.7-2.1 0-3.8-1.7-3.7-3.8 0-2.1 1.7-3.7 3.8-3.7 2 0 3.7 1.7 3.7 3.8z" class="st0"/>
  </g>
  <path fill="#00bfb6" stroke="#3c4957" stroke-linecap="round" stroke-linejoin="round" stroke-width="7.323" d="M212.3 226.9c0 4-3.3 7.3-7.3 7.3H95.1c-4 0-7.3-3.3-7.3-7.3V73.1c0-4 3.3-7.3 7.3-7.3h70.2c1.9 0 3.8.8 5.2 2.1l39.7 39.6c1.4 1.4 2.1 3.2 2.1 5.2v114.2z"/>
  <path fill="#fdc53b" stroke="#3c4957" stroke-linecap="round" stroke-linejoin="round" stroke-width="7.323" d="M168.3 66.5v36c0 4 3.3 7.3 7.3 7.3h36l-43.3-43.3z"/>
  <path d="M109.7 197.6h80.6M109.7 212.2h80.6" class="st26"/>
  <path fill="#fff" stroke="#3c4957" stroke-linecap="round" stroke-linejoin="round" stroke-width="7.323" d="M175.6 142.7c0-2-1.6-3.7-3.7-3.7h-11v-11c0-2-1.6-3.7-3.7-3.7h-14.6c-2 0-3.7 1.6-3.7 3.7v11h-11c-2 0-3.7 1.6-3.7 3.7v14.6c0 2 1.6 3.7 3.7 3.7h11v11c0 2 1.6 3.7 3.7 3.7h14.6c2 0 3.7-1.6 3.7-3.7v-11h11c2 0 3.7-1.6 3.7-3.7v-14.6z"/>
</svg>
