<svg xmlns="http://www.w3.org/2000/svg" id="Calque_1" x="0" y="0" version="1.1" viewBox="0 0 300 300" xml:space="preserve">
  <defs/>
  <style>.st0{fill:#3c4957;stroke:#3c4957;stroke-width:.8111;stroke-miterlimit:10}.st1{fill:#ffcb9b}.st2{fill:none;stroke:#3c4957;stroke-width:8.0274;stroke-linecap:round;stroke-linejoin:round}</style>
  <g id="Stroke_13_">
    <path d="M188.6 11c-.2 0-.6 0-.8-.1-4.9-1.4-9.9-2.4-14.9-3.2-1.6-.2-2.8-1.8-2.4-3.4s1.8-2.8 3.4-2.4c5.3.8 10.5 1.9 15.6 3.3 1.5.4 2.5 2 2.1 3.6-.5 1.3-1.7 2.2-3 2.2z" class="st0"/>
    <path d="M150 300C67.1 300-.1 232.8 0 149.9c0-39.7 15.8-77.9 43.9-106S110.2-.1 150 0c1.6 0 3 1.3 3 3s-1.4 2.9-3 2.9C70.4 5.9 5.9 70.4 5.8 150c0 38.2 15.2 74.9 42.2 101.9 56.3 56.3 147.6 56.3 203.8 0 47.4-47.4 55.8-121.1 20.4-177.9-13.8-22.1-33.4-40.1-56.6-52.1-1.5-.7-2-2.5-1.3-4s2.5-2 4-1.3C268.5 42.2 300 93.8 300 150c0 82.8-67.2 150-150 150z" class="st0"/>
    <path d="M206.9 12.7c0 2.1-1.7 3.8-3.8 3.7-2.1 0-3.8-1.7-3.7-3.8 0-2.1 1.7-3.7 3.8-3.7 2 0 3.7 1.7 3.7 3.8z" class="st0"/>
  </g>
  <path d="M149.9 48.9c15.8 0 28.5 12.8 28.5 28.5S165.7 106 149.9 106s-28.5-12.8-28.5-28.5 12.8-28.6 28.5-28.6z" class="st1"/>
  <path d="M150 49c15.5 0 28.1 12.6 28.1 28.1s-12.6 28.1-28.1 28.1-28.1-12.6-28.1-28.1S134.5 49 150 49zM105.9 97.2c9.2-2.4 15.8-10.6 16.1-20.1M194.2 97.2c-9.2-2.4-15.8-10.6-16.1-20.1" class="st2"/>
  <path fill="#00bfb6" stroke="#3c4957" stroke-linecap="round" stroke-linejoin="round" stroke-width="8.0274" d="M150 121.3h0c14.9 0 28.2 9.5 32.9 23.7l25.9 77.7c1.5 4.4-.9 9.1-5.3 10.5-.8.3-1.7.4-2.6.4H99.1c-4.6 0-8.3-3.7-8.3-8.3 0-.9.1-1.8.4-2.6l25.9-77.7c4.8-14.2 18-23.7 32.9-23.7h0"/>
  <path d="M149.9 149c6.9 0 12.5 5.6 12.5 12.5s-5.6 12.5-12.5 12.5-12.5-5.6-12.5-12.5S143 149 149.9 149z" class="st1"/>
  <path d="M150 149.4c6.6 0 12 5.4 12 12s-5.4 12-12 12-12-5.4-12-12 5.4-12 12-12zM150 177.5v24.1l-16 16M150 201.5l16.1 16.1M150 177.5l-16.1 8M150 177.5l16.1 8" class="st2"/>
</svg>
