<svg xmlns="http://www.w3.org/2000/svg" viewBox="0 0 369.9 369.9"><defs><style>.cls-1{fill:#263444;}.cls-2{fill:#4fcfca;}.cls-3{fill:#ffeddc;}</style></defs><title>Fichier 13</title><g id="Calque_2" data-name="Calque 2"><g id="Stroke"><path class="cls-1" d="M232.61,13.65a3.52,3.52,0,0,1-1-.13,177.34,177.34,0,0,0-18.41-4,3.66,3.66,0,1,1,1.16-7.23,183.66,183.66,0,0,1,19.17,4.13,3.66,3.66,0,0,1-1,7.19Z"/><path class="cls-1" d="M185,369.9A185,185,0,0,1,54.17,54.17,183.75,183.75,0,0,1,185,0a3.66,3.66,0,1,1,0,7.32A177.63,177.63,0,0,0,59.35,310.55,177.64,177.64,0,0,0,335.8,91.12,178.24,178.24,0,0,0,266,26.85a3.66,3.66,0,0,1,3.35-6.51A185,185,0,0,1,369.9,185,184.95,184.95,0,0,1,185,369.9Z"/><path class="cls-1" d="M255.06,15.67A4.66,4.66,0,1,1,250.4,11,4.66,4.66,0,0,1,255.06,15.67Z"/><path class="cls-2" d="M251.38,170l-2.61-4H240a8.77,8.77,0,0,0,8.77-8.78h0a15.41,15.41,0,0,0-15.41-15.41H203.73a18,18,0,0,0,18-18h0a19.19,19.19,0,0,0-6.35-14.25L169.57,68.38H105.72l-.18-.11v86.65a34.59,34.59,0,0,0,20.7,31.68h-.54v20.82a39.9,39.9,0,0,1-2,12.59h0a133.34,133.34,0,0,0-2,77.52l1.13,4.09H234.55V288.24A29.5,29.5,0,0,1,242.63,268h0A79.27,79.27,0,0,0,251.38,170Z"/><circle class="cls-3" cx="188.78" cy="206.65" r="17.15"/><path class="cls-3" d="M174.19,218.7s-4.48,24.06,16.44,33.68,31.33,1.07,34.8-5.65,8.53,0,9.22,2.55,9.77,1.38,10-6.72-9.46-18.77-18.09-15.58"/><path class="cls-3" d="M194.11,223.79s13.24,5.6,18.11-1.12,9.92-5.83,12.7-3,4.76,15-18.21,21.32"/><path d="M105.54,73a4.75,4.75,0,1,0-3.35-1.39A4.77,4.77,0,0,0,105.54,73Z"/><path d="M263.11,182.3a5,5,0,0,0-.54-1.32,83.76,83.76,0,0,0-7.22-13.62l-2.61-4a3.59,3.59,0,0,0-.44-.57,13.49,13.49,0,0,0,1.22-5.61,20.18,20.18,0,0,0-20.16-20.15H222.2a22.65,22.65,0,0,0,4.28-13.27A23.93,23.93,0,0,0,218.56,106L172.74,64.85a4.74,4.74,0,1,0-6.34,7.06l45.82,41.15A14.47,14.47,0,0,1,217,123.78a13.28,13.28,0,0,1-13.27,13.27h-.49a5.25,5.25,0,0,0-.79.06l-47.27,8a.24.24,0,0,1-.22-.06.24.24,0,0,1-.09-.2v-51a4.75,4.75,0,1,0-9.49,0v51a9.75,9.75,0,0,0,11.38,9.61l46.88-7.95h29.72A10.68,10.68,0,0,1,244,157.2a4,4,0,0,1-4,4H204.19a4.63,4.63,0,0,0-1.8.36l-50.92,20.93a29.84,29.84,0,0,1-41.19-27.6V83a4.74,4.74,0,1,0-9.48,0v71.94A39.3,39.3,0,0,0,121,189.25v18.17a35.1,35.1,0,0,1-1.8,11.09,137.64,137.64,0,0,0-2.09,80.28l1.13,4.09a4.74,4.74,0,0,0,4.57,3.49,4.62,4.62,0,0,0,1.26-.18,4.73,4.73,0,0,0,3.31-5.83l-1.13-4.09a128.24,128.24,0,0,1,2-74.77,44.59,44.59,0,0,0,2.28-14.08V193a39.53,39.53,0,0,0,24.64-1.72l50-20.58H240a13.62,13.62,0,0,0,5.46-1.15l2,3a76.19,76.19,0,0,1,6.3,11.75,12.34,12.34,0,0,1-12.29,11.42,21.85,21.85,0,0,0-21.29,17.07c-.3,0-.6,0-.89,0-2.79.22-6.94,1.63-10.87,7.06a4.26,4.26,0,0,1-3.28,1.33,21.88,21.88,0,1,0-35.44-3.94c0,.18-.1.36-.14.55a42.83,42.83,0,0,0,.4,15.06c2.27,11,8.75,19.21,18.72,23.8,7.23,3.32,13.56,4.69,19,4.69,10.9,0,18.19-5.52,21.75-12a5.12,5.12,0,0,1,.7,1.17c.9,3.23,4.24,5.07,8.32,4.59a12.5,12.5,0,0,0,11-12.46c.18-6.26-3.67-13.32-9.57-17.56a17.57,17.57,0,0,0-8.81-3.42,11.51,11.51,0,0,0-1.9-4.46,12.34,12.34,0,0,1,12.32-12A21.75,21.75,0,0,0,258,197.59a74.27,74.27,0,0,1-18.78,67.1,34.12,34.12,0,0,0-9.39,23.55v13.38a4.75,4.75,0,0,0,9.49,0V288.24a24.69,24.69,0,0,1,6.78-17,84,84,0,0,0,17-88.91Zm-74.33,11.95a12.4,12.4,0,1,1-12.4,12.4A12.41,12.41,0,0,1,188.78,194.25Zm51.13,48.17a3.34,3.34,0,0,1-1,2.57,2.76,2.76,0,0,1-.75.49c-1.51-2.7-4.36-5.93-8.32-6.35-1.65-.17-5.79,0-8.59,5.42-3.37,6.51-12.65,10.86-28.61,3.52-11.24-5.17-13.73-15.38-14.07-22.08a21.76,21.76,0,0,0,13.88,2.24c2.31,1,16.93,6.49,23.64-2.78,1.37-1.89,2.84-3.08,3.94-3.16a2,2,0,0,1,1.5.62,4.26,4.26,0,0,1,0,3.35c-1.47,4-7.31,7.72-16,10.1a4.74,4.74,0,0,0,1.25,9.32,4.55,4.55,0,0,0,1.26-.17c13.44-3.68,19.27-9.4,21.71-14.35a8.07,8.07,0,0,1,4.61,1.68C237.53,235.16,240,239.37,239.91,242.42Z"/></g></g></svg>