<?xml version="1.0" encoding="utf-8"?>
<!-- Generator: Adobe Illustrator 23.0.6, SVG Export Plug-In . SVG Version: 6.00 Build 0)  -->
<svg version="1.1" id="Calque_1" xmlns="http://www.w3.org/2000/svg" xmlns:xlink="http://www.w3.org/1999/xlink" x="0px" y="0px"
	 viewBox="0 0 369.9 369.9" style="enable-background:new 0 0 369.9 369.9;" xml:space="preserve">
<style type="text/css">
	.st0{fill:#263444;}
	.st1{fill:#4FCFCA;}
</style>
<title>Fichier 13</title>
<g>
	<g id="Stroke">
		<path class="st0" d="M232.6,13.6c-0.3,0-0.7,0-1-0.1c-6.1-1.7-12.2-3-18.4-4c-2-0.3-3.4-2.2-3-4.2s2.2-3.4,4.2-3
			c6.5,1,12.9,2.4,19.2,4.1c1.9,0.5,3.1,2.5,2.6,4.5C235.7,12.5,234.2,13.6,232.6,13.6L232.6,13.6z"/>
		<path class="st0" d="M185,369.9C82.8,369.9,0,287,0.1,184.8c0-49,19.5-96,54.1-130.7C88.8,19.4,135.9-0.1,185,0
			c2,0,3.7,1.6,3.7,3.7S187,7.3,185,7.3C86.9,7.3,7.4,86.8,7.3,184.9c0,47.1,18.7,92.3,52,125.6c69.4,69.4,181.9,69.4,251.2,0
			c58.4-58.4,68.8-149.3,25.2-219.4c-17-27.3-41.2-49.5-69.8-64.3c-1.8-0.9-2.5-3.1-1.6-4.9c0.9-1.8,3.1-2.5,4.9-1.6l0,0
			C331.1,52,369.9,115.6,369.9,185C369.9,287.1,287.1,369.9,185,369.9z"/>
		<path class="st0" d="M255.1,15.7c0,2.6-2.1,4.7-4.7,4.6c-2.6,0-4.7-2.1-4.6-4.7c0-2.6,2.1-4.6,4.7-4.6
			C253,11,255.1,13.1,255.1,15.7C255.1,15.7,255.1,15.7,255.1,15.7z"/>
		<path class="st1" d="M251.4,170l-2.6-4H240c4.8,0,8.8-3.9,8.8-8.8c0,0,0,0,0,0l0,0c0-8.5-6.9-15.4-15.4-15.4c0,0,0,0,0,0h-29.6
			c9.9,0,18-8.1,18-18l0,0c0-5.4-2.3-10.6-6.4-14.2l-45.8-41.2h-63.9l-0.2-0.1v86.7c0,13.7,8.1,26.2,20.7,31.7h-0.5v20.8
			c0,4.3-0.7,8.5-2,12.6l0,0c-8.3,25.1-9,52.1-2,77.5l1.1,4.1h111.7v-13.4c0-7.5,2.9-14.8,8.1-20.2l0,0
			C267.9,241.3,271.5,200.7,251.4,170z"/>
		<path d="M105.5,73c2.6,0,4.8-2.1,4.8-4.7c0-2.6-2.1-4.8-4.7-4.8c-2.6,0-4.8,2.1-4.8,4.7c0,1.3,0.5,2.5,1.4,3.4
			C103.1,72.5,104.3,73,105.5,73z"/>
		<path d="M263.1,182.3c-0.1-0.5-0.3-0.9-0.5-1.3c-2-4.8-4.4-9.3-7.2-13.6l-2.6-4c-0.1-0.2-0.3-0.4-0.4-0.6c0.8-1.8,1.2-3.7,1.2-5.6
			c0-11.1-9-20.1-20.2-20.1h-11.2c2.8-3.9,4.3-8.5,4.3-13.3c0-6.8-2.9-13.2-7.9-17.8l-45.8-41.2c-1.9-1.8-4.9-1.6-6.7,0.4
			c-1.8,1.9-1.6,4.9,0.4,6.7l45.8,41.2c3,2.7,4.8,6.6,4.8,10.7c0,7.3-5.9,13.3-13.3,13.3h-0.5c-0.3,0-0.5,0-0.8,0.1l-47.3,8
			c-0.1,0-0.2,0-0.2-0.1c-0.1,0-0.1-0.1-0.1-0.2v-51c0.1-2.6-1.9-4.8-4.5-5s-4.8,1.9-5,4.5c0,0.1,0,0.3,0,0.4v51
			c0,5.4,4.4,9.7,9.8,9.7c0.5,0,1.1,0,1.6-0.1l46.9-7.9h29.7c5.9,0,10.6,4.8,10.6,10.7c0,2.2-1.8,4-4,4h-35.8
			c-0.6,0-1.2,0.1-1.8,0.4l-50.9,20.9c-15.2,6.3-32.7-1-38.9-16.2c-1.5-3.6-2.2-7.5-2.2-11.4V83c0-2.6-2.1-4.7-4.7-4.7
			s-4.7,2.1-4.7,4.7c0,0,0,0,0,0v71.9c0,14.3,7.7,27.4,20.2,34.3v18.2c0,3.8-0.6,7.5-1.8,11.1c-8.7,26-9.4,53.9-2.1,80.3l1.1,4.1
			c0.6,2.1,2.4,3.5,4.6,3.5c0.4,0,0.9-0.1,1.3-0.2c2.5-0.7,4-3.3,3.3-5.8c0,0,0,0,0,0l-1.1-4.1c-6.8-24.6-6.1-50.6,2-74.8
			c1.5-4.5,2.3-9.3,2.3-14.1V193c8.2,2.1,16.8,1.5,24.6-1.7l50-20.6H240c1.9,0,3.7-0.4,5.5-1.1l2,3c2.4,3.7,6.3,11.8,10.5,25
			c5.3,24.1-1.8,49.2-18.8,67.1c-6,6.4-9.4,14.8-9.4,23.5v13.4c0.1,2.6,2.3,4.6,5,4.5c2.5-0.1,4.4-2.1,4.5-4.5v-13.4
			c0-6.3,2.4-12.4,6.8-17C268.6,247.5,275.3,212.7,263.1,182.3L263.1,182.3z"/>
	</g>
</g>
</svg>
