<?xml version="1.0" encoding="utf-8"?>
<!-- Generator: Adobe Illustrator 24.1.0, SVG Export Plug-In . SVG Version: 6.00 Build 0)  -->
<svg version="1.1" id="Calque_1" xmlns="http://www.w3.org/2000/svg" xmlns:xlink="http://www.w3.org/1999/xlink" x="0px" y="0px"
	 viewBox="0 0 300 300" style="enable-background:new 0 0 300 300;" xml:space="preserve">
<style type="text/css">
	.st0{fill:#3C4957;stroke:#3C4957;stroke-width:0.8111;stroke-miterlimit:10;}
	.st1{fill:#FFCB9B;}
	.st2{fill:none;stroke:#3C4957;stroke-width:8.0274;stroke-linecap:round;stroke-linejoin:round;}
	.st3{fill:#00BFB6;stroke:#3C4957;stroke-width:8.0274;stroke-linecap:round;stroke-linejoin:round;}
	.st4{fill:#00BFB6;}
	.st5{fill:#FDC53B;stroke:#3C4957;stroke-width:7.7049;stroke-linecap:round;stroke-linejoin:round;}
	.st6{fill:none;stroke:#3C4957;stroke-width:7.7049;stroke-linecap:round;stroke-linejoin:round;}
	.st7{fill:#FDC53B;stroke:#3C4957;stroke-width:5.0564;stroke-linecap:round;stroke-linejoin:round;}
	.st8{fill:none;stroke:#3C4957;stroke-width:5.0564;stroke-linecap:round;stroke-linejoin:round;}
	.st9{fill:#00BFB6;stroke:#3C4957;stroke-width:5.4519;stroke-linecap:round;stroke-linejoin:round;}
	.st10{fill:#3C4957;stroke:#3C4957;stroke-width:2.2224;stroke-linecap:round;stroke-linejoin:round;}
	.st11{fill:#6CCFEA;stroke:#3C4957;stroke-width:6.6722;stroke-linecap:round;stroke-linejoin:round;}
	.st12{fill:none;stroke:#3C4957;stroke-width:6.6722;stroke-linecap:round;stroke-linejoin:round;}
	.st13{fill:#FDC53B;stroke:#3C4957;stroke-width:4.4412;stroke-linecap:round;stroke-linejoin:round;}
	.st14{fill:#FFFFFF;stroke:#3C4957;stroke-width:4.4412;stroke-linecap:round;stroke-linejoin:round;}
	.st15{fill:#00BFB6;stroke:#3C4957;stroke-width:7.4293;stroke-linecap:round;stroke-linejoin:round;}
	.st16{fill:#FDC53B;stroke:#3C4957;stroke-width:7.4293;stroke-linecap:round;stroke-linejoin:round;}
	.st17{fill:none;stroke:#3C4957;stroke-width:7.4293;stroke-linecap:round;stroke-linejoin:round;}
	.st18{fill:#3C4957;stroke:#3C4957;stroke-width:7.4293;stroke-linecap:round;stroke-linejoin:round;}
	.st19{fill:none;stroke:#3C4957;stroke-width:7.0979;stroke-linecap:round;stroke-linejoin:round;}
	
		.st20{fill-rule:evenodd;clip-rule:evenodd;fill:none;stroke:#3C4957;stroke-width:7.0979;stroke-linecap:round;stroke-linejoin:round;}
	.st21{fill-rule:evenodd;clip-rule:evenodd;fill:#FDC53B;}
	.st22{fill:#FFC20E;stroke:#3C4957;stroke-width:7.0979;stroke-linecap:round;stroke-linejoin:round;}
	
		.st23{fill-rule:evenodd;clip-rule:evenodd;fill:#FFC20E;stroke:#3C4957;stroke-width:7.0979;stroke-linecap:round;stroke-linejoin:round;}
	.st24{fill:#00BFB6;stroke:#3C4957;stroke-width:7.323;stroke-linecap:round;stroke-linejoin:round;}
	.st25{fill:#FDC53B;stroke:#3C4957;stroke-width:7.323;stroke-linecap:round;stroke-linejoin:round;}
	.st26{fill:none;stroke:#3C4957;stroke-width:7.323;stroke-linecap:round;stroke-linejoin:round;}
	.st27{fill:#FFFFFF;stroke:#3C4957;stroke-width:7.323;stroke-linecap:round;stroke-linejoin:round;}
	
		.st28{fill-rule:evenodd;clip-rule:evenodd;fill:#00BFB6;stroke:#3C4957;stroke-width:7.0979;stroke-linecap:round;stroke-linejoin:round;}
	.st29{fill:none;stroke:#FDC53B;stroke-width:6;stroke-linecap:round;stroke-linejoin:round;}
	.st30{fill:#FDC53B;stroke:#3C4957;stroke-width:5.6348;stroke-linecap:round;stroke-linejoin:round;}
	.st31{fill:#00BFB6;stroke:#3C4957;stroke-width:7.0979;stroke-linecap:round;stroke-linejoin:round;}
	.st32{fill:none;stroke:#3C4957;stroke-width:3.7352;stroke-linecap:round;stroke-linejoin:round;}
	.st33{fill:none;stroke:#3C4957;stroke-width:7;stroke-linecap:round;stroke-linejoin:round;}
	.st34{fill:none;stroke:#FDC53B;stroke-width:7;stroke-linecap:round;stroke-linejoin:round;}
	
		.st35{fill-rule:evenodd;clip-rule:evenodd;fill:#00BFB6;stroke:#3C4957;stroke-width:7;stroke-linecap:round;stroke-linejoin:round;}
	.st36{fill:#FFCB9B;stroke:#3C4957;stroke-width:7.0195;stroke-linecap:round;stroke-linejoin:round;}
	.st37{fill:none;stroke:#3C4957;stroke-width:7.0195;stroke-linecap:round;stroke-linejoin:round;}
	.st38{fill:#E8665C;}
	.st39{fill:#00BFB6;stroke:#3C4957;stroke-width:7;stroke-linecap:round;stroke-linejoin:round;}
</style>
<g id="Round_2_">
	<g id="Group-2_2_">
		<path id="Path_9_" class="st0" d="M187.9,11.7c-0.3,0-0.6,0-0.8-0.1c-5-1.4-10-2.6-15.1-3.4c-1.1-0.2-1.9-0.9-2.3-2
			s-0.2-2.2,0.5-3.1s1.7-1.3,2.8-1.1c5.3,0.9,10.6,2.1,15.7,3.5c1.5,0.4,2.4,1.9,2.2,3.4C190.7,10.5,189.4,11.7,187.9,11.7
			L187.9,11.7z"/>
		<path id="Path_8_" class="st0" d="M150,300c-60.7,0-115.4-36.6-138.6-92.6S1,86.9,43.9,43.9C72,15.7,110.2-0.1,150,0
			c1.1,0,2,0.6,2.6,1.5c0.5,0.9,0.5,2,0,3c-0.5,0.9-1.5,1.5-2.6,1.5C91.7,5.9,39.2,41,16.9,94.9s-10,115.8,31.2,157
			c51.8,51.8,134.1,56.5,191.5,11S311,136.1,272.3,73.9c-13.8-22.2-33.4-40.2-56.6-52.1c-1.5-0.8-2-2.5-1.3-4c0.8-1.5,2.5-2,4-1.3
			C268.5,42.2,300,93.8,300,150C300,232.9,232.8,300,150,300L150,300z"/>
		<path id="Path_7_" class="st0" d="M206.5,13.6c0,2.2-1.8,3.9-3.9,3.9c-2.2,0-3.9-1.7-3.9-3.9c0-2.2,1.7-3.9,3.9-3.9
			c1,0,2,0.4,2.8,1.1C206.1,11.6,206.5,12.6,206.5,13.6z"/>
	</g>
</g>
<g>
	<path id="Shape_26_" class="st33" d="M202.2,126.1c3.5,7.3,5.4,15.2,5.4,23.3c0,17.9-5.8,33.8-19.4,43.7V223"/>
	<path id="Shape_25_" class="st33" d="M129.9,223v-19.3h-9.7c-4.3,0-8.4-1.7-11.4-4.7c-3-3-4.7-7.1-4.7-11.4v-22.5H89.1
		c-1,0-2-0.5-2.6-1.3c-0.6-0.8-0.8-1.9-0.4-2.9c3.4-10.9,7.5-21.6,12.3-32"/>
	<path id="Shape_24_" class="st33" d="M205.5,82.5c9.4,3.2,15,7.3,15,11.8c0,6.6-12.4,12.4-31.3,15.9l-1.4,0.2"/>
	<path id="Shape_23_" class="st33" d="M133.8,75.5c5-0.3,10.2-0.5,15.5-0.5c6.5,0,12.9,0.2,18.9,0.7"/>
	<path id="Shape_22_" class="st33" d="M78.9,91.3c2.2-3.9,8.9-7.5,18.6-10.3"/>
	<path id="Shape_21_" class="st33" d="M149.7,113.4h-1.9c-14.5,0-29-1.4-43.2-4.2"/>
	<line id="Shape_20_" class="st34" x1="117" y1="87.9" x2="117" y2="75.1"/>
	<line id="Shape_19_" class="st34" x1="110.5" y1="81.5" x2="123.4" y2="81.5"/>
	<line id="Shape_18_" class="st34" x1="184.9" y1="87.9" x2="184.9" y2="75.1"/>
	<line id="Shape_17_" class="st34" x1="178.4" y1="81.5" x2="191.4" y2="81.5"/>
	<line id="Shape_16_" class="st34" x1="168.7" y1="120.1" x2="168.7" y2="107.2"/>
	<line id="Shape_15_" class="st34" x1="162.3" y1="113.7" x2="175.2" y2="113.7"/>
	<line id="Shape_14_" class="st34" x1="84.6" y1="113.7" x2="84.6" y2="100.8"/>
	<line id="Shape_13_" class="st34" x1="78.1" y1="107.2" x2="91.1" y2="107.2"/>
</g>
<g id="Round_5_">
	<g id="Group-2_5_">
		<path id="Path_18_" class="st0" d="M187.9,11.7c-0.3,0-0.6,0-0.8-0.1c-5-1.4-10-2.6-15.1-3.4c-1.1-0.2-1.9-0.9-2.3-2
			s-0.2-2.2,0.5-3.1s1.7-1.3,2.8-1.1c5.3,0.9,10.6,2.1,15.7,3.5c1.5,0.4,2.4,1.9,2.2,3.4C190.7,10.5,189.4,11.7,187.9,11.7
			L187.9,11.7z"/>
		<path id="Path_17_" class="st0" d="M150,300c-60.7,0-115.4-36.6-138.6-92.6S1,86.9,43.9,43.9C72,15.7,110.2-0.1,150,0
			c1.1,0,2,0.6,2.6,1.5c0.5,0.9,0.5,2,0,3c-0.5,0.9-1.5,1.5-2.6,1.5C91.7,5.9,39.2,41,16.9,94.9s-10,115.8,31.2,157
			c51.8,51.8,134.1,56.5,191.5,11S311,136.1,272.3,73.9c-13.8-22.2-33.4-40.2-56.6-52.1c-1.5-0.8-2-2.5-1.3-4c0.8-1.5,2.5-2,4-1.3
			C268.5,42.2,300,93.8,300,150C300,232.9,232.8,300,150,300L150,300z"/>
		<path id="Path_16_" class="st0" d="M206.5,13.6c0,2.2-1.8,3.9-3.9,3.9c-2.2,0-3.9-1.7-3.9-3.9c0-2.2,1.7-3.9,3.9-3.9
			c1,0,2,0.4,2.8,1.1C206.1,11.6,206.5,12.6,206.5,13.6z"/>
	</g>
</g>
</svg>
