<svg xmlns="http://www.w3.org/2000/svg" viewBox="0 0 300 300">
  <defs/>
  <style>.st0{fill:#3c4957;stroke:#3c4957;stroke-width:.8111;stroke-miterlimit:10}.st30,.st31,.st32{fill:#fdc53b;stroke:#3c4957;stroke-width:5.6348;stroke-linecap:round;stroke-linejoin:round}.st31,.st32{fill:#00bfb6;stroke-width:7.0979}.st32{fill:none;stroke-width:3.7352}</style>
  <g id="Stroke_2_">
    <path d="M188.6 11c-.2 0-.6 0-.8-.1-4.9-1.4-9.9-2.4-14.9-3.2-1.6-.2-2.8-1.8-2.4-3.4s1.8-2.8 3.4-2.4c5.3.8 10.5 1.9 15.6 3.3 1.5.4 2.5 2 2.1 3.6-.5 1.3-1.7 2.2-3 2.2z" class="st0"/>
    <path d="M150 300C67.1 300-.1 232.8 0 149.9c0-39.7 15.8-77.9 43.9-106S110.2-.1 150 0c1.6 0 3 1.3 3 3s-1.4 2.9-3 2.9C70.4 5.9 5.9 70.4 5.8 150c0 38.2 15.2 74.9 42.2 101.9 56.3 56.3 147.6 56.3 203.8 0 47.4-47.4 55.8-121.1 20.4-177.9-13.8-22.1-33.4-40.1-56.6-52.1-1.5-.7-2-2.5-1.3-4s2.5-2 4-1.3C268.5 42.2 300 93.8 300 150c0 82.8-67.2 150-150 150z" class="st0"/>
    <path d="M206.9 12.7c0 2.1-1.7 3.8-3.8 3.7-2.1 0-3.8-1.7-3.7-3.8 0-2.1 1.7-3.7 3.8-3.7 2 0 3.7 1.7 3.7 3.8z" class="st0"/>
  </g>
  <path d="M222.5 231.6l2.8-33.8h14.1v-19.7c0-15.6-12.6-28.2-28.2-28.2S183 162.5 183 178.1v19.7h14.1l2.8 33.8h22.6zM211.3 102c10.9 0 19.7 8.8 19.7 19.7s-8.8 19.7-19.7 19.7-19.7-8.8-19.7-19.7 8.8-19.7 19.7-19.7z" class="st30"/>
  <path d="M67.6 68.4H96c3.9 0 7.1 3.2 7.1 7.1v149c0 3.9-3.2 7.1-7.1 7.1H67.6c-3.9 0-7.1-3.2-7.1-7.1v-149c0-3.9 3.2-7.1 7.1-7.1zM60.5 89.7h14.2M60.5 118.1h14.2M60.5 146.5h14.2M60.5 174.8h14.2M60.5 203.2h14.2" class="st31"/>
  <g>
    <path d="M137.2 151v-16.8h-13.1c-2.1 0-2.5-1.2-1.1-2.6l20.9-20.9c1.5-1.5 3.8-1.5 5.3 0l20.9 20.9c1.5 1.5 1 2.6-1.1 2.6h-13.1V151M137.2 158.5v9.3M155.9 158.5v9.3M137.2 175.3v5.6M155.9 175.3v5.6M137.2 188.4v1.9M155.9 188.4v1.9" class="st32"/>
  </g>
</svg>
