<?xml version="1.0" encoding="utf-8"?>
<!-- Generator: Adobe Illustrator 24.1.0, SVG Export Plug-In . SVG Version: 6.00 Build 0)  -->
<svg version="1.1" id="Calque_1" xmlns="http://www.w3.org/2000/svg" xmlns:xlink="http://www.w3.org/1999/xlink" x="0px" y="0px"
	 viewBox="0 0 300 300" style="enable-background:new 0 0 300 300;" xml:space="preserve">
<style type="text/css">
	.st0{fill:#3C4957;stroke:#3C4957;stroke-width:0.8111;stroke-miterlimit:10;}
	.st1{fill:#FFCB9B;}
	.st2{fill:none;stroke:#3C4957;stroke-width:8.0274;stroke-linecap:round;stroke-linejoin:round;}
	.st3{fill:#00BFB6;stroke:#3C4957;stroke-width:8.0274;stroke-linecap:round;stroke-linejoin:round;}
	.st4{fill:#00BFB6;}
	.st5{fill:#FDC53B;stroke:#3C4957;stroke-width:7.7049;stroke-linecap:round;stroke-linejoin:round;}
	.st6{fill:none;stroke:#3C4957;stroke-width:7.7049;stroke-linecap:round;stroke-linejoin:round;}
	.st7{fill:#FDC53B;stroke:#3C4957;stroke-width:5.0564;stroke-linecap:round;stroke-linejoin:round;}
	.st8{fill:none;stroke:#3C4957;stroke-width:5.0564;stroke-linecap:round;stroke-linejoin:round;}
	.st9{fill:#00BFB6;stroke:#3C4957;stroke-width:5.4519;stroke-linecap:round;stroke-linejoin:round;}
	.st10{fill:#3C4957;stroke:#3C4957;stroke-width:2.2224;stroke-linecap:round;stroke-linejoin:round;}
	.st11{fill:#6CCFEA;stroke:#3C4957;stroke-width:6.6722;stroke-linecap:round;stroke-linejoin:round;}
	.st12{fill:none;stroke:#3C4957;stroke-width:6.6722;stroke-linecap:round;stroke-linejoin:round;}
	.st13{fill:#FDC53B;stroke:#3C4957;stroke-width:4.4412;stroke-linecap:round;stroke-linejoin:round;}
	.st14{fill:#FFFFFF;stroke:#3C4957;stroke-width:4.4412;stroke-linecap:round;stroke-linejoin:round;}
	.st15{fill:#00BFB6;stroke:#3C4957;stroke-width:7.4293;stroke-linecap:round;stroke-linejoin:round;}
	.st16{fill:#FDC53B;stroke:#3C4957;stroke-width:7.4293;stroke-linecap:round;stroke-linejoin:round;}
	.st17{fill:none;stroke:#3C4957;stroke-width:7.4293;stroke-linecap:round;stroke-linejoin:round;}
	.st18{fill:#3C4957;stroke:#3C4957;stroke-width:7.4293;stroke-linecap:round;stroke-linejoin:round;}
	.st19{fill:none;stroke:#3C4957;stroke-width:7.0979;stroke-linecap:round;stroke-linejoin:round;}
	
		.st20{fill-rule:evenodd;clip-rule:evenodd;fill:none;stroke:#3C4957;stroke-width:7.0979;stroke-linecap:round;stroke-linejoin:round;}
	.st21{fill-rule:evenodd;clip-rule:evenodd;fill:#FDC53B;}
	.st22{fill:#FFC20E;stroke:#3C4957;stroke-width:7.0979;stroke-linecap:round;stroke-linejoin:round;}
	
		.st23{fill-rule:evenodd;clip-rule:evenodd;fill:#FFC20E;stroke:#3C4957;stroke-width:7.0979;stroke-linecap:round;stroke-linejoin:round;}
	.st24{fill:#00BFB6;stroke:#3C4957;stroke-width:7.323;stroke-linecap:round;stroke-linejoin:round;}
	.st25{fill:#FDC53B;stroke:#3C4957;stroke-width:7.323;stroke-linecap:round;stroke-linejoin:round;}
	.st26{fill:none;stroke:#3C4957;stroke-width:7.323;stroke-linecap:round;stroke-linejoin:round;}
	.st27{fill:#FFFFFF;stroke:#3C4957;stroke-width:7.323;stroke-linecap:round;stroke-linejoin:round;}
	
		.st28{fill-rule:evenodd;clip-rule:evenodd;fill:#00BFB6;stroke:#3C4957;stroke-width:7.0979;stroke-linecap:round;stroke-linejoin:round;}
	.st29{fill:none;stroke:#FDC53B;stroke-width:6;stroke-linecap:round;stroke-linejoin:round;}
	.st30{fill:#FDC53B;stroke:#3C4957;stroke-width:5.6348;stroke-linecap:round;stroke-linejoin:round;}
	.st31{fill:#00BFB6;stroke:#3C4957;stroke-width:7.0979;stroke-linecap:round;stroke-linejoin:round;}
	.st32{fill:none;stroke:#3C4957;stroke-width:3.7352;stroke-linecap:round;stroke-linejoin:round;}
	.st33{fill:none;stroke:#3C4957;stroke-width:7;stroke-linecap:round;stroke-linejoin:round;}
	.st34{fill:none;stroke:#FDC53B;stroke-width:7;stroke-linecap:round;stroke-linejoin:round;}
	
		.st35{fill-rule:evenodd;clip-rule:evenodd;fill:#00BFB6;stroke:#3C4957;stroke-width:7;stroke-linecap:round;stroke-linejoin:round;}
	.st36{fill:#FFCB9B;stroke:#3C4957;stroke-width:7.0195;stroke-linecap:round;stroke-linejoin:round;}
	.st37{fill:none;stroke:#3C4957;stroke-width:7.0195;stroke-linecap:round;stroke-linejoin:round;}
	.st38{fill:#E8665C;}
	.st39{fill:#00BFB6;stroke:#3C4957;stroke-width:7;stroke-linecap:round;stroke-linejoin:round;}
</style>
<g id="Round_3_">
	<g id="Group-2_3_">
		<path id="Path_12_" class="st0" d="M187.9,11.7c-0.3,0-0.6,0-0.8-0.1c-5-1.4-10-2.6-15.1-3.4c-1.1-0.2-1.9-0.9-2.3-2
			s-0.2-2.2,0.5-3.1s1.7-1.3,2.8-1.1c5.3,0.9,10.6,2.1,15.7,3.5c1.5,0.4,2.4,1.9,2.2,3.4C190.7,10.5,189.4,11.7,187.9,11.7
			L187.9,11.7z"/>
		<path id="Path_11_" class="st0" d="M150,300c-60.7,0-115.4-36.6-138.6-92.6S1,86.9,43.9,43.9C72,15.7,110.2-0.1,150,0
			c1.1,0,2,0.6,2.6,1.5c0.5,0.9,0.5,2,0,3c-0.5,0.9-1.5,1.5-2.6,1.5C91.7,5.9,39.2,41,16.9,94.9s-10,115.8,31.2,157
			c51.8,51.8,134.1,56.5,191.5,11S311,136.1,272.3,73.9c-13.8-22.2-33.4-40.2-56.6-52.1c-1.5-0.8-2-2.5-1.3-4c0.8-1.5,2.5-2,4-1.3
			C268.5,42.2,300,93.8,300,150C300,232.9,232.8,300,150,300L150,300z"/>
		<path id="Path_10_" class="st0" d="M206.5,13.6c0,2.2-1.8,3.9-3.9,3.9c-2.2,0-3.9-1.7-3.9-3.9c0-2.2,1.7-3.9,3.9-3.9
			c1,0,2,0.4,2.8,1.1C206.1,11.6,206.5,12.6,206.5,13.6z"/>
	</g>
</g>
<g id="Light_1_" transform="translate(0.842105, 0.368421)">
	<line id="Shape_43_" class="st33" x1="226.7" y1="98.6" x2="199.4" y2="87.9"/>
	<line id="Shape_42_" class="st33" x1="211.5" y1="123.9" x2="189.7" y2="104.1"/>
	<line id="Shape_41_" class="st33" x1="76.4" y1="98.6" x2="103.7" y2="87.9"/>
	<line id="Shape_40_" class="st33" x1="91.6" y1="123.9" x2="113.4" y2="104.1"/>
	<path id="Shape_39_" class="st33" d="M127.5,147.4c4.8,1.5,9.7,2.6,14.6,3.2"/>
	<path id="Shape_38_" class="st33" d="M173.5,148c0.7-0.2,1.4-0.4,2.1-0.6"/>
	<path id="Shape_37_" class="st33" d="M161,150.6c4.2-0.5,8.4-1.3,12.5-2.5"/>
	<path id="Shape_36_" class="st33" d="M206.8,128.8c15.2-14.5,24.2-34.4,25.2-55.6c0-1-0.3-2-1-2.7c-0.7-0.7-1.6-1.2-2.7-1.2h-29.8
		c-5.3,0-10.1,2.9-12.7,7.5c-5.9,8.9-13.2,16.7-21.5,23.3"/>
	<path id="Shape_35_" class="st33" d="M95.8,128.3C81,113.8,72.1,94.1,71.2,73.2c0-1,0.3-2,1-2.7c0.7-0.7,1.6-1.2,2.7-1.2h29.8
		c5.3,0,10.1,2.9,12.7,7.5c5.9,8.9,13.2,16.7,21.5,23.3"/>
	<line id="Shape_34_" class="st33" x1="145.2" y1="198.4" x2="144.5" y2="186.9"/>
	<line id="Shape_33_" class="st33" x1="158.5" y1="189.9" x2="158" y2="196.3"/>
	<path id="Shape_32_" class="st35" d="M142.6,158.1l-4.7-73.9c-0.3-5.2,2.2-10.1,6.6-12.8c4.4-2.7,9.9-2.7,14.2,0
		c4.4,2.7,6.9,7.6,6.6,12.8l-4.9,76.2"/>
	<path id="Shape_31_" class="st33" d="M179.3,230.2c-3.9,5.9-14.8,10.1-27.8,10.1c-16.2,0-29.3-6.7-29.3-14.9
		c0-8.2,13.1-14.9,29.3-14.9"/>
	<path id="Shape_30_" class="st33" d="M123.9,204.1c-4.9-2.1-8.3-6.8-8.9-12.1c0.2-3.8,2.1-7.3,5.2-9.5"/>
	<path id="Shape_29_" class="st33" d="M151.6,173.4c20.2,0,36.6,8.3,36.6,18.6c0,5.8-5.2,10.9-13.3,14.3c-7.4,2.9-15.3,4.4-23.3,4.2
		"/>
	<path id="Shape_28_" class="st33" d="M181.1,169.3c13.1-4,21.7-10.7,21.7-18.2c0-7-3.4-13.5-9.1-17.3l-12.8-8.7"/>
	<path id="Shape_27_" class="st33" d="M122.3,125.1l-12.8,8.7c-5.7,3.9-9.1,10.4-9.1,17.3c0,12.3,22.9,22.3,51.2,22.3"/>
</g>
</svg>
