<svg xmlns="http://www.w3.org/2000/svg" id="Calque_1" x="0" y="0" version="1.1" viewBox="0 0 300 300" xml:space="preserve">
  <defs/>
  <style>.st0,.st6{stroke:#3c4957}.st0{stroke-miterlimit:10;fill:#3c4957;stroke-width:.8111}.st6{fill:none;stroke-width:7.7049;stroke-linecap:round;stroke-linejoin:round}</style>
  <g id="Stroke_18_">
    <path d="M188.6 11c-.2 0-.6 0-.8-.1-4.9-1.4-9.9-2.4-14.9-3.2-1.6-.2-2.8-1.8-2.4-3.4s1.8-2.8 3.4-2.4c5.3.8 10.5 1.9 15.6 3.3 1.5.4 2.5 2 2.1 3.6-.5 1.3-1.7 2.2-3 2.2z" class="st0"/>
    <path d="M150 300C67.1 300-.1 232.8 0 149.9c0-39.7 15.8-77.9 43.9-106S110.2-.1 150 0c1.6 0 3 1.3 3 3s-1.4 2.9-3 2.9C70.4 5.9 5.9 70.4 5.8 150c0 38.2 15.2 74.9 42.2 101.9 56.3 56.3 147.6 56.3 203.8 0 47.4-47.4 55.8-121.1 20.4-177.9-13.8-22.1-33.4-40.1-56.6-52.1-1.5-.7-2-2.5-1.3-4s2.5-2 4-1.3C268.5 42.2 300 93.8 300 150c0 82.8-67.2 150-150 150z" class="st0"/>
    <path d="M206.9 12.7c0 2.1-1.7 3.8-3.8 3.7-2.1 0-3.8-1.7-3.7-3.8 0-2.1 1.7-3.7 3.8-3.7 2 0 3.7 1.7 3.7 3.8z" class="st0"/>
  </g>
  <path fill="#00bfb6" d="M156.6 239.6l-27.5-27.5c-5.3-5.3-5.3-13.9 0-19.2l28.3-28.3c1.8-1.8 4.6-1.8 6.4 0l40.3 40.3c1.8 1.8 1.8 4.6 0 6.4l-28.3 28.3c-5.2 5.3-13.9 5.3-19.2 0z"/>
  <path fill="#fdc53b" stroke="#3c4957" stroke-linecap="round" stroke-linejoin="round" stroke-width="7.7049" d="M111.5 61.4c27.7 0 50.1 22.4 50.1 50.1s-22.4 50.1-50.1 50.1-50.1-22.4-50.1-50.1 22.4-50.1 50.1-50.1z"/>
  <path d="M190.3 228.4c-13.5 13.5-35.5 13.5-49 0s-13.5-35.5 0-49l38.1-38.1c13.5-13.5 35.5-13.5 49 0s13.5 35.5 0 49l-38.1 38.1zM160.4 160.3l49 49M190.3 152.2c5.5-5.5 13.8-7.2 21-4.2M160.2 99.9H62.7M62.7 123h97.5" class="st6"/>
</svg>
