<svg xmlns="http://www.w3.org/2000/svg" viewBox="0 0 369.9 369.9"><defs><style>.cls-1{fill:#4fcfca;}.cls-2{fill:#fdc53b;}.cls-3{fill:#263444;}</style></defs><title>Fichier 4</title><g id="Calque_2" data-name="Calque 2"><g id="Stroke"><path class="cls-1" d="M169,276.34a53.33,53.33,0,1,1-75.43-75.42l51.07-51.08,26.53,26.53a36.93,36.93,0,0,0,2.47,49.42l23.2,23.2Z"/><path class="cls-2" d="M283.34,283.32a29.47,29.47,0,0,1-41.73,0l-28.76-28.76,41.72-41.73,28.77,28.76A29.55,29.55,0,0,1,283.34,283.32Z"/><path class="cls-3" d="M98.77,206.14c-8.31,8.31-13.47,21.4-13.47,34.17h7.38c0-10.88,4.33-22,11.28-28.92l28.2-27.49L127,178.61Z"/><path class="cls-3" d="M183.9,132.16,211.36,104c7-7,18.07-11.31,28.95-11.31V85.3c-12.77,0-25.86,5.16-34.21,13.5L178.61,127Z"/><path class="cls-3" d="M254.21,202l27.35-27.84A60.72,60.72,0,1,0,195.7,88.33L88.33,195.7a60.72,60.72,0,0,0,85.84,85.89L202,254.21l34.33,34.33a36.89,36.89,0,1,0,52.17-52.17Zm-75.36-23.19a29.47,29.47,0,0,1,41.73,0l28.76,28.76-41.73,41.73-28.76-28.76A29.53,29.53,0,0,1,178.85,178.85Zm22.07-85.3A53.33,53.33,0,1,1,276.32,169L249,196.82l-23.19-23.2a36.84,36.84,0,0,0-49.42-2.48l-26.52-26.51ZM169,276.34a53.33,53.33,0,1,1-75.43-75.42l51.08-51.08,26.52,26.53a36.94,36.94,0,0,0,2.47,49.42l23.2,23.2Zm114.34,7a29.47,29.47,0,0,1-41.73,0l-28.76-28.76,41.73-41.73,28.76,28.76A29.55,29.55,0,0,1,283.32,283.32Z"/><path class="cls-3" d="M261.36,230.3l-5.19,5.26L272.88,252a14.81,14.81,0,0,1,1.39,19.28l5.9,4.44a22.25,22.25,0,0,0-2.09-29Z"/><path class="cls-3" d="M232.61,13.65a3.52,3.52,0,0,1-1-.13,177.34,177.34,0,0,0-18.41-4,3.66,3.66,0,1,1,1.16-7.23,183.66,183.66,0,0,1,19.17,4.13,3.66,3.66,0,0,1-1,7.19Z"/><path class="cls-3" d="M185,369.9A185,185,0,0,1,54.17,54.17,183.75,183.75,0,0,1,185,0a3.66,3.66,0,1,1,0,7.32A177.63,177.63,0,0,0,59.35,310.55,177.64,177.64,0,0,0,335.8,91.12,178.24,178.24,0,0,0,266,26.85a3.66,3.66,0,0,1,3.35-6.51A185,185,0,0,1,369.9,185,184.95,184.95,0,0,1,185,369.9Z"/><path class="cls-3" d="M255.06,15.67A4.66,4.66,0,1,1,250.4,11,4.66,4.66,0,0,1,255.06,15.67Z"/></g></g></svg>