<svg xmlns="http://www.w3.org/2000/svg" id="Calque_1" x="0" y="0" version="1.1" viewBox="0 0 300 300" xml:space="preserve">
  <defs/>
  <style>.st0,.st17{stroke:#3c4957}.st0{stroke-miterlimit:10;fill:#3c4957;stroke-width:.8111}.st17{fill:none;stroke-width:7.4293;stroke-linecap:round;stroke-linejoin:round}</style>
  <g id="Stroke_16_">
    <path d="M188.6 11c-.2 0-.6 0-.8-.1-4.9-1.4-9.9-2.4-14.9-3.2-1.6-.2-2.8-1.8-2.4-3.4s1.8-2.8 3.4-2.4c5.3.8 10.5 1.9 15.6 3.3 1.5.4 2.5 2 2.1 3.6-.5 1.3-1.7 2.2-3 2.2z" class="st0"/>
    <path d="M150 300C67.1 300-.1 232.8 0 149.9c0-39.7 15.8-77.9 43.9-106S110.2-.1 150 0c1.6 0 3 1.3 3 3s-1.4 2.9-3 2.9C70.4 5.9 5.9 70.4 5.8 150c0 38.2 15.2 74.9 42.2 101.9 56.3 56.3 147.6 56.3 203.8 0 47.4-47.4 55.8-121.1 20.4-177.9-13.8-22.1-33.4-40.1-56.6-52.1-1.5-.7-2-2.5-1.3-4s2.5-2 4-1.3C268.5 42.2 300 93.8 300 150c0 82.8-67.2 150-150 150z" class="st0"/>
    <path d="M206.9 12.7c0 2.1-1.7 3.8-3.8 3.7-2.1 0-3.8-1.7-3.7-3.8 0-2.1 1.7-3.7 3.8-3.7 2 0 3.7 1.7 3.7 3.8z" class="st0"/>
  </g>
  <path fill="#00bfb6" stroke="#3c4957" stroke-linecap="round" stroke-linejoin="round" stroke-width="7.4293" d="M82.4 228.8c.4 3.8 3.6 6.6 7.4 6.6h120.4c3.8 0 7-2.9 7.4-6.6l13.7-130.5c.3-2.5-.8-5-2.7-6.6-22.3-17.8-50-27.4-78.6-27.1-28.5-.3-56.3 9.3-78.6 27.1-2 1.6-3 4.1-2.7 6.6l13.7 130.5z"/>
  <path fill="#fdc53b" stroke="#3c4957" stroke-linecap="round" stroke-linejoin="round" stroke-width="7.4293" d="M211.5 97.6c1 .7 1.7 1.9 1.7 3.1v19.6c0 2.1-1.7 3.7-3.7 3.7H90.6c-2.1 0-3.7-1.7-3.7-3.7v-19.6c0-1.3.6-2.4 1.7-3.1 26.7-17.3 59.5-22.6 90.3-14.5 11.5 3.1 22.5 8 32.6 14.5z"/>
  <path d="M100 197c.8 9.5 9.2 16.5 18.7 15.6 8.9-.8 15.7-8.3 15.7-17.2v-30.1c0-10.3-8.3-18.6-18.5-18.6s-18.6 8.3-18.6 18.5c0 .6 0 1.2.1 1.8l2.6 30zM200 197c-.8 9.5-9.2 16.5-18.7 15.6-8.9-.8-15.7-8.3-15.7-17.2v-30.1c0-10.3 8.3-18.6 18.5-18.6 10.3 0 18.6 8.3 18.6 18.5 0 .6 0 1.2-.1 1.8l-2.6 30z" class="st17"/>
  <path fill="#3c4957" stroke="#3c4957" stroke-linecap="round" stroke-linejoin="round" stroke-width="7.4293" d="M142.6 124l7.4-22.3 7.4 22.3"/>
  <path d="M150 90.6V79.4M168.6 92.3l2.1-10.9M186.5 97.5l4.1-10.4M131.4 92.3l-2.1-10.9M113.5 97.5l-4.1-10.4" class="st17"/>
</svg>
