<?xml version="1.0" encoding="utf-8"?>
<!-- Generator: Adobe Illustrator 23.0.6, SVG Export Plug-In . SVG Version: 6.00 Build 0)  -->
<svg version="1.1" id="Calque_1" xmlns="http://www.w3.org/2000/svg" xmlns:xlink="http://www.w3.org/1999/xlink" x="0px" y="0px"
	 viewBox="0 0 369.9 369.9" style="enable-background:new 0 0 369.9 369.9;" xml:space="preserve">
<style type="text/css">
	.st0{fill:#263444;}
	.st1{fill:#4FCFCA;}
	.st2{fill:#FDC53B;}
	.st3{fill:none;stroke:#263444;stroke-width:8;stroke-miterlimit:10;}
</style>
<title>Fichier 22</title>
<g>
	<g id="Stroke">
		<path class="st0" d="M232.6,13.6c-0.3,0-0.7,0-1-0.1c-6.1-1.7-12.2-3-18.4-4c-2-0.3-3.4-2.2-3-4.2s2.2-3.4,4.2-3
			c6.5,1,12.9,2.4,19.2,4.1c1.9,0.5,3.1,2.5,2.6,4.5C235.7,12.5,234.2,13.6,232.6,13.6L232.6,13.6z"/>
		<path class="st0" d="M185,369.9C82.8,369.9,0,287,0.1,184.8c0-49,19.5-96,54.1-130.7C88.8,19.4,135.9-0.1,185,0
			c2,0,3.7,1.6,3.7,3.7S187,7.3,185,7.3C86.9,7.3,7.4,86.8,7.3,184.9c0,47.1,18.7,92.3,52,125.6c69.4,69.4,181.9,69.4,251.2,0
			c58.4-58.4,68.8-149.3,25.2-219.4c-17-27.3-41.2-49.5-69.8-64.3c-1.8-0.9-2.5-3.1-1.6-4.9c0.9-1.8,3.1-2.5,4.9-1.6l0,0
			C331.1,52,369.9,115.6,369.9,185C369.9,287.1,287.1,369.9,185,369.9z"/>
		<path class="st0" d="M255.1,15.7c0,2.6-2.1,4.7-4.7,4.6c-2.6,0-4.7-2.1-4.6-4.7c0-2.6,2.1-4.6,4.7-4.6
			C253,11,255.1,13.1,255.1,15.7C255.1,15.7,255.1,15.7,255.1,15.7z"/>
		<path class="st1" d="M106.8,69.6h156.4c6.6,0,12,5.4,12,12v206.7c0,6.6-5.4,12-12,12H106.8c-6.6,0-12-5.4-12-12V81.6
			C94.8,75,100.1,69.6,106.8,69.6z"/>
		<ellipse class="st2" cx="185.5" cy="139.2" rx="48.9" ry="45.1"/>
		<path class="st0" d="M184.8,87.4c-29.1,0-52.7,23.6-52.7,52.7c0,18.2,9.3,35,24.7,44.7l0.9,0.6h54.2l0.9-0.6
			c24.7-15.4,32.1-48,16.7-72.6C219.8,96.7,203,87.4,184.8,87.4L184.8,87.4z M204.2,177.8h-38.9c6.1-10.8,19.8-14.5,30.6-8.3
			C199.4,171.4,202.3,174.3,204.2,177.8z M211.9,176.1c-3.3-6.8-9-12.1-16.1-14.9l10-38.9l-7.3-1.9l-10,38.8
			c-1.3-0.2-2.5-0.3-3.8-0.3c-11.6,0.1-22.1,6.7-27.1,17.1c-11.3-8.5-18-21.8-18-36h7.5v-7.5h-6.9c1.5-8.9,5.6-17.1,11.8-23.6
			l6.1,6.1l5.3-5.3l-5.7-5.7c6.8-5.1,14.8-8.2,23.2-8.9v7.3h7.5v-7.3c8.4,0.7,16.5,3.8,23.3,8.9l-5.7,5.7l5.3,5.3l6-6
			c6.2,6.5,10.3,14.7,11.8,23.6h-6.9v7.5h7.6C230,154.3,223.4,167.7,211.9,176.1L211.9,176.1z"/>
		<path class="st3" d="M109.1,70.3h152c6.6,0,12,5.4,12,12v204c0,6.6-5.4,12-12,12h-152c-6.6,0-12-5.4-12-12v-204
			C97.1,75.7,102.5,70.3,109.1,70.3z"/>
		<ellipse class="st0" cx="184.4" cy="173.5" rx="22.6" ry="10.8"/>
		
			<rect x="176.7" y="135.8" transform="matrix(0.2573 -0.9663 0.9663 0.2573 11.366 294.6137)" class="st0" width="41.2" height="8.3"/>
	</g>
</g>
</svg>
