<svg width="0" height="0" class="hidden">
  <symbol viewBox="0 0 38 38" xmlns="http://www.w3.org/2000/svg" id="logo-circle">
    <title>Picto/Header/accès</title>
    <g fill="none" fill-rule="evenodd">
      <circle stroke="#EAEAEA" fill="#FFF" cx="19" cy="19" r="18.5"></circle>
      <path fill="#FDC53B" d="M28.2 8h-1.96l.001 2.68h-2.94l.001 1.834h2.94v2.82l1.96-.001-.001-2.82H31v-1.834h-2.8z"></path>
      <path d="M18.094 13.106a6.656 6.656 0 0 0-.81-.064h-.23c-.077-.001-.156.006-.237.01a6.36 6.36 0 0 0-.5.043 9.09 9.09 0 0 0-.526.085 5.36 5.36 0 0 0-.543.133 5.357 5.357 0 0 0-.276.082l-.275.098c-.187.062-.367.148-.551.228a7.72 7.72 0 0 0-1.06.61c-.171.114-.333.242-.494.368-.08.064-.157.134-.233.2l-.112.102c-.04.034-.076.07-.112.106a7.053 7.053 0 0 0-1.378 1.84c-.152.297-.28.607-.38.926-.085.271-.145.55-.18.832a3.31 3.31 0 0 0-.008.788l.02.115a.975.975 0 0 0 .039.17c.028.09.045.139.045.139s.022-.047.06-.135c.017-.045.045-.095.073-.152l.047-.09c.016-.033.036-.067.056-.103a7.65 7.65 0 0 1 .76-1.071c.175-.204.358-.421.567-.635a13.6 13.6 0 0 1 1.418-1.294l.097-.079.1-.076c.068-.05.134-.103.202-.153.138-.096.271-.2.414-.292.277-.196.566-.373.853-.544l.217-.124a3.5 3.5 0 0 1 .219-.12l.216-.118.217-.11c.073-.035.142-.077.215-.11a8.63 8.63 0 0 0 .215-.1c.141-.072.284-.128.421-.194s.276-.12.409-.176c.066-.027.131-.058.197-.084.066-.025.13-.05.193-.076.255-.104.49-.186.703-.275.212-.075.401-.153.56-.208.158-.055.284-.103.371-.139.087-.036.133-.057.133-.057s-.046-.019-.134-.05c-.088-.03-.218-.076-.386-.12a7.684 7.684 0 0 0-.612-.126z"
        fill="#CED4D4"></path>
      <path d="M26.32 19.89c.002 4.035-3.942 7.318-8.73 7.32a10.262 10.262 0 0 1-2.977-.432.924.924 0 0 0-.742.09 9.34 9.34 0 0 1-1.535.725c.124-.233.236-.474.337-.715a.94.94 0 0 0-.359-1.151c-2.2-1.4-3.46-3.534-3.461-5.831-.002-4.018 3.909-7.316 8.715-7.317l3.845-.001V10.75l-3.846.001c-2.797 0-5.432.945-7.417 2.635C8.118 15.116 7 17.446 7 19.924a8.213 8.213 0 0 0 1.195 4.234 9.59 9.59 0 0 0 2.443 2.677 7.325 7.325 0 0 1-1.198 1.58.931.931 0 0 0 .775 1.58 11.696 11.696 0 0 0 4.276-1.327 11.94 11.94 0 0 0 3.104.4c2.793 0 5.474-.936 7.455-2.642 2.019-1.737 3.234-4.059 3.233-6.54v-2.39H26.32v2.394z"
        fill="#263444"></path>
      <path fill="#D1AB43" d="M26.472 12.584l1.811.916v-.917z"></path>
    </g>
  </symbol>
</svg>
